<svg id="Layer_1" xmlns="http://www.w3.org/2000/svg" viewBox="0 0 512 256">
  <style>
    .st0{fill:#C33A32;} .st1{fill:#231F20;}
  </style>
  <path class="st0" d="M210.1 121.4l60.2-60.2 60.2 60.2-60.2 60.2-60.2-60.2zm60 67.8l67.6-67.6L270.1 54l-67.6 67.6 67.6 67.6z"/>
  <path class="st0" d="M292.3 114.4c-2 0-3.7-1.6-3.7-3.7 0-2-1.7-3.7-3.7-3.7s-3.7 1.6-3.7 3.7c0 2-1.6 3.7-3.6 3.7s-3.7-1.6-3.7-3.7c0-2-1.6-3.7-3.7-3.7-2 0-3.7 1.6-3.7 3.7 0 2-1.6 3.7-3.7 3.7-2 0-3.7-1.6-3.7-3.7 0-2-1.6-3.7-3.7-3.7-2 0-3.7 1.7-3.7 3.7s-1.6 3.7-3.7 3.7v-7.8c2 0 3.7-1.7 3.7-3.7s1.6-3.7 3.7-3.7c2 0 3.7 1.6 3.7 3.7 0 2 1.6 3.7 3.7 3.7 2 0 3.7-1.6 3.7-3.7 0-2 1.6-3.7 3.7-3.7 2 0 3.7 1.6 3.7 3.7 0 2 1.7 3.7 3.7 3.7s3.6-1.6 3.6-3.7c0-2 1.6-3.7 3.7-3.7 2 0 3.7 1.6 3.7 3.7 0 2 1.7 3.7 3.7 3.7v7.8z"/>
  <path class="st0" d="M292.3 129.1c-2 0-3.7-1.6-3.7-3.7 0-2-1.7-3.7-3.7-3.7s-3.7 1.6-3.7 3.7c0 2-1.6 3.7-3.6 3.7s-3.7-1.6-3.7-3.7c0-2-1.6-3.7-3.7-3.7-2 0-3.7 1.6-3.7 3.7 0 2-1.6 3.7-3.7 3.7-2 0-3.7-1.6-3.7-3.7 0-2-1.6-3.7-3.7-3.7-2 0-3.7 1.7-3.7 3.7s-1.6 3.7-3.7 3.7v-7.8c2 0 3.7-1.7 3.7-3.7s1.6-3.7 3.7-3.7c2 0 3.7 1.6 3.7 3.7s1.6 3.7 3.7 3.7c2 0 3.7-1.6 3.7-3.7s1.6-3.7 3.7-3.7c2 0 3.7 1.6 3.7 3.7s1.7 3.7 3.7 3.7 3.6-1.6 3.6-3.7 1.6-3.7 3.7-3.7c2 0 3.7 1.6 3.7 3.7s1.7 3.7 3.7 3.7v7.8z"/>
  <path class="st0" d="M292.3 143.7c-2 0-3.7-1.6-3.7-3.7 0-2-1.7-3.7-3.7-3.7s-3.7 1.6-3.7 3.7c0 2-1.6 3.7-3.6 3.7s-3.7-1.6-3.7-3.7c0-2-1.6-3.7-3.7-3.7-2 0-3.7 1.6-3.7 3.7 0 2-1.6 3.7-3.7 3.7-2 0-3.7-1.6-3.7-3.7 0-2-1.6-3.7-3.7-3.7-2 0-3.7 1.7-3.7 3.7s-1.6 3.7-3.7 3.7V136c2 0 3.7-1.7 3.7-3.7s1.6-3.7 3.7-3.7c2 0 3.7 1.6 3.7 3.7 0 2 1.6 3.7 3.7 3.7 2 0 3.7-1.6 3.7-3.7 0-2 1.6-3.7 3.7-3.7 2 0 3.7 1.6 3.7 3.7 0 2 1.7 3.7 3.7 3.7s3.6-1.6 3.6-3.7c0-2 1.6-3.7 3.7-3.7 2 0 3.7 1.6 3.7 3.7 0 2 1.7 3.7 3.7 3.7v7.7zm-39.8 11.8v-8.3h13.8v22.1zm21.6 13.8v-22.1h13.8v8.5zm-21.6-81.7v8.1h13.8v-22zm35.4 0v8.1h-13.8v-22zm-58.2 45.2v-22.5l14.8-14.8v51.7zm80.8 0v-22.5l-14.8-14.8v51.7z"/>
  <path class="st1" d="M23 176.4v-2.2c2.6-.4 2.9-2.8 3.7-5.2l6.2-20.9-1.1-3h7l8.5 28.8 1.8.3v2.2H38.2v-2.2l2.2-.3-1.9-7h-9.1l-.9 3.7c-.1.5-.2.9-.2 1.1 0 1.8 1.8 2.3 3.3 2.5v2.2H23zm7.2-12h7.6l-3.7-13.6H34l-3.8 13.6z"/>
  <path class="st1" d="M57.2 174c0 5.9-3.5 10.6-7.4 10.6-1.8 0-3.4-1.1-3.4-3.4 0-1.8 1-3.1 2.7-3.1 2.2 0 3.4 2.3 3.7 2.3.4 0 .4-.6.4-1.7 0-1.5-.5-2.6-1.3-3.6v-13.5c0-1.4-.3-2.5-1.7-2.5h-1V157l8-2.8V174zm.6-25.8c0 2-1.3 3.8-3.2 3.8-1.9 0-3.2-1.8-3.2-3.8 0-2 1.3-3.8 3.2-3.8 1.9 0 3.2 1.8 3.2 3.8zm10.1 6.1v15.5c0 1.7.9 2.9 2.7 2.9 1.7 0 2.9-1.3 3-2.4v-10c0-.8-1.3-1.1-1.9-1.1v-2.1l7.2-2.8V172c0 .8.4 1.3 1.1 1.3.4 0 .6 0 .8-.1v2.1l-5.6 1.7c-.6-1-1.1-2.4-1.4-3.8h-.1c-1 2.3-2.7 3.8-5.2 3.8-4 0-5.9-2.3-5.9-6.4v-10.4c0-.8-1.3-1.1-1.9-1.1V157l7.2-2.7zm26.4 22.1v-2.1l1.9-.3v-12.3c0-1.7-.9-2.9-2.7-2.9-1.9 0-3 1.5-3 2.4v12.7l1.9.3v2.1h-9.1v-2.1l1.9-.3v-13.6c0-.9-1.1-1.3-2.2-1.3v-2.1l5.9-2.8c.6 1.2 1 2.5 1.4 4 1.2-2.1 3.1-4 5.6-4 3.1 0 5.5 2.9 5.5 7.9v11.9l1.9.3v2.1h-9zm18.5-4.9c0 1.2 1 2 1.8 2s1.7-.4 2.2-.8l.8 1.7c-1.6 1.8-3.3 2.7-5.6 2.7-2.7 0-4.5-1.6-4.5-4.6v-14.7h-2.4V155h2.5v-6l5.3-2.9v8.8h3.9v2.8h-4v13.8zm22.7 2.7c-.6 1.3-2.1 2.8-3.6 2.8-1.6 0-2.7-1-3.5-2.9-1.2 1.9-2.8 2.9-4.9 2.9-3.1 0-4.7-2.4-4.7-5.5 0-5.6 5.3-8 9.4-9.2 0-2.8-.8-5.8-2.3-5.8h-.5c-.1 1.9-.9 4.5-3.1 4.5-1.7 0-2.6-1-2.6-3 0-2.6 1.8-3.8 4.5-3.8 5.4 0 9 3.2 9 9.7v8.8c0 .4.1.7.5.7.5 0 .8-.3 1.1-.7l.7 1.5zm-7.4-9.9c-2.3.9-4.1 2.8-4.1 5.7 0 1.9.9 3.2 2.3 3.2.9 0 1.2-.4 1.9-1.1v-7.8zm30.9 12.1v-2.1l1.9-.3v-12.3c0-1.7-.9-2.9-2.7-2.9-2 0-3 1.6-3 2.4v12.7l1.9.3v2.1H148v-2.1l1.9-.3v-12.3c0-1.7-.9-2.9-2.7-2.9-1.8 0-3 1.4-3 2.4v12.7l1.9.3v2.1H137v-2.1l1.9-.3v-13.6c0-.9-1.1-1.3-2.2-1.3v-2.1l5.9-2.8c.6 1.2 1 2.5 1.4 4 1.2-2.1 3.1-4 5.6-4 2.3 0 4.2 1.4 5 4.1 1.4-2.3 3.1-4.1 5.9-4.1 3.1 0 5.5 2.9 5.5 8.1v11.6l1.9.3v2.1H159zm26.9-5.7c-1.7 3.9-4 6.3-8 6.3-5.1 0-7.7-5.5-7.7-11.3 0-5.6 2.9-11.4 8.4-11.4 4.9 0 6.7 5.1 7.1 9.6l-9.7 3.7c.6 2.1 1.8 4.8 4.3 4.8 2 0 2.9-1.4 4.1-3.1l1.5 1.4zm-7.4-7c1.4-.4 2.2-1.1 2.2-2.6 0-2.8-.6-4.7-2.7-4.7-2.4 0-2.6 4-2.6 5.9 0 .8 0 1.5.1 2.2l3-.8zm20.8 12.7v-2.1l1.9-.3v-12.3c0-1.7-.9-2.9-2.7-2.9-1.9 0-3 1.5-3 2.4v12.7l1.9.3v2.1h-9.1v-2.1l1.9-.3v-13.6c0-.9-1.1-1.3-2.2-1.3v-2.1l5.9-2.8c.6 1.2 1 2.5 1.4 4 1.2-2.1 3.1-4 5.6-4 3.1 0 5.5 2.9 5.5 7.9v11.9l1.9.3v2.1h-9zm18.6-4.9c0 1.2 1 2 1.9 2 .8 0 1.7-.4 2.2-.8l.8 1.7c-1.6 1.8-3.3 2.7-5.6 2.7-2.7 0-4.5-1.6-4.5-4.6v-14.7h-2.4V155h2.5v-6l5.3-2.9v8.8h3.9v2.8h-4v13.8zm116.7-29.1v29.9c0 .8 1.3 1.1 1.9 1.1v2.1l-5.6 1.7-1.4-3.5c-1 2.1-2.4 3.5-4.9 3.5-4.9 0-6.4-6.4-6.4-10.9 0-5.2 2.3-11.9 7.4-11.9 1.2 0 2.7.5 3.5 1.5v-7.6c0-.8-.7-1.2-1.1-1.2-.3 0-.6 0-.8.1v-2.1l7.4-2.7zm-5.2 28.8v-10.7c0-2-.6-3.5-2.4-3.5-2.9 0-3.3 4.2-3.3 6.8 0 3.7.8 9.3 3.7 9.3 1-.1 2-1.1 2-1.9zm25.8-.3c-1.7 3.9-4 6.3-8 6.3-5.1 0-7.7-5.5-7.7-11.3 0-5.6 2.9-11.4 8.4-11.4 4.9 0 6.7 5.1 7.1 9.6l-9.7 3.7c.6 2.1 1.8 4.8 4.3 4.8 2 0 2.9-1.4 4.1-3.1l1.5 1.4zm-7.4-7c1.4-.4 2.2-1.1 2.2-2.5 0-2.8-.6-4.6-2.7-4.6-2.4 0-2.6 4-2.6 5.9 0 .8 0 1.5.1 2.2l3-1zm51.4 10.5c-3.4 1.2-6.5 2.8-10.3 2.8-7.9 0-12.2-7.2-12.2-15.3 0-8.1 4.7-17.3 12.2-17.3 1.3 0 2.3.4 3.2.7.9.4 1.6.7 2.4.7 1 0 2.4-.8 3.3-1.3l1.5 10.2-1.7.3c-1.8-3.7-4.1-8.3-8.5-8.3-4.9 0-5.4 6.5-5.4 13.2 0 8.2 2.7 14.5 7.1 14.5.9 0 1.7-.2 2.4-.4v-7.7l-2.2-.5v-2.2h10.3v2.2l-2.1.3v8.1zm11.5-20v19.8l1.9.3v2.1h-9.1v-2.1l1.9-.3v-13.8c0-.8-1.3-1.1-1.9-1.1v-2.1l7.2-2.8zm-2.7-2.2c-1.9 0-3.2-1.8-3.2-3.8 0-2 1.3-3.8 3.2-3.8 1.9 0 3.2 1.8 3.2 3.8.1 2-1.3 3.8-3.2 3.8zm5.8 5.1l6.4-2.8c.8 2.2 1.2 4.6 1.4 7.1h.1c.6-2.4 1.9-7.1 5.1-7.1 1.9 0 2.9 1.2 2.9 3.4 0 1.5-.9 3.2-3.2 3.2-1.1 0-1.6-.2-2.2-.4-.9.7-2.1 3.4-2.1 9.2v4.4l1.9.3v2.1H415v-2.1l1.9-.3V165c0-1.7 0-5.8-2.2-5.8h-1v-1.9zm34.3 8.5c0 5.2-2.7 11.4-8.9 11.4s-8.9-6.2-8.9-11.4 2.7-11.4 8.9-11.4c6.1 0 8.9 6.2 8.9 11.4zm-12 0c0 6 .7 9.1 3.1 9.1 2.4 0 3.1-3.1 3.1-9.1 0-6.2-1.1-9.1-3.1-9.1s-3.1 2.9-3.1 9.1zm25.4 10.7v-2.1l1.9-.3V162c0-1.7-.9-2.9-2.7-2.9-1.9 0-3 1.5-3 2.4v12.7l1.9.3v2.1h-9.1v-2.1l1.9-.3v-13.6c0-.9-1.1-1.2-2.2-1.2v-2.1l5.9-2.8c.6 1.2 1 2.5 1.4 4 1.2-2.1 3.1-4 5.6-4 3.1 0 5.5 3 5.5 7.9v11.9l1.9.3v2.1h-9zm27.9-2.2c-.6 1.3-2 2.8-3.6 2.8s-2.7-1-3.5-2.9c-1.2 1.9-2.8 2.9-4.9 2.9-3.1 0-4.7-2.4-4.7-5.5 0-5.6 5.3-8 9.4-9.2 0-2.8-.8-5.8-2.3-5.8h-.5c-.1 1.9-.9 4.5-3.1 4.5-1.6 0-2.6-1-2.6-3 0-2.6 1.8-3.8 4.5-3.8 5.4 0 9 3.2 9 9.8v8.8c0 .4.1.7.5.7.5 0 .8-.3 1.1-.7l.7 1.4zm-7.5-9.9c-2.3.9-4.1 2.8-4.1 5.7 0 1.9.9 3.2 2.3 3.2.9 0 1.2-.4 1.8-1.1v-7.8z"/>
</svg>
