<svg xmlns="http://www.w3.org/2000/svg" width="353.37" height="321.59" viewBox="0 0 353.37 321.59">
  <defs>
    <style>
      .cls-1{fill:#009245;}.cls-2{fill:#a67c52;}.cls-3{fill:#0071bc;}.cls-4{fill:#f7931e;}.cls-5{fill:#fcee21;}.cls-6{fill:#686868;}.cls-7{fill:#2a2a2a;}.cls-8{fill:#202020;}.cls-9{fill:#292929;}.cls-10{fill:#5c5c5c;}.cls-11{fill:#7a7a7a;}.cls-12{fill:#535353;}.cls-13{fill:#424242;}.cls-14{fill:#252525;}.cls-15{fill:#d2d2d2;}.cls-16{fill:#d9d9d9;}.cls-17{fill:#e9e9e9;}.cls-18{fill:#101010;}.cls-19{fill:#191919;}.cls-20{fill:#525252;}.cls-21{fill:#282828;}.cls-22{fill:#6a6a6a;}.cls-23{fill:#5f5f5f;}.cls-24{fill:#4d4d4d;}.cls-25{fill:#1b1b1b;}.cls-26{fill:#d5d5d5;}.cls-27{fill:#4e4e4e;}.cls-28{fill:#2d2d2d;}.cls-29{fill:#dfdfdf;}.cls-30{fill:#a2a2a2;}.cls-31{fill:#c1c1c1;}.cls-32{fill:#6e6e6e;}.cls-33{fill:#5d5d5d;}.cls-34{fill:#707070;}.cls-35{fill:#434343;}.cls-36{fill:#464646;}.cls-37{fill:#ebebeb;}.cls-38{fill:#858585;}.cls-39{fill:#c8c8c8;}.cls-40{fill:#5a5a5a;}.cls-41{fill:#646464;}.cls-42{fill:#3c3c3c;}.cls-43{fill:#747474;}.cls-44{fill:#dcdcdc;}.cls-45{fill:#494949;}.cls-46{fill:#9a9a9a;}.cls-47{fill:#2b2b2b;}.cls-48{fill:#7d7d7d;}.cls-49{fill:#373737;}.cls-50{fill:#272727;}.cls-51{fill:#151515;}.cls-52{fill:#6d6d6d;}.cls-53{fill:#dadada;}.cls-54{fill:#979797;}.cls-55{fill:#e1e1e1;}.cls-56{fill:#393939;}.cls-57{fill:#111;}.cls-58{fill:#797979;}.cls-59{fill:#f0f0f0;}.cls-60{fill:#959595;}.cls-61{fill:#bfbfbf;}.cls-62{fill:#5b5b5b;}.cls-63{fill:#969696;}.cls-64{fill:#181818;}.cls-65{fill:#a1a1a1;}.cls-66{fill:#f2f2f2;}.cls-67{fill:#4c4c4c;}.cls-68{fill:#050505;}.cls-69{fill:#1d1d1d;}.cls-70{fill:#545454;}.cls-71{fill:#212121;}.cls-72{fill:#222;}.cls-73{fill:#676767;}.cls-74{fill:#060606;}.cls-75{fill:#737373;}.cls-76{fill:#414141;}.cls-77{fill:#1a1a1a;}.cls-78{fill:#efefef;}.cls-79{fill:#989898;}.cls-80{fill:#010101;}.cls-81{fill:#131313;}.cls-82{fill:#777;}.cls-83{fill:#dbdbdb;}.cls-84{fill:#606060;}.cls-85{fill:#a0a0a0;}.cls-86{fill:#acacac;}.cls-87{fill:#1f1f1f;}.cls-88{fill:#4b4b4b;}.cls-89{fill:#818181;}.cls-90{fill:#121212;}.cls-91{fill:#cdcdcd;}.cls-92{fill:#171717;}.cls-93{fill:#9d9d9d;}.cls-94{fill:#515151;}.cls-95{fill:#484848;}.cls-96{fill:#8e8e8e;}.cls-97{fill:#0d0d0d;}.cls-98{fill:#383838;}.cls-99{fill:#f25f5c;}.cls-100{fill:#f6f6f6;}.cls-101{fill:#232323;}.cls-102{fill:#313131;}.cls-103{fill:#3a3a3a;}.cls-104{fill:#262626;}.cls-105{fill:#242424;}.cls-106{fill:#bebebe;}.cls-107{fill:#8f8f8f;}.cls-108{fill:#afafaf;}.cls-109{fill:#636363;}.cls-110{fill:#303030;}.cls-111{fill:#f1f1f1;}.cls-112{fill:#2e2e2e;}.cls-113{fill:#161616;}.cls-114{fill:#3d3d3d;}.cls-115{fill:#0f0f0f;}.cls-116{fill:#1e1e1e;}.cls-117{fill:#dedede;}.cls-118{fill:#ececec;}.cls-119{fill:#0c0c0c;}.cls-120{fill:#ededed;}.cls-121{fill:#363636;}.cls-122{fill:#3b3b3b;}.cls-123{fill:#404040;}.cls-124{fill:#595959;}.cls-125{fill:#e2e2e2;}.cls-126{fill:#1c1c1c;}.cls-127{fill:#2f2f2f;}.cls-128{fill:#3e3e3e;}.cls-129{fill:#a7a7a7;}.cls-130{fill:#353535;}.cls-131{fill:#d8d8d8;}.cls-132{fill:#909090;}.cls-133{fill:#0e0e0e;}
    </style>
  </defs>
  <title>
    angel
  </title>
  <g id="Layer_2" data-name="Layer 2">
    <g id="Layer_1-2" data-name="Layer 1">
      <path class="cls-1" d="M48.9 232c-20 19-23 48.73-47.33 64.62-3.85 2.5.07 8.46 3.92 6 10.5-6.9 18.5-16.22 25-27 7.8-13.06 12.4-28.1 23.6-38.8 3.3-3.15-2-7.9-5.3-4.75z"/>
      <path class="cls-2" d="M58.7 231.7c-1.6 11.86 1 23.35.36 35.2-.35 6.54-1.6 13.56-5.74 18.85-7.62 9.7-21 8-26.37-2.67-2.06-4.1-8.47-1-6.4 3.13 7 13.9 24.35 17.8 35.9 6.8 16.3-15.6 6.74-41.3 9.37-60.7.62-4.5-6.5-5-7.1-.5z"/>
      <path class="cls-3" d="M47.1 237.8c-5.24 18.94-13 46.14-30.12 57.8-3.55 2.43-.05 8.16 3.52 5.72 18.85-12.86 27.28-40.88 33.1-61.9 1.14-4.17-5.35-5.78-6.5-1.62z"/>
      <path class="cls-4" d="M54.1 240c-3.16 13-10.28 22.63-15.74 34.42-3.42 7.38-3.88 14.7.28 21.8 2.32 4 8.48.36 6.15-3.6-6.2-10.54 3.3-20.08 8-28.88a93.18 93.18 0 0 0 8.2-21.88c1.1-4.45-5.8-6.35-6.9-1.9z"/>
      <path class="cls-5" d="M58 239.7c-1.68 7.64-5.65 14.48-6.87 22.26a50.6 50.6 0 0 0 1.2 20.6c1.13 4.45 8 2.57 6.87-1.88a41.65 41.65 0 0 1 .05-22.5c1.64-5.64 4.34-10.8 5.6-16.6 1-4.46-5.87-6.37-6.86-1.88z"/>
      <path class="cls-6" d="M48.84 128.57c-5.7-10.33-1.44-24.67 9.63-32.43l1.47.3A8.36 8.36 0 0 1 62.48 98a16.3 16.3 0 0 1 4.62 6 32.22 32.22 0 0 0 2.1 4.47c4.33 9.1-6.28 12.06-7.72 18.8a13.64 13.64 0 0 1-4.22 3.5 8.32 8.32 0 0 1-5.44-.04 17.8 17.8 0 0 1-2.98-2.16z"/>
      <path class="cls-7" d="M54.48 49.52c0-4.92.92-9.9-.9-14.7a17.5 17.5 0 0 1 4.17-9.06c2.74-2.3 6.07-3.44 9.3-4.8a12 12 0 0 1 5.1-1.84 6.78 6.78 0 0 1 6.32 3.2 10.67 10.67 0 0 1 1 3.6c.15 1.22.3 2.44.47 3.67.28 3 1.35 6 1.18 9.1C74 46.8 67.44 56 54.48 49.5z"/>
      <path class="cls-8" d="M54.48 49.52c7.84-4.27 16.82-6.34 23.76-12.33l1.65-1.3a5.73 5.73 0 0 1 4 .6c4.1 8.4.2 20.9-9.4 30-5.7 1.2-6-4.5-8.9-7-3.3-3.8-11.3-2.4-11.2-10z"/>
      <path class="cls-9" d="M37.14 177c-2.67-9.24 3-17.72 2.4-26.77l4.1-3.3 1.3-.5a7.65 7.65 0 0 1 3.84-2.15 5.93 5.93 0 0 1 4.6 1.58c2 3.95 1.15 8.2 1.34 12.36C50.16 165.77 53 176 46 182.74c-6 2.7-8.1-.5-8.86-5.74z"/>
      <path class="cls-10" d="M65.65 59.52l8.15 3.1a6.07 6.07 0 0 1 5.94 4.9c.08 6.2-1.25 12-5.22 16.9a29.66 29.66 0 0 1-2.8 2.66c-1.5 1.12-2.9 2.44-4.77 3a4 4 0 0 1-3.33-1.35c-2-3.05-4.34-6.78-1-9.58 7-5.9 3.48-12.88 3.03-19.63z"/>
      <path class="cls-11" d="M43.76 137.76L41.88 135l.62-.92-.57-1c1.6-2.7 4.1-3.17 6.94-2.84a8.6 8.6 0 0 1 4.85 1.4 15.65 15.65 0 0 1 3.4 5.9 25.85 25.85 0 0 1 .2 3.47 7.24 7.24 0 0 1-1.5 4.9 5.12 5.12 0 0 1-3.1 1c-1.5-.5-2.92-1.2-4.37-1.9a5.3 5.3 0 0 1-2.1-3.7l-.52-1.3-.86-1.1z"/>
      <path class="cls-12" d="M58.66 27.53a8.12 8.12 0 0 1-5.07 7.3l.1-.13a5.8 5.8 0 0 1-1.6-1.76 2.5 2.5 0 0 1 .1-2.28l.1-1.17-.5-1.1 4.5-5.2a1.8 1.8 0 0 1 2.3-1.5 4.35 4.35 0 0 1 1.4 2.9 6 6 0 0 1-1.66 2.8z"/>
      <path class="cls-13" d="M48.57 142.1l2.94 2.8a1.6 1.6 0 0 1 .6 1.82q-.4.84-.7.84l-5 .1c-.4 1.32-1.1 1.52-2.2.73a6.72 6.72 0 0 1-.4-1.6q0-1.2.2-2.4c1.3-.6 1.5-2.1 2.4-3a2.45 2.45 0 0 1 2.4.5z"/>
      <path class="cls-14" d="M63.62 88.75H66a5 5 0 0 1 2.47 3 5.92 5.92 0 0 1-.8 3.86c-2.8 2.7-5.6 3.8-8.4 0l-.8.6z"/>
      <path class="cls-15" d="M56.18 30.2l-2.4 2.07c-.53 1.16-1.7 1.67-2.53 2.52-1.63-2.4-1.13-4.5.7-6.4.7-.3 1.43-.7 2.14-1a27.85 27.85 0 0 0 2 2.8z"/>
      <path class="cls-16" d="M50.95 132.47l-2.1-2.15v-1.75a4.83 4.83 0 0 1 2.2-.5 3.14 3.14 0 0 1 1.66 2.25 2.76 2.76 0 0 1-1.7 2.15z"/>
      <path class="cls-17" d="M46.6 142.86l-2.8 1.6.22-4.53a2.14 2.14 0 0 1 2.93 0 2.24 2.24 0 0 1-.34 2.93z"/>
      <path class="cls-18" d="M51.25 34.8c-.08-1.77.77-2.6 2.53-2.53v2.44z"/>
      <path class="cls-19" d="M46.37 140H45.2l-1.2-.07q-.1-1.1-.26-2.17l2.6-.13q1 .8.66 1.6t-.63.77z"/>
      <path class="cls-15" d="M58.4 22a11.63 11.63 0 0 1-1.9 1.2l-.27-3.16h2.2q.8.68.5 1.34t-.54.62z"/>
      <path class="cls-20" d="M41.92 133.16a4.6 4.6 0 0 1 0 1.88 3.76 3.76 0 0 1 0-1.88z"/>
      <path class="cls-21" d="M66.1 17.78c1.64-4.2 7.67-5.4 7.4-10.9 2.85-3.76 4.07-.9 5.43 1.33a22.92 22.92 0 0 1 .44 6 11.27 11.27 0 0 1-.83 3.8c-1.53 2.5-4.26 2.5-6.62 3.3a15.18 15.18 0 0 1-3.63.6c-1.9-.7-3.1-1.8-2.2-4z"/>
      <path class="cls-13" d="M66.1 17.78l2.83 2.55a2.44 2.44 0 0 1-.1 2.83c-2.7 3.48-6.52 2.36-10 2.42L58.38 22q.04-1 .05-2c2.07-2.32 5-1.8 7.66-2.22z"/>
      <path class="cls-22" d="M80.73 0l11.94.5a4.4 4.4 0 0 1 1.67 3.07c.3 3-1.3 4.48-4 5.1a14.4 14.4 0 0 1-3.62-.14c-2.3-.72-4.55-1.62-6.83-2.42a7.82 7.82 0 0 1-2.5-2.5 2.78 2.78 0 0 1 1-3.1q1.1-.2 2.3-.5z"/>
      <path class="cls-15" d="M78.45.48l-.18 2.7q1.56.76 3.1 1.56l1 1.4a5.48 5.48 0 0 1-.27 3.4 5.86 5.86 0 0 1-2.8 2l-1.76-.14-1.4-1.08-2.63-3.44z"/>
      <path class="cls-23" d="M24.2 228.17c-1.1-5.93 3.84-9.64 5.33-14.62 3.1-4.44 4.1-11.3 11.9-10.35 3.18.95 5.37 3.4 8 5.2a9.73 9.73 0 0 1 2.28 3c1 3.14 1 6.17-1 9a25 25 0 0 1-4.2 3.26 17.55 17.55 0 0 1-3 1.46 45.88 45.88 0 0 0-4.4 2.2c-2.3 1.3-4.2 3.34-6.8 4.38a9.26 9.26 0 0 1-6.5-.62 5.7 5.7 0 0 1-1.6-2.9z"/>
      <path class="cls-24" d="M37.14 177c1.92 1.93 3.77 4 7 3 5.18 0 5.18 5.15 7.72 7.76a13.4 13.4 0 0 1 .62 4.74 13.17 13.17 0 0 1-.5 3.08 21.48 21.48 0 0 1-1.6 2.7l-.83 1.37-.9 1.35-1.65 3a4.38 4.38 0 0 1-4.74 1.62c-9.13-1.7-4.3-8.94-5.5-13.8z"/>
      <path class="cls-25" d="M36.78 191.8c3.4 3.6 1.46 10 6.67 12.67.85 2 .32 2.77-1.85 2.26-5.28.06-7.77 5-12.07 6.83-.17-8.12 4.75-14.56 7.25-21.75z"/>
      <path class="cls-26" d="M31.93 246.23c-3.84 3-7.36 8.64-12.43 1.5l2.7-4.7c1.23-3.28 1.58-7.28 6.3-7.76a6 6 0 0 1 5.7 2.92c1.28 3.2.8 6-2.27 8z"/>
      <path class="cls-27" d="M26.8 238.32L22.2 243a2.88 2.88 0 0 1-.4-1.8c-1.93-2.22-.35-5.38-2.06-7.65l4.45-5.42v.3c2.5 2.1 6.4 1 8.7 3.76a4.76 4.76 0 0 1 .4 3c-1.2 3.1-5 .7-6.5 3.1z"/>
      <path class="cls-28" d="M58.68 125.43c-.1-6.14 7.3-10 5-16.83 2-2.55 3.43-5.73 7.26-6.08a13.2 13.2 0 0 1 4 .33 7.8 7.8 0 0 1 3.2 2.4c2.08 4.93 4.75 9.73 3.56 15.42-.45 3.75-3.3 5.53-6.08 7.36a11.8 11.8 0 0 1-3.56 1.38c-4.26-1.9-10.3 2.1-13.38-3.9z"/>
      <path class="cls-29" d="M58.68 125.43c4.18 1.75 8.43-6.22 12.58.1 1.48 5.43 3.43 10.88-.33 16.22a7.83 7.83 0 0 1-3.83 1.65c-2.92.2-5.26-1.17-7.47-2.84a9.6 9.6 0 0 1-2.3-5.23 48.12 48.12 0 0 1-1.26-7.33z"/>
      <path class="cls-30" d="M70.6 105.83l-6.87 2.78v-2.7c.6-1.7.53-3.5 1-5.2a6.18 6.18 0 0 1 3.12-4.2 5.54 5.54 0 0 1 3.68.2 5.46 5.46 0 0 1 2.28 2.9 5.92 5.92 0 0 1-.6 3.7 14 14 0 0 1-2.6 2.7z"/>
      <path class="cls-31" d="M66 103.46l-2.24 2.38c-.92-3-5.3-3.8-5-7.6 1.6-1.14 3.4-1 5.2-.87 2.12 1.53 3.18 3.43 2.04 6.1z"/>
      <path class="cls-32" d="M56.07 128c2.6.46 5 1.2 4.9 4.54a5.64 5.64 0 0 1-2.46 2.1c-3.2.26-4.8-2.18-6.7-4.07l-.7-2.5z"/>
      <path class="cls-33" d="M63.32 98.6l-4.62-.37.58-2.64 6.42-2.3a3.6 3.6 0 0 1 1.76 3.1c-.76 1.9-1.8 3.3-4.14 2.2z"/>
      <path class="cls-34" d="M58.8 25.58l9.26-3.2q2.42 1.07.4 2.78c-2.73 3-6.34 2.38-9.8 2.36q.1-.96.13-1.94z"/>
      <path class="cls-35" d="M78.25 37.2c-3.25-1.87-2.6-4.86-2.25-7.76.9-1.4 1.5-3.07 3.27-3.7a5.12 5.12 0 0 1 3.22.77 5.77 5.77 0 0 1 1.4 3 6 6 0 0 1-3.2 5.5 22.6 22.6 0 0 0-2.5 2.2z"/>
      <path class="cls-36" d="M70.5 20.3l5-2.84a4.88 4.88 0 0 1 4.88 2.2 4.9 4.9 0 0 1-.87 5.26 2.72 2.72 0 0 1-3.4.33l-4.5-2.65q-1.4-.26-1.4-1.2c0-.73.2-1.1.4-1.1z"/>
      <path class="cls-37" d="M70.5 20.3l1 2.3-3.1 2.56-.38-2.8q.42-1 .88-2 .82-.02 1.6-.06z"/>
      <path class="cls-38" d="M76 25.25l2.4-.56a1.85 1.85 0 0 1 2.38.1 1.8 1.8 0 0 1-.4 2.3 20 20 0 0 1-2.17.2 1.18 1.18 0 0 1-2 .2 10.37 10.37 0 0 1-.2-2.4z"/>
      <path class="cls-39" d="M76.22 27.66l2-.24-2.22 2a4.38 4.38 0 0 1 .22-1.76z"/>
      <path class="cls-19" d="M110.1 12.73C119.05 28.9 114.8 44.6 108 60c-1.68 3.83-3.17 7.36-2.77 11.53 1.26 1.84.64 3.4-.7 4.83-3.34 2-6.52 1.14-9.63-.55-.9-.3-1.82-.7-2.74-1.1a14.66 14.66 0 0 0-4.16-.3 28.7 28.7 0 0 1-5.92.7 6.5 6.5 0 0 1-3-1.1 13.07 13.07 0 0 1-3-5.8l-2.3-5.4c1.28-8.7 7.5-16.1 6.95-25.3a2.14 2.14 0 0 1-.93-2.5c1-1.6 2.18-3.2 2.13-5.2a15.3 15.3 0 0 0-.37-4.3 36.7 36.7 0 0 0-1.44-4.2 16 16 0 0 1-.94-2.9c-.25-3 2.07-4.6 3.4-6.8l1.2-1.1 1.44-.8a17.82 17.82 0 0 1 3.3-.4h5.05c5.9-.4 11.1 2.1 16.53 3.7z"/>
      <path class="cls-7" d="M80.8 35.36q0 1-.06 1.92l-2.47-.05v-2.26q1.6-2.17 2.54.4z"/>
      <path class="cls-12" d="M48.85 189.25a12.2 12.2 0 0 1-4.76-9.3c1.3-7.8-2.8-17.22 6.6-22.72a14.75 14.75 0 0 1 2.8-2.54 8.8 8.8 0 0 1 3.7-.7 6.85 6.85 0 0 1 3.4 1.4c6.9 12.6-1.4 22.1-6.8 32.2a6.68 6.68 0 0 1-5.2 1.5z"/>
      <path class="cls-40" d="M54 157.3l-3.34-.07a10.78 10.78 0 0 1 .6-9.68l.2-2.66h1.8c1.63-.3 3.2-.8 4.86-.9a12 12 0 0 1 3.3.5 5.84 5.84 0 0 1 2.32 2.3 5.3 5.3 0 0 1-.83 4.7 9.9 9.9 0 0 1-2.5 1.8l-2.8 1.2a8.82 8.82 0 0 0-3.6 2.6z"/>
      <path class="cls-25" d="M44.1 148.38a10.35 10.35 0 0 1 2.24-.73l-1.34 2.7z"/>
      <path class="cls-41" d="M76.1 68.05l4.36 3.35c1.4 1.46 2.85 2.77 5.12 2.32 3.1-1 6.2-1.35 9.33 0A14.5 14.5 0 0 1 97.5 76a7.64 7.64 0 0 1 1.38 3.22 20.33 20.33 0 0 1-.06 3.62A7.77 7.77 0 0 1 97.18 86a16.84 16.84 0 0 1-5 2.16 20.93 20.93 0 0 1-8.75 1.72 58.15 58.15 0 0 1-7-.22 7.65 7.65 0 0 1-4.32-2.63l-.9-1.43-.3-1.7a43.2 43.2 0 0 0 5.2-15.85z"/>
      <path class="cls-42" d="M66 91.1v-2.35l2.53-4.94c1.9 2.1 2.82 4.4 1 7a2.8 2.8 0 0 1-3.53.4z"/>
      <path class="cls-43" d="M68.6 91.36q0-3.77-.07-7.54 1.18.05 2.36.13l.3.05c1.5 1.83 2.8 3.75 1.8 6.3a4.17 4.17 0 0 1-2.8 1.8z"/>
      <path class="cls-44" d="M58.84 133.08a14.17 14.17 0 0 0 2.14-.55l.13 5a4.44 4.44 0 0 1-4.3 4.34 6.83 6.83 0 0 1-3-1.54l-.4-2.93c-2-6.4 1.7-5.4 5.6-4.32z"/>
      <path class="cls-45" d="M58.84 133.08c-1.74 1.58-5.64.44-5.52 4.37l-2.37-5a11.94 11.94 0 0 1 .78-1.9z"/>
      <path class="cls-9" d="M53.74 140.38l2.47-.4c2.8 2.5 2.3 5 .1 7.6l-3-2.62.5-4.58z"/>
      <path class="cls-46" d="M46.37 140v-2.4l-.1.2a1.7 1.7 0 0 1 2.52-.23l-.3 4.52q-1 .4-2 .7z"/>
      <path class="cls-7" d="M48.8 137.6l-2.52.23z"/>
      <path class="cls-47" d="M56.18 30.2c-1.28-.5-2.4-1.1-2.1-2.8z"/>
      <path class="cls-48" d="M66 91.1l2.64.25h.05a4 4 0 0 1 .5 5 2.7 2.7 0 0 1-3.3 0q-.1-1.5-.3-3l.2-2.25z"/>
      <path class="cls-49" d="M110.1 12.73c-5.75 1.43-11.5 2.1-17.15-.4a4.36 4.36 0 0 1-1.47-2.85c3-5.83 7.53-2.23 11.53-1.9l-.3.24a2.06 2.06 0 0 0 2.5.46c2.8.2 4.3 1.88 5 4.45z"/>
      <path class="cls-50" d="M103 7.6l-10.13 3.17a5.1 5.1 0 0 1-5.3-.4c-1.1-1.8-1-3.47.7-4.9L93 2.82a1.53 1.53 0 0 1 2.4-.34c3.06.9 6.1 1.88 7.6 5.13z"/>
      <path class="cls-15" d="M95.38 2.46A10.47 10.47 0 0 1 93 2.8a10.17 10.17 0 0 0-.33-2.3z"/>
      <path class="cls-51" d="M105.08 8.3l-2.45-.48z"/>
      <path class="cls-52" d="M88.28 5.48l.4 4.45-.6 1.35a7.24 7.24 0 0 0-2.47 1.6l.2-.26q-1 .78-.7 1.63t.6.87l-4.8 5a1.44 1.44 0 0 1-2.4 0l-2.9-2.67L76 15c1.8-1.25 1-3.16 1.24-4.82a1.8 1.8 0 0 1 1.46.08A14.45 14.45 0 0 1 81 8.5c1-1.08.84-2.74 1.88-3.8a4.18 4.18 0 0 1 4.12.15z"/>
      <path class="cls-53" d="M77.23 10.14C78.85 12.27 79.8 14.22 76 15l.2-4.68z"/>
      <path class="cls-54" d="M87 4.85l-4.14.8-1.65-.16-1-.3a1.5 1.5 0 0 1 .4-2.2z"/>
      <path class="cls-55" d="M80.55 3a4.8 4.8 0 0 1-.35 2.22l-1.93-2.05A12 12 0 0 1 80.55 3z"/>
      <path class="cls-56" d="M81.24 5.5q.83.04 1.65.14l-2.5 4.13a1.36 1.36 0 0 1 .2-2.15 5.78 5.78 0 0 1 .5-2.13z"/>
      <path class="cls-57" d="M80.68 7.62q-.17 1.07-.25 2.15-.87.24-1.74.45c-.5-1.72.7-2.16 1.9-2.6z"/>
      <path class="cls-58" d="M49.2 211.56l-2.54-.27c-4.23-4 .4-8.3-.26-12.4 0-2.1 1.2-3.5 2.6-4.7h-.07c1-1.5 1.46-3.4 3.26-4.3a5 5 0 0 1 3.5.4c3.9 4 3.2 8.8 2 13.6a25 25 0 0 1-1.2 3.3c-1.4 2.1-3.6 2.8-5.7 3.8z"/>
      <path class="cls-59" d="M46.54 218.68c2.86-1.64 1.83-4.73 2.66-7.12h-.34a5.37 5.37 0 0 1 3.65-1.84c3.4.6 4.5 3 4.8 6.06.7 3.95-1.1 6.83-4.1 9.16a8 8 0 0 1-3.9 1.35 6 6 0 0 1-3.6-1.9c-1.1-2.2-.5-4 1-5.8z"/>
      <path class="cls-60" d="M31.67 233.82l-7.45-5.34 6.9-.2c2.22-.77 3.84-2.86 6.42-2.84a5.76 5.76 0 0 1 3.4 1.56 6.54 6.54 0 0 1 1.26 3.7 6.32 6.32 0 0 1-3 5.05c-3 1.38-5.36.08-7.53-1.93z"/>
      <path class="cls-61" d="M39.3 232.74l.15-4c-1-3-.74-5.5 2.38-7.06l1.95-.44a2.68 2.68 0 0 1 2.2 2.16l2.68.06a6.16 6.16 0 0 1 1.75 2.57 7.35 7.35 0 0 1-1.5 4.4 31.64 31.64 0 0 1-2.8 3.8 5.75 5.75 0 0 1-2.6 1.77 5.4 5.4 0 0 1-3-.55 3.4 3.4 0 0 1-1.2-2.7z"/>
      <path class="cls-62" d="M48.64 198.9l-2 12.4-5.05-4.57 1.8-2.26.4-5a2.8 2.8 0 0 1 2.1-1.9 4.26 4.26 0 0 1 2.6 1.32z"/>
      <path class="cls-59" d="M36.9 228.45c-1.94.53-3.9 1.77-5.77-.17.72-3.05 1.83-5.82 5.17-6.9a4.4 4.4 0 0 1 2.27 4.17 9.8 9.8 0 0 1-1.67 2.9z"/>
      <path class="cls-63" d="M37.1 226.58l-.8-5.2 5.53.34-2.38 7.06-1-.72a6 6 0 0 1-1.34-1.48z"/>
      <path class="cls-64" d="M46 223.43l-2.2-2.16 2.75-2.6z"/>
      <path class="cls-65" d="M46.23 199a17.53 17.53 0 0 0-2.38.47l-2-3.26.63-.8-.6-.8c1.42-2.1 3-1.3 4.68-.3 1.2 1.8 1.54 3.4-.33 4.9z"/>
      <path class="cls-42" d="M51.3 191.77l-2.37 2.52-.08-5 2.06-2.6 1.4.8a3.35 3.35 0 0 1-1 4.2z"/>
      <path class="cls-42" d="M46.23 199l.35-4.84H49l-.37 4.64q-1.2.2-2.4.2z"/>
      <path class="cls-66" d="M41.9 194.53a1 1 0 0 1 0 1.72 2.64 2.64 0 0 1 0-1.72z"/>
      <path class="cls-67" d="M41.47 245.57c-2.46 3.08-6.2 1.7-9.27 2.68q-.12-1-.28-2l-.27-7.74q-2.87-1-.1-2.3l.12-2.3 7.62-1.1-.3.8c2.1 2 5.1 3.6 2.4 7.3z"/>
      <path class="cls-68" d="M31.57 236.14a15.42 15.42 0 0 0 .1 2.36l-4.86-.17c.7-2.74 2.8-2.33 4.8-2.2z"/>
      <path class="cls-69" d="M139.77 223.33c12.84 3.34 14.56 8.25 6.92 19.77-1.8 4.35-5.4 7.06-9.1 9.58-11.1-.64-18.2 8.8-28.2 11-3.2 2.87-6.7 3.47-10.6 1.42-3.4-2.8-5.8-6.06-5.2-10.73a22.73 22.73 0 0 1 2.3-5.33c3-3.1 15.3-3.74 2.8-10.92-2.3-1.8-2.5-4.25-2.1-6.85 1.3-4.33 1.6-9.07 5.1-12.5 8.3-4.1 13.1 3.54 19.6 5.73 4.5 3.55 9 3.55 13.6-.12a13.1 13.1 0 0 1 4.6-1.05z"/>
      <path class="cls-25" d="M120 230.93c-5.36-2.68-14.13-.2-14.9-9.82-6.9-8.8-2.6-18.3-1.8-27.6.6-6 .4-11.9-2.42-17.5a66.2 66.2 0 0 1 2.28-15.5c5.34-5 8.52-3.6 10.63 3.2s2.1 13.9 3.4 20.8c2 3.8-.9 8.7 2.8 12.2 1.6 3.2-.9 6.7 2.1 10.2 13.2 15.4 13 15.6-2.3 24.3z"/>
      <path class="cls-8" d="M120 230.93c6.2-8.08 10.93-15.52-1.56-23-5-3-.3-7.76 1.6-11.5 4 8.64 13.5 13.8 15.13 23.94.8 1.9 2.23 3.57 2 5.82 1 4.4-.55 8.5-1.76 14.5-3.9-6.6-8.4-10.8-15.4-9.9z"/>
      <path class="cls-18" d="M112.92 265.42a9.34 9.34 0 0 1-5.17-7.5c10.35-.2 18.45-9.65 29.46-7.12 1.3 2.68 0 4-2.4 4.87-7.9 1.8-13.3 9.33-21.8 9.75z"/>
      <path class="cls-8" d="M117.2 184.36c-6.24-7-2.88-17.68-9.42-24.57-2.6-2.4-2.6-4.8 0-7.2 1.94 1.7 4 3.1 6.82 2.3.66 9.8 4.9 19.3 2.6 29.4z"/>
      <path class="cls-59" d="M134.74 255.67l2.46-4.87 9.5-7.7c1.2 5.3-4.27 8-5 13s-4.52.54-6.96-.43z"/>
      <path class="cls-70" d="M137.12 226.24l-2-5.82a2.6 2.6 0 0 1 1.88.58 17.9 17.9 0 0 0 2.76 2.7v-.34z"/>
      <path class="cls-25" d="M139.75 223.68L137 221c1.75 0 2.35 1.25 2.75 2.68z"/>
      <path class="cls-71" d="M73.33 125.46l5.14-5.54c2.8-3.84 4.43-9.34 11-7.88a6.23 6.23 0 0 1 4.2 3.62c4.56 9.1-2.3 17-2.7 25.62-1.76 4.44-4.44 7.58-9.76 7.1a7 7 0 0 1-5.4-3.55c-3.1-6.14-3.4-12.68-2.4-19.37z"/>
      <path class="cls-72" d="M73.33 125.46c4.8 4.78 5.1 10.88 4.95 17.1-1.06 4.83-4 6.42-8.64 4.94-3.27-2.14-3.48-4.9-1.6-8.07.9-4.68-.3-9.84 3.23-13.9q1.02-.06 2.06-.07z"/>
      <path class="cls-73" d="M88.18 115.82c-1.06 1.1-2.94 2.1-3.06 3.3-1.08 10.62-4.1 3.45-6.66.8L75.26 106l.22-1.55a5.3 5.3 0 0 1 2.28-2.08l3-1.2c1.57-.65 3.13-1.33 4.7-2 2.33-1 4.65-1.6 6.9.25 3.14 6.58 2.58 12.3-4.18 16.4z"/>
      <path class="cls-27" d="M71 103.57l-.13-2.5a4.1 4.1 0 0 1 3.44-1.4c3 1.35 3.7 3.4 1.8 6.14l-.8.3c-.6 0-1.3-.1-1.9-.1a16.63 16.63 0 0 1-2.2-2.3z"/>
      <path class="cls-74" d="M71 103.57l2.26 2.3-2.7-.04a4.75 4.75 0 0 1 .44-2.26z"/>
      <path class="cls-75" d="M56.32 147.58l-.1-7.6 4.9-2.4 5 2.93c3.34 7.9-3 6.2-6.83 7z"/>
      <path class="cls-76" d="M59.3 147.52c2.2-2.42 6.1-3.16 6.83-7a3.64 3.64 0 0 1 1.9-1.08l2.72 5.83c2 6-1.9 6.6-6.24 6.82-2-.8-2.7-2.6-3.3-4.5l-.9-.1z"/>
      <path class="cls-77" d="M68.14 95.68l.52-4.36q1.15 0 2.3-.14L72.4 90a5.44 5.44 0 0 1 3.57.2 5.67 5.67 0 0 1 2.23 2.86c0 .62 0 1.23.07 1.85a5 5 0 0 1-2.07 3 13.25 13.25 0 0 1-5.46.5 10.8 10.8 0 0 1-2.24.5 1.83 1.83 0 0 1-.36-3.1z"/>
      <path class="cls-56" d="M68.14 95.68l.36 3.07c-.3 1.85-.53 3.75-2.5 4.7l-2.7-4.85 2.7-2.27 2.14-.65z"/>
      <path class="cls-78" d="M70.74 98.32c.95-2.12 3-2.15 4.84-2.5 2 3-.14 4-2.42 4.9a8.47 8.47 0 0 1-2.25.37z"/>
      <path class="cls-79" d="M80.8 35.36L78.24 35l2.53-4.62q.86-3.32 2.36-.24c-.12 2-.4 3.97-2.3 5.22z"/>
      <path class="cls-80" d="M83.1 30.1a12.76 12.76 0 0 0-2.35.24l-.33-3.15a17.87 17.87 0 0 0 .38-2.4L82 24l1.15.93z"/>
      <path class="cls-81" d="M78.34 20.12a7.08 7.08 0 0 1 2.42 0l-.14-.12c1.66 1.68 1.57 3.4.07 5.1l.1-.18a11.73 11.73 0 0 1-2.4-.2l-.1-4.6z"/>
      <path class="cls-82" d="M103.47 73.8l-.65 2.67a4.66 4.66 0 0 1-2.7 2.14c-2 .2-3.37-.8-4.67-2.1v.1c-2.45-2.7-6.88.3-9.12-3.1-1.1-2.1.34-4.4-.52-6.5 4.2-2.8 7 0 9.8 2.4l-.1-.1c2.3 2.2 4.7 4.3 8 4.7z"/>
      <path class="cls-59" d="M81 77.8l-.52-6.4a4.3 4.3 0 0 1 1.8-.3 2.83 2.83 0 0 1 4 .52c.9 3.1 1.57 6.25-2 8.1-1.56.84-2.84-.14-3.28-1.93z"/>
      <path class="cls-83" d="M85.24 71.5l-3-.4 3.54-4.24 1.72 4.06q-.44 2.98-2.26.58z"/>
      <path class="cls-84" d="M80.7 25.07L80.6 20c2.88.64 3.07 2.65 2.55 5z"/>
      <path class="cls-40" d="M88.67 9.92l4.2.84q0 .8.07 1.57l-4.73.5q-1-.5-1-1.3t.4-.9z"/>
      <path class="cls-85" d="M87.62 10.64q.34 1.08.6 2.2H85.6z"/>
      <path class="cls-54" d="M85.58 15.12l.14-2.5-.14 2.5z"/>
      <path class="cls-50" d="M50.9 186.7c3.84-9.33 8.86-18.33 7.9-29a5 5 0 0 1 .82-3.7 5.7 5.7 0 0 1 3.53-1.55c6-.87 11.84-1.47 15.12 5.28a5.7 5.7 0 0 1-.27 3.67 33.65 33.65 0 0 1-3.44 3.86 29.72 29.72 0 0 0-2.4 4.3 11.3 11.3 0 0 1-1.7 2.92c-6.9 3.13-5.87 10.8-9.17 16-1.7 1.8-3.7 2.88-6.2 2.1-1.9-.48-2.9-1.9-3.6-3.55z"/>
      <path class="cls-86" d="M60.8 154.7l-2 3-2.8-.3a3.54 3.54 0 0 1 .35-5l-.22.24a3.16 3.16 0 0 1 2.48-1 2.84 2.84 0 0 1 2.2 3.07z"/>
      <path class="cls-7" d="M56.32 152.38l-.35 5q-1-.1-1.93-.1z"/>
      <path class="cls-59" d="M60.8 154.7l-2.36-2.5q-.8-.84-.4-1.52t.68-.65l2.45-2.42 2.94 2.4c1.3 3-1.5 3.6-2.8 5z"/>
      <path class="cls-87" d="M58.7 150a7.1 7.1 0 0 1-.27 2.17 12.06 12.06 0 0 1-2.33.43z"/>
      <path class="cls-88" d="M83.1 86.27l7.13-2.5c1.5 1.27 2.8 2.66 2.94 4.76-.32 2.8-2.44 4.4-4.18 6.23a30 30 0 0 1-4.3 3.76 7 7 0 0 1-3.6.7l-1.8-.58-1.3-1.22a6.83 6.83 0 0 1-1-3.4c-.6-4.58 3.2-5.77 6-7.75z"/>
      <path class="cls-89" d="M85.24 71.5l2.3-.57 7.9 5.6C90.54 76 86.27 82.65 81 77.8c5.18.45 4.4-3.14 4.24-6.3z"/>
      <path class="cls-48" d="M83.1 86.27L78 93.63q-1.2 2.73-2.46 0l-1.7-2.6c-.1-1.9-.38-3.86 1.9-4.83z"/>
      <path class="cls-53" d="M90.27 88.73v-5l4.88-.82a4.87 4.87 0 0 1 3.07 2.5 8.9 8.9 0 0 1 .32 4 5.6 5.6 0 0 1-4.1 4.1 5.73 5.73 0 0 1-3.8-1.1 3 3 0 0 1-.37-3.6z"/>
      <path class="cls-23" d="M75.77 86.23c.44 2 .33 3.85-1.9 4.84a9.07 9.07 0 0 1-1.25.25 11.28 11.28 0 0 1 .16-7.22z"/>
      <path class="cls-90" d="M72.8 84.1q-.1 3.6-.17 7.22-.83-.1-1.66-.13l.23-7.2a12.37 12.37 0 0 0 1.6.1z"/>
      <path class="cls-91" d="M95.8 86.93l-.7-4a13.8 13.8 0 0 0 .33-1.67 2.55 2.55 0 0 1 3.15-.4 5.05 5.05 0 0 1 1.12 3.27c-.6 1.94-1.8 3-3.9 2.8z"/>
      <path class="cls-92" d="M97.62 81.65a21.93 21.93 0 0 0-2.2-.36 17.4 17.4 0 0 1 0-2.4c1.6-1.7 3.24-1.3 4.9-.1.54 2.3-.14 3.4-2.7 2.8z"/>
      <path class="cls-93" d="M100.4 78.78l-5 .13v-2.4h5.16l.78 1.2z"/>
      <path class="cls-69" d="M95.8 86.93l2.32-3c2.1-1.44 3.6-4.35 6.9-2.7l3 .2c.9 2.4-.36 4.43-1.04 6.57a8.7 8.7 0 0 1-3.77 3.44 6.5 6.5 0 0 1-5-.06 8.75 8.75 0 0 1-2.2-2.63 9.2 9.2 0 0 1-.1-1.82z"/>
      <path class="cls-23" d="M105 81.24l-6.9 2.7q-.3-1.13-.5-2.3l2.78-2.86-.27.1c1.8-1.56 3.5-1.42 5.1.18a15.42 15.42 0 0 1-.2 2.18z"/>
      <path class="cls-94" d="M105 86l3.05-4.6 4.33 2.27L110 86.1a3.9 3.9 0 0 1-2.56 1.66A3.3 3.3 0 0 1 105 86z"/>
      <path class="cls-28" d="M105.23 79.05l-5.1-.2q.28-1.17.47-2.36h2.22z"/>
      <path class="cls-95" d="M54.2 189.5l4.8-2.57c5.4-2.44 6.3 2.9 9 5.17 3.76 3.52 5.07 7.68 3.35 12.64-3.47 3.5-5.74 9.9-12.6 5.27-2-1.6-3.18-4-4.93-5.9-2.55-4-.54-8.1 0-12.2q-2.2-1.6.38-2.4z"/>
      <path class="cls-96" d="M53.8 204.06l4.76 2.26.46 1.9c1 1.66 2.26 3.2 2.17 5.32-1.4 3.74-3.3 5.84-7.3 2.83l-2.8-5.48c-1.1-2.5.9-3.2 2.3-4.2z"/>
      <path class="cls-88" d="M53.5 206.73l-2.37 4.16-2.28.6a6.9 6.9 0 0 1 4.65-4.9z"/>
      <path class="cls-97" d="M54.2 189.5q-.26 1.2-.45 2.4l-2.45-.13.3-4.75z"/>
      <path class="cls-98" d="M53.95 216.38l4.4-4.54c-1-1.87-1.2-3.72.23-5.5 3.82 1.37 6.86-.48 9.9-2.37 3.58-3.45 6-1.54 8 1.8-2.8 8-1 15 4.4 21.26a11.34 11.34 0 0 1 .84 4.16c-5 9.2-11.56 10.5-26.74 5.1-1-1-2-2-3-3.1-1.86-2.5-1.42-5.3-1-8v-2.1z"/>
      <path class="cls-7" d="M48.92 226.1l-.25-2.6a21.62 21.62 0 0 1 2.34-.37l.3.4c1.4 1.57.6 2.46-1 3.14z"/>
      <path class="cls-64" d="M37.1 226.58a4.85 4.85 0 0 1 1.37 1.42 3.47 3.47 0 0 0-1.57.4 5.92 5.92 0 0 1 .2-1.82z"/>
      <path class="cls-99" d="M54 231.27c8.32.43 17.2 6.1 24.52-2.67 5-4.18 15.25-1.3 15.53-11.7a7.8 7.8 0 0 1 3.35-1.26c9.23 3.67 1.68 10.42 2.87 15.58l2.5 4.64c4.4 5.75 2.47 10.47-2.4 14.7l-.1 4.6c-1.84 7.4.6 15.7-4.66 22.4-1.6-.83-4.3-2.47-3.9 1.05.7 5.4 2.4 10.7 3.7 16 4.9 9.6 7.1 18.9-2.7 27-7.8-5.1-11.2-11.6-9.9-21.6 1.8-13.8-3.5-27.2-5.3-40.9-1.6-11.5-7.7 1.1-11.3-1.2-1.8-14.8-15-13.3-24.5-17.1l-2.4-7.2 2.7-.6 3-1.2a9.58 9.58 0 0 1 9.35-.4z"/>
      <path class="cls-98" d="M54 231.27c-3.24 2-6.87 1.83-10.47 1.9l-.7-.9.5-1 3-2.6 1.33-.08a9.62 9.62 0 0 1 3.9.4 14.2 14.2 0 0 1 2 1.7z"/>
      <path class="cls-100" d="M43.35 231.22a2.36 2.36 0 0 1 .2 1.95h-1l-.93-.27a8.4 8.4 0 0 1 1.73-1.68z"/>
      <path class="cls-64" d="M46.3 228.62l2.62-2.5h-.15a2.07 2.07 0 0 1 .83 1.88q-.14 1.06-.4 1.06a2.44 2.44 0 0 1-3-.64z"/>
      <path class="cls-90" d="M73.2 159.84h2.62c.76-5.18-3-11.8 4.77-14.73a12.73 12.73 0 0 0 5-7.2c8-10.2 15.5-10.2 24.5 0a34.82 34.82 0 0 0-2.4 14.8v7.2q0 8.6-.1 17.2c-2.8 4.5-4.2 9.8-8.6 13.2-2.6 1.7-5 3.5-8.4 2.7-3.1-.3-5.7-1.8-8.5-3-4.7-3.7-3.5-10.9-8.6-14.3a6.08 6.08 0 0 1-1.4-2.9c.3-4.3-1.7-8.7.9-12.7z"/>
      <path class="cls-69" d="M110.15 137.78c-8.16-1-16.33-3.28-24.5 0-1.18-7.23 5.23-12.55 4.94-19.55 1.1-5.74 6.3-8.3 9.7-12.3h9.8c2.7 9-.7 17.9-.1 26.83z"/>
      <path class="cls-101" d="M100.33 106c3.64 9.55-2 11.78-9.74 12.3l-2.4-2.43c-3.4-5.52 1.5-9.95 2-15-2.2-2.53-1.4-4.5 1.1-6.12 3-.65 4.5 1 5.5 3.48a11.5 11.5 0 0 1 1 5.2z"/>
      <path class="cls-102" d="M110.14 132.76c-3.78-9 0-17.9.05-26.83 3.7 8.95 3.3 17.9-.1 26.83z"/>
      <path class="cls-103" d="M97.87 103.4l-2.7-2.84.17-1.66a27.1 27.1 0 0 1 .42-5 6.25 6.25 0 0 1 2.5-2.2 7 7 0 0 1 3.34.23c2.1 1.4 2.72 3.53 3 5.86a7.83 7.83 0 0 1-1.62 3z"/>
      <path class="cls-82" d="M105 86l2.84.23a21 21 0 0 0 2.4 2.08c1.3 2-.14 3.7-.64 5.5l-1.17 1-1.5.4c-2.32-.3-3.3-2.1-4.1-4a16.07 16.07 0 0 1 0-3z"/>
      <path class="cls-33" d="M103 100.75q-.18-.86-.33-1.73c.5-2.92 0-6.77 5.1-5.33v-.1a8.62 8.62 0 0 1 2 2c-1.45 2.8-3.33 5-6.77 5z"/>
      <path class="cls-79" d="M109.72 95.7l-2-2.07q1 .12 1.9.16a3 3 0 0 1 .1 1.9z"/>
      <path class="cls-104" d="M110.25 88.35l-2.4-2.08 2.2-.16.2 2.3z"/>
      <path class="cls-56" d="M100.28 231.2l-1.93-12.9c-5.08-6.8 3.17-16-3.94-22.43a6.83 6.83 0 0 1 1.1-3.46c4.8-2 4.6-8.1 8-11.1 5.7 2.3 1 7.8 4.2 10.5l-2.5 29.4z"/>
      <path class="cls-25" d="M100.38 250.56a36.5 36.5 0 0 1 2.4-14.7c3.87 1.66 11.32-4.57 11.62 2.7s-6.28 11.44-14.02 12z"/>
      <path class="cls-105" d="M107.64 191.76c-6.3-11.54-5.8 4.46-9.76 2.4-2.8-2.44.18-4.88 0-7.33 2.13-4.42 4.6-8.5 9.78-9.9 2.04 4.96.46 9.9-.02 14.83z"/>
      <path class="cls-103" d="M80.6 145.06c-1.43 5 1.68 11.4-4.78 14.73a28.46 28.46 0 0 0-14.6-4.8l2.9-5 6.63-4.7 7.52-2.7z"/>
      <path class="cls-60" d="M92.82 95.78l-2.66 5.07-3.5 2.7a3.23 3.23 0 0 1-2.9-1.1 4.33 4.33 0 0 1 .24-4.7c1.8-2.83 3.37-5.88 7-6.9a8.74 8.74 0 0 1 2 .3c1.62 1.57 1.42 3.12-.18 4.63z"/>
      <path class="cls-106" d="M80.8 96.1q.95-.32 1.88-.68c3.6 1.7.32 5.86 2.84 8l1.15.2c-1.72 1.85-3.66 3-6.3 2.06-2.58-3.35-2.6-6.54.44-9.6z"/>
      <path class="cls-107" d="M73.16 100.7l2.42-4.9h-.24q1.35-1.4 2.28.3h1a13.26 13.26 0 0 1 .1 9.75H76.1z"/>
      <path class="cls-69" d="M78.72 105.8q-.06-4.86-.1-9.73h2.2l-.45 9.54a14.7 14.7 0 0 0-1.65.2z"/>
      <path class="cls-108" d="M77.63 96.08l-2.28-.3a6.6 6.6 0 0 0 .22-2.12h2.46z"/>
      <path class="cls-19" d="M95.5 69.1l-.87.6 1-.48z"/>
      <path class="cls-109" d="M63.66 193.86L59 186.93c1-6.7 1.18-13.9 9.25-16.72 6.54 3.8 3 10.2 4 15.4-.43 5.4 1.2 12.6-8.6 8.4z"/>
      <path class="cls-9" d="M68.23 186.88V170.2q0-1.63.06-3.27l1-1.2a4.8 4.8 0 0 1 3-.24c2.9 1.3 1.4 4.9 3.5 6.6v-.1c4.6 4.4 2.2 10.9 4.5 16.1 1 2.3-.6 4.8-3.4 5.4-5.3 1-6.7-3.5-8.9-6.7z"/>
      <path class="cls-45" d="M75.9 172.1l-4.78-4.93c-1.26-1-3-1.42-3.86-2.9-.78-1.75-.17-3.15 1.1-4.38l4.85-.1c3.8 3.4 3.3 7.8 2.7 12.2z"/>
      <path class="cls-44" d="M68.34 159.9L69 165a1.36 1.36 0 0 1-.76 2.1v-.18c-4.38-2.37-6.76-4.73.1-7.03z"/>
      <path class="cls-55" d="M85.52 103.37l-2.84-8c.4-1.75.52-3.67 2.8-4.16 2.38 2.2 1.45 4.6.53 6.9z"/>
      <path class="cls-109" d="M86 98.17l-.54-6.9 4.8-2.54a13.4 13.4 0 0 1 .7 2.13z"/>
      <path class="cls-90" d="M92.82 95.78l.1-4.65 3-2.37H98c1.46 1.7 1.44 3.35-.24 4.92l.1-.12c-2.08 2-.35 5.1-2.06 7.2l-.6-.18z"/>
      <path class="cls-110" d="M269.47 19.67c6.53 1.9 13.73-1.1 20 2.72a58.32 58.32 0 0 1-3.78 9.5 11.88 11.88 0 0 1-1.8 2.8c-4.6 5.1-10 3.3-15.3 1.6-3.2-.7-6.4 1.3-9.6.2-9.9-3.6-18.3 5.8-28.1 3.3-2.3-2.8-5.7-4.8-6.3-8.7-6.6-10.9-14.9-3.3-22.6-1.9-3.3.6-6 2.9-9.2 4.2-3.6 5.8-5 13.2-12.7 16-5.5 2-9.4 2.1-11.2-4.3a4.32 4.32 0 0 1 1.8-3.3c1.2-12 9.2-19.6 17.7-26.8 4.2-6.5 11.3-5.8 17.4-6.2 21.9-1.3 42.93 2.8 63.33 10.6z"/>
      <path class="cls-111" d="M269.47 19.67c-24.58-3.93-48.66-13.2-74.17-6.9a58.42 58.42 0 0 0-6.66 2.5c6.28-11.8 17.9-7.6 27.46-8.65 7.05-.78 14.36.77 21.55 1.28 6.52 3.4 13.7 4.25 20.8 5.35 4.48.68 8.55 2.3 11.02 6.42z"/>
      <path class="cls-72" d="M149.68 57c9.5-.3 13.43-10.15 21.66-12.63 10.76.88 13.1-9.74 19.73-14.47 6.4-3.65 8.87.6 11 5.46a19.55 19.55 0 0 0 3.4 5c1.8 2.32 4.7 1.42 7 2.4 9.56 4.83 6.5 14.62 8.8 22.34-3.27 5.2-5.27 10.8-4.52 17.1a7.16 7.16 0 0 1-2 4.9c-4.9 2.2-10.23 3.85-4.1 10.75a16.66 16.66 0 0 1 4.17 10.6c1.17 6.16 3 12.2 3 18.6 0 5.26-1.9 9.1-6.64 11.5-8.74 12.45-8.7 12.45-17.62-2.55a30 30 0 0 0-5.35-6.86 91.92 91.92 0 0 0-5.3-15.6c-2.4-4.2-6.9-3.5-10.7-4.47-3.4-.86-5.8-3-5.7-6.87.1-3.13 2-4.88 4.8-6.38 13.4-7.3 13.4-7.37 22.8-20.24-7.3 10-7.3 10-21.8 14.68a12 12 0 0 0-6.7 4.86c-6.7 10.33-18.5 8.6-28.2 11.9-2.7.94-5.8-1.3-6.2-4.45-.5-4-3.4-5.16-6.2-6.68-2.7-3.2-7.8-4.5-7.8-9.9 2.4-6 12.1-4.9 12.5-12.8 2.4-3.8 4.9-7.3 10.2-6.7 4.1.8 6.1-1.6 7.6-4.8z"/>
      <path class="cls-112" d="M129.44 73.23c.4 7-4.35 10.08-9.57 12.85-1.9 3.57-4.75 1.78-7.37 1.34a38.5 38.5 0 0 1-6.3-2.18 10.7 10.7 0 0 1-2.9-1.54 8.45 8.45 0 0 1-1.67-2.82c-.6-1.55-1.13-3.1-.5-4.8a10.53 10.53 0 0 1 2.34-2.3l1.8-2.26c7.9 2.48 15.4 11.2 24.17 1.7z"/>
      <path class="cls-20" d="M147.2 61.8c1.75 1.3 7.45 1.15 2.16 5.12-4 3-4.85 7.27-6.9 12l-2.9-12.4c2.02-2.4 4.3-4.38 7.63-4.7z"/>
      <path class="cls-21" d="M303.9 32.18c15.84 11.67 35.1 18.07 49.46 32l-1 5c-1.16 2.28-.23 5-1.4 7.24-6.5 10-16.74 4.6-25.3 6.07-4.9-.5-10.3-2.7-13.42 3.6a71.86 71.86 0 0 1-10.6 11c-4.1 3.3-8.46 4.3-12.6-.1-1-1.1-1.44-2.7-2.75-3.5.2 1.5 1.1 2.9 1 4.6a6.24 6.24 0 0 1-1.8 3c-6.7 3.8-12.5 3.2-19.3-1.1-12.1-7.6-24.8-14.3-40.1-11.8-6.8 1.1-10-2.3-9.4-9.2-1.1-7.5 6.4-14.8 0-22.3.3-7.4 5.5-10.7 11.3-13.5 4.9-3.3 10.5-4.4 16.3-4.6 2.5.7 3.9 2.8 5.5 4.6 5.5 8.7 4.4 20 10.4 27.1-1.1-5.5-5.4-11.4-5.1-18.7 3.7-5.5-3.6-10.1-1.3-15.48 1.3-2.7 3.6-4.5 5.6-6.6 3.3.8 7.9-4.8 10 2.1a184.93 184.93 0 0 1 27.2 15.4c-3.5-4.1-11-2.8-12.4-9.56.2-2.5 2.1-3.73 4-5a18.38 18.38 0 0 1 5.6-2.8l3-.76z"/>
      <path class="cls-21" d="M281.8 29.8c1.72-3.32 4.05-6.04 7.68-7.4l2.2 2.55a11.6 11.6 0 0 0 .1 4.86 5.9 5.9 0 0 1-1.2 3 7.4 7.4 0 0 1-2.83 1.7c-3.93.9-4.4-2.5-5.96-4.7z"/>
      <path class="cls-110" d="M289.14 29.87c-.95-2.56.3-4 2.52-4.92l2.65 2.37c-.8 2.56-2.7 3.05-5.1 2.55z"/>
      <path class="cls-21" d="M289.14 29.87l5.18-2.55 2.82 1.9-.67.67c-2.45 1.6-4.9 2.6-7.34 0z"/>
      <path class="cls-113" d="M198.2 37.14l-7.13-7.26c11-10.2 24.33-8.6 37.5-7.33 2.53.24 2.66 2.7 1.8 4.88-2.05 3.1-3.2 7.12-7.63 7.92-8.3-1.17-16.4.65-24.54 1.8z"/>
      <path class="cls-18" d="M220.94 29.9l9.45-2.48 2.6 9.68c0 2.8-1.5 4.6-3.9 5.9-5.7 3.4-11.8 5.1-18.5 3.85h-10.3c-3.9-7.66 3-10 7.1-12.7 3.7-2.48 8.3-4.77 13.3-4.3z"/>
      <path class="cls-19" d="M227.85 39.72l5.2-2.63c8.32-4.5 17.55-5.5 26.6-7.2l-2.42 7.2c-2.6 7-8.85 6.9-14.73 7.4a14.72 14.72 0 0 0-12.24 2.3c-3.55-1.5-5.26-3.6-2.4-7.2zm58.82-2.46c5.5 6.48 15.24 7.4 20.5 15.94-4.16 1.32-7.3-.27-10-2.2-9-6.63-19.83-10.6-27.62-19 4.07-.3 8.06 2.64 12.18.3 1.27.7 2.3 1.75 3.52 2.52l1 1z"/>
      <path class="cls-114" d="M284.2 37.17l-2.43-4.83V29.8l7.38 2.54h1a1.78 1.78 0 0 1 1.4 1.38v1l-4.9 2.5a1.46 1.46 0 0 0-2.45-.05z"/>
      <path class="cls-101" d="M220.4 78.64c4.44 4.08 11.37 5.8 15.48 4.53 12.1-3.75 21 4.15 31.25 6.42 6 1.3 8.68 10.8 17.1 8.9 8.2.8 11 8.7 16.63 12.9 5.62 7.8 9.1 15.7.24 23.8-4.9 4.3-9.63-.4-14.46-.3-5.53-6.6-9.83-15.2-20.9-12.4-5.78-2.4-6.5-8.9-10.24-12.9-3-3.3-5.16-7.6-10.6-8.8.44 3.4 1.53 6.7 1 10-9.16 15.5-17 15.4-30.88-.6a27 27 0 0 0-5.25-12.7c-3.48-4.7-4.05-9.6.88-14l2.2-2.3c2-2.4 3.58-5.8 7.55-2.8z"/>
      <path class="cls-81" d="M112.4 83.72l7.47 2.37 7.4 7.5c3.6 6.2 3.3 15.6 14 16 2 0 3.24 3.4 3.32 6 .2 7.9 3.3 15 6 22.3.2 2.3.3 4.6-1.4 6.5a25.83 25.83 0 0 0-3.6 3.2c-11.5 14.6-14.9 17.3-31.1-1.5v8.8c-4.6 6.8-8.2 3.4-11.7-1.1-1.7-5.5-.5-10.8 1.4-16a21 21 0 0 0 .8-5.4c1.5-6.8 1.7-13.5-1-20-2.1-2-5.4-1.4-7.4-3.5a6.67 6.67 0 0 1-2-5.1c.4-2.6 2.2-4.2 4-5.8a25.3 25.3 0 0 0 4.4-4.7l1.5-2.6 1.8-4.2a5.84 5.84 0 0 1 1.6-2.5c1.3-.77 2.7-1.5 4.3-.58z"/>
      <path class="cls-64" d="M218 108.28c8.18 3 16.32 14.87 24.56.08 3.75-6.57 5-7.16 9.4-2.84a33.76 33.76 0 0 1 9.12 14.48c3.26 11.1-2.8 15.25-18.46 12.86l-9.54-6.7c-.2 3.93-.64 6.7-.38 9.4.57 5.77-2.27 9.28-7.1 11.5-5.47 2.5-8.14-1.2-10.9-5-.87-1.17-2.68-1.65-4-2.44l-.3-1.2c.26-10.3.26-10.3-8.67-15.47 11.16-.67 8.65-8.4 9-14.66 2.38-2.2 4.8-2.2 7.27-.1z"/>
      <path class="cls-19" d="M242.62 132.83c1.93-1.45 3.68-3.75 5.83-4.22 12.07-2.6 9.35-9.5 2.34-13.2-3.8-2-1.1-10.7-8.3-7-4.1-4.6-11.5-10.4-7.2-15.4s10.6 2.8 15.7 5.4c8 4.1 10.6 13.1 15.8 19.7 2.5 1.9 6.6 2.8 5 7.4-4.1 4-.8 10.7-5.2 14.6-8.7 9-15.2 3.7-21.4-3.2z"/>
      <path class="cls-115" d="M149.3 144.54l-2.3-4.24c2.5-2.43 3.84-5.2 1.53-8.38-2.42-3.33-1.54-6.56-.3-9.92 1.16-3.15 2.67-5.87 6.53-6 3.35-.1 4.9 2 6 4.84a31.7 31.7 0 0 0 5.5 9.2c5.55 8.78 14.7 14.17 21.08 22.2a16.5 16.5 0 0 1-.5 3.68c-6 3.7-5 15-15.23 14.15-10.2-.52-15.4-6-14.7-16.17.3-5.9-1.4-9.1-7.5-9.36z"/>
      <path class="cls-81" d="M183.7 154.5v-1.88c-6.58-12.7-3.6-22.72 7.35-24.68 6.34 3.16 13.8 5.28 13 14.88l6.35-4.42c.1.4.2.8.28 1.22-.55 10-2.25 19.16-14.7 20.66-5.6 1.2-9.98-.08-12.3-5.77z"/>
      <path class="cls-116" d="M347.6 118.17c1 7.37-6.92 5.93-9.56 9.7-9.38 2.82-16.94-3.2-25.35-5.2a7.14 7.14 0 0 1-2.7-2.84c-3-4.92-4-10.6-6.7-15.8-4.5-8.48 4.8-12.48 9.4-17.74a6.16 6.16 0 0 1 3.7-.2c8.3 12.6 19.4 22.6 31.1 32z"/>
      <path class="cls-21" d="M347.6 118.17c-14-.47-28.43-13.83-31.5-29.15.43-4.3 2.95-6.1 7.08-6 4.94 4.66 13.88 5.9 13.2 15.4 3.53 6.7 12.02 10.58 11.22 19.75z"/>
      <path class="cls-117" d="M336.4 98.4c-5.27-3.05-11.46-5.08-13.3-12 .3-4.34 4.17-5.17 6.93-7.1 6.07.94 12.43.63 17.87 4.23.9 8.66-4.66 12.27-11.5 14.88z"/>
      <path class="cls-118" d="M313.4 119.13a6.73 6.73 0 0 0 .23 1.48c.57 2.4-.8 3.7-2.43 4.9-3.88 2.7-4.12 9.2-10.1 9.7 3.82-8.4 1.44-15.5-4.63-21.9-3.6-2.6-8.2-5.3-3.18-10.1 4.1-4 8.4-.3 10.7 2.4 3.5 4.2 6.1 9.2 9.4 13.6z"/>
      <path class="cls-59" d="M183.7 154.5c5 0 7.1 6.1 12.24 5.77-9.32.3-14 12.06-24.38 9.8z"/>
      <path class="cls-119" d="M271.9 125.46l-5.07-7.4c12.67-1.46 15.3 8.83 19.8 16.92-5.87-1.67-8.18-8.9-14.74-9.52z"/>
      <path class="cls-59" d="M311.2 125.5l2.43-4.9 24.37 7.3c-9.5 6.12-17.84-1.7-26.8-2.37z"/>
      <path class="cls-69" d="M347.9 83.56c-5.94 1.12-11.3-1.86-17-2.46-3.56.17-8.38 2.38-7.45-4.65 8.94-1.42 18.75 6.44 27-2.53q1.2-2.52 2 .14c1.9 4.8-2.74 6.47-4.55 9.5z"/>
      <path class="cls-120" d="M245.3 136.8c6.77 3.47 13.2 9.25 21.4 3.26-7.7 10.74-13.64 9.84-21.4-3.25z"/>
      <path class="cls-121" d="M352.5 74.07q-1-.1-2-.14l1.9-4.74z"/>
      <path class="cls-64" d="M161.62 132.86L155 120.64c-2.1 8.1 3.53 18-8.06 19.66-4-4.5-7.75-8.88-7.74-15.72 0-4.68.82-10.33-8.2-10-5.74.2-8.22-15.67-3.74-20.94 6.6 1.9 12.45 7.52 20.18 4a12.88 12.88 0 0 1 3.6-.5c9.5-1.23 8.92-13.9 15.4-15.45 6.23-1.5 13.8 3.6 18.43-5.4 3.2-6.2 15.92-5 12-17 7.72 16.7-4.2 37.5-25.7 44.2 6.58 2.9 11.23 2 16 0 2.2-.9 4.9-2.3 6.3.7 1.2 2.5-1 4.5-2.4 6.4a16 16 0 0 0-6.7 4.2c-1.54 1.3-3 3.1-5 3.2-8.84.2-12.5 5.3-13 13.5-1.37 1.2-3.03 1.3-4.75 1.1z"/>
      <path class="cls-87" d="M161.62 132.86l2.45-2.46c2.72-5.25 4.7-11 12.34-11.14 5.2-.08 4.9-5.74 7.5-8.48h7.2c-2.7 5.7-.5 11.43 0 17.14-6 7.16-5.3 16.34-7.3 24.68a31.87 31.87 0 0 1-22-19.74z"/>
      <path class="cls-122" d="M218 108.28h-7.27c-1.24-3-1.64-7-3.85-8.73-11.34-8.67-5.2-12.45 3.86-15.8-1.18 9.25 6.52 15.84 7.26 24.53z"/>
      <path class="cls-19" d="M227.85 39.72l2.4 7.22c-4.34 3.08-9.18 5.6-11.9 10.5 1.4 2.4 2.4 4.76-.7 6.7-7.7-3.6-.26-13.23-6.9-17.25a45.24 45.24 0 0 1 17.1-7.2z"/>
      <path class="cls-123" d="M220.94 29.9c-6.8 5.7-17.42 6.8-20.5 17-4.2-2.46-3.46-6.05-2.24-9.76 6.8-5 13.14-11.14 22.74-7.24z"/>
      <path class="cls-124" d="M217.65 64.14l.7-6.7c8.16 6.35 1 14.18 2.06 21.2l-7.5 2.8c.3-6.1 1-12.14 4.8-17.3z"/>
      <path class="cls-92" d="M313.4 119.13c-5.2-2.16-10.06-4.55-12.84-10-1.3-2.6-4.14-4.2-6.8-1.9-.5.42 1.73 4 2.7 6.1-8.26-1.47-9.3-8.9-12.24-14.8 1.25-3.4 2.07-7.47 7.33-4.9 8.1.38 13-4.6 17.34-10.4 4-.58 5.7 1 4.9 5.05-10.1 10.14 1.5 20.6-.4 30.85z"/>
      <path class="cls-116" d="M259.72 51.94c6.9 5.7 1.35 17.15 11.06 22.58 3 1.7-2.67 4.07-5.78 3.4-10.35-2.17-18.1-14-16.85-25 .22-1.9-.45-3.94-.7-5.92 8.03-8.17 9.96-1.14 12.27 4.94z"/>
      <path class="cls-125" d="M313.84 88.27c-.75-2.55-2.2-4.4-4.9-5.06-1.3-1.4-3-2.7-3.8-4.4-1.63-3.3-5-7.5-2.12-10.6 3.83-4 5.62 2.1 8.4 3.5 3.85 2 7.45 4.7 12.06 4.8l7.45 4.7a14.8 14.8 0 0 1-7.8 5.4l-7 2.6a11.1 11.1 0 0 0-2.3-.7z"/>
      <path class="cls-126" d="M291.6 93.63l-7.34 4.9c-2.87-3.42-7.64-5.55-5.2-11.9 1.1-2.85-1.92-7.26 2.38-9.5 3.78-2 7 .22 10 2.2 4 2.67 2.63 6.14 1.28 9.63a35.83 35.83 0 0 0-1.13 4.67z"/>
      <path class="cls-127" d="M259.72 51.94c-4.08-1.66-7.16-5.82-12.27-4.93l-5-2.4 14.73-7.4c2.24 5.9 8.8 6.6 13 10.5-2.27 4.9-7.67 1.5-10.46 4.4z"/>
      <path class="cls-128" d="M289.13 29.86h7.34l-4.88 4.87a28 28 0 0 0-2.6-2.5v.04-2.4z"/>
      <path class="cls-21" d="M284.2 37.17l2.48.07zm4.9-4.87l2.52 2.5zm-105.23 78.48c.27 2.8 1.3 5.77.67 8.35-1.55 6.38-1.9 15.15-12.75 8.93-2.8-1.58-5.3 1-7.8 2.35-1.6-16.1-.1-17.6 19.8-19.6z"/>
      <path class="cls-129" d="M97.74 93.66l.26-4.92 4.85-.7-.37 1.08c2.32 3.25 1.92 5.08-2.48 4.88a11.32 11.32 0 0 0-2.26-.34z"/>
      <path class="cls-67" d="M68.23 186.88c4.1 1.33 9.9 6 7.58-4.37-.7-3.3 0-7 .1-10.5 9.7 1.5 5.2 9.9 7.3 15 5 6.7 2.1 20.6-5.2 25a5.05 5.05 0 0 1-4.6-3.2l-4.8-4.8-4.8-10.1c3.8-.8 3.6-4.3 4.6-6.9z"/>
      <path class="cls-95" d="M58.6 206.34l-.23 5.5c-.95-1.84-1.37-3.73.22-5.5z"/>
      <path class="cls-130" d="M95.65 218.7c-.87 14.74-1.8 15.28-17.12 9.9h-2.4a3.22 3.22 0 0 1-1.45-3.2c1.73-5.67 7.84-7.12 11.23-11.47 2.7-3.45 7.3-1.48 9.5 2.9z"/>
      <path class="cls-10" d="M75.83 226l.3 2.54c-10-5.3-5.16-12.75-2.9-19.83l5 .2c10.6 7.4-.3 11.7-2.4 17.2z"/>
      <path class="cls-52" d="M48.58 228a3.1 3.1 0 0 1 .2-1.88l2.47-2.58 2.3 7.22a13.85 13.85 0 0 1-2.22.22c-.88-1.06-2.8-1.13-2.75-2.98z"/>
      <path class="cls-105" d="M97.9 196.6c8.8 7.06 1.78 14.44.45 21.7l-2.7.4-.38-.1a32.83 32.83 0 0 1-2.62-5.24c-.4-3.55.45-7.06-.48-10.74s.3-7.35 5.72-6.02z"/>
      <path class="cls-131" d="M48.58 228l2.74 3-5.1-2.56a3.66 3.66 0 0 0 2.36-.44z"/>
      <path class="cls-123" d="M95.28 213.82v4.8c-7.9-1.25-12.3 6.63-19.44 7.4l2.43-17.15L83.1 187l7.47 2.17c2.77 8 1.82 16.7 4.7 24.65z"/>
      <path class="cls-110" d="M95.28 213.82C89.1 206.5 83.9 199 90.58 189.2l7.33-2.37c1.3 2.45 1 4.9 0 7.34v2.43c-3 5.4.7 11.85-2.6 17.22z"/>
      <path class="cls-132" d="M100 94l2.5-4.83 5.26 4.56-5.14 5.27z"/>
      <path class="cls-41" d="M95.78 100.74c-.08-2.62-.15-5.24 2.06-7.2z"/>
      <path class="cls-133" d="M68.3 167.1a10.18 10.18 0 0 1 .7-2.1l2.07 2.17z"/>
    </g>
  </g>
</svg>
