<svg xmlns="http://www.w3.org/2000/svg" width="727.88" height="267.27" viewBox="0 0 727.88 267.27">
  <defs>
    <style>
      .cls-1{fill:#686868;}.cls-2{fill:#2a2a2a;}.cls-3{fill:#202020;}.cls-4{fill:#292929;}.cls-5{fill:#5c5c5c;}.cls-6{fill:#7a7a7a;}.cls-7{fill:#535353;}.cls-8{fill:#424242;}.cls-9{fill:#252525;}.cls-10{fill:#d2d2d2;}.cls-11{fill:#d9d9d9;}.cls-12{fill:#e9e9e9;}.cls-13{fill:#101010;}.cls-14{fill:#191919;}.cls-15{fill:#525252;}.cls-16{fill:#282828;}.cls-17{fill:#6a6a6a;}.cls-18{fill:#4d4d4d;}.cls-19{fill:#1b1b1b;}.cls-20{fill:#2d2d2d;}.cls-21{fill:#dfdfdf;}.cls-22{fill:#a2a2a2;}.cls-23{fill:#c1c1c1;}.cls-24{fill:#6e6e6e;}.cls-25{fill:#5d5d5d;}.cls-26{fill:#707070;}.cls-27{fill:#434343;}.cls-28{fill:#464646;}.cls-29{fill:#ebebeb;}.cls-30{fill:#858585;}.cls-31{fill:#c8c8c8;}.cls-32{fill:#5a5a5a;}.cls-33{fill:#646464;}.cls-34{fill:#3c3c3c;}.cls-35{fill:#747474;}.cls-36{fill:#dcdcdc;}.cls-37{fill:#494949;}.cls-38{fill:#9a9a9a;}.cls-39{fill:#2b2b2b;}.cls-40{fill:#7d7d7d;}.cls-41{fill:#373737;}.cls-42{fill:#272727;}.cls-43{fill:#151515;}.cls-44{fill:#6d6d6d;}.cls-45{fill:#dadada;}.cls-46{fill:#979797;}.cls-47{fill:#e1e1e1;}.cls-48{fill:#393939;}.cls-49{fill:#111;}.cls-50{fill:#797979;}.cls-51{fill:#5b5b5b;}.cls-52{fill:#a1a1a1;}.cls-53{fill:#f2f2f2;}.cls-54{fill:#212121;}.cls-55{fill:#222;}.cls-56{fill:#676767;}.cls-57{fill:#4e4e4e;}.cls-58{fill:#060606;}.cls-59{fill:#737373;}.cls-60{fill:#414141;}.cls-61{fill:#1a1a1a;}.cls-62{fill:#efefef;}.cls-63{fill:#989898;}.cls-64{fill:#010101;}.cls-65{fill:#131313;}.cls-66{fill:#777;}.cls-67{fill:#f0f0f0;}.cls-68{fill:#dbdbdb;}.cls-69{fill:#606060;}.cls-70{fill:#a0a0a0;}.cls-71{fill:#acacac;}.cls-72{fill:#1f1f1f;}.cls-73{fill:#4b4b4b;}.cls-74{fill:#818181;}.cls-75{fill:#5f5f5f;}.cls-76{fill:#121212;}.cls-77{fill:#cdcdcd;}.cls-78{fill:#171717;}.cls-79{fill:#9d9d9d;}.cls-80{fill:#1d1d1d;}.cls-81{fill:#515151;}.cls-82{fill:#484848;}.cls-83{fill:#8e8e8e;}.cls-84{fill:#0d0d0d;}.cls-85{fill:#232323;}.cls-86{fill:#313131;}.cls-87{fill:#3a3a3a;}.cls-88{fill:#262626;}.cls-89{fill:#242424;}.cls-90{fill:#959595;}.cls-91{fill:#bebebe;}.cls-92{fill:#8f8f8f;}.cls-93{fill:#afafaf;}.cls-94{fill:#636363;}.cls-95{fill:#303030;}.cls-96{fill:#f1f1f1;}.cls-97{fill:#2e2e2e;}.cls-98{fill:#161616;}.cls-99{fill:#3d3d3d;}.cls-100{fill:#181818;}.cls-101{fill:#0f0f0f;}.cls-102{fill:#1e1e1e;}.cls-103{fill:#dedede;}.cls-104{fill:#ececec;}.cls-105{fill:#0c0c0c;}.cls-106{fill:#ededed;}.cls-107{fill:#363636;}.cls-108{fill:#3b3b3b;}.cls-109{fill:#404040;}.cls-110{fill:#595959;}.cls-111{fill:#e2e2e2;}.cls-112{fill:#1c1c1c;}.cls-113{fill:#2f2f2f;}.cls-114{fill:#3e3e3e;}.cls-115{fill:#a7a7a7;}.cls-116{fill:#4c4c4c;}.cls-117{fill:#909090;}.cls-118{fill:#0e0e0e;}
    </style>
  </defs>
  <title>
    angels
  </title>
  <g id="Layer_2" data-name="Layer 2">
    <g id="Layer_1-2" data-name="Layer 1">
      <path class="cls-1" d="M371.8 150.33c-6.66-12.08-1.68-28.85 11.27-37.92l1.72.4a9.77 9.77 0 0 1 3 1.9c2.2 2 4.3 4.2 5.4 7.1a37.68 37.68 0 0 0 2.4 5.2c5 10.7-7.4 14.1-9 22a16 16 0 0 1-5 4.1 9.73 9.73 0 0 1-6.4 0 20.8 20.8 0 0 1-3.6-2.5z"/>
      <path class="cls-2" d="M378.4 57.9c.07-5.75 1.08-11.56-1-17.18.45-4.07 2.37-7.47 4.87-10.6 3.2-2.68 7.1-4 10.87-5.6a14.07 14.07 0 0 1 6-2.17c3.12 0 5.7 1 7.4 3.76a12.47 12.47 0 0 1 1.14 4.2l.54 4.3c.33 3.6 1.58 7.1 1.38 10.7-8.33 9.5-16.04 20.3-31.2 12.6z"/>
      <path class="cls-3" d="M378.4 57.9c9.17-5 19.67-7.4 27.8-14.4l1.92-1.5a6.7 6.7 0 0 1 4.68.67c4.85 9.86.28 24.46-11 35-6.7 1.4-7.06-5.24-10.37-8.13-3.86-4.36-13.1-2.78-13.02-11.64z"/>
      <path class="cls-4" d="M358.12 206.9c-3.13-10.8 3.53-20.7 2.8-31.3l4.8-3.88 1.52-.57a9 9 0 0 1 4.48-2.5 6.94 6.94 0 0 1 5.38 1.84c2.4 4.6 1.34 9.6 1.57 14.4-5.33 8.9-2 20.8-10.16 28.7-7 3.1-9.5-.6-10.3-6.8z"/>
      <path class="cls-5" d="M391.47 69.6l9.53 3.6a7.1 7.1 0 0 1 6.94 5.8c.1 7.24-1.47 14-6.1 19.75a34.68 34.68 0 0 1-3.27 3.12c-1.77 1.3-3.4 2.86-5.6 3.52a4.7 4.7 0 0 1-3.9-1.6c-2.32-3.6-5.07-7.9-1.18-11.2 8.2-7 4.1-15.1 3.5-23z"/>
      <path class="cls-6" d="M365.87 161.08l-2.2-3.2.72-1.07-.7-1.1c1.8-3.1 4.8-3.7 8.1-3.3a10 10 0 0 1 5.7 1.7 18.3 18.3 0 0 1 4 7 30.23 30.23 0 0 1 .2 4 8.46 8.46 0 0 1-1.8 5.6 6 6 0 0 1-3.6 1.2c-1.8-.6-3.4-1.5-5.1-2.2a6.2 6.2 0 0 1-2.5-4.4l-.7-1.5-1-1.3z"/>
      <path class="cls-7" d="M383.28 32.2c-.35 4-2.18 6.9-5.92 8.52l.2-.14a6.78 6.78 0 0 1-1.8-2.05 2.92 2.92 0 0 1 .15-2.67l.2-1.37-.6-1.3 5.4-6.1a2.1 2.1 0 0 1 2.8-1.8 5.1 5.1 0 0 1 1.7 3.4 7 7 0 0 1-1.9 3.3z"/>
      <path class="cls-8" d="M371.5 166.16l3.43 3.25a1.86 1.86 0 0 1 .62 2.2q-.45 1-.86 1l-5.9.1c-.5 1.6-1.4 1.8-2.7.9a7.86 7.86 0 0 1-.6-1.7q0-1.4.2-2.8c1.5-.6 1.7-2.4 2.8-3.4a2.87 2.87 0 0 1 2.8.7z"/>
      <path class="cls-9" d="M389.1 103.77h2.78a5.8 5.8 0 0 1 2.9 3.52 6.92 6.92 0 0 1-.94 4.5c-3.28 3.1-6.56 4.3-9.82 0l-.95.6z"/>
      <path class="cls-10" d="M380.4 35.32l-2.8 2.4c-.63 1.36-2 2-3 2.95-1.9-2.72-1.33-5.17.8-7.44.83-.37 1.67-.77 2.5-1.2a32.56 32.56 0 0 0 2.5 3.3z"/>
      <path class="cls-11" d="M374.27 154.9l-2.44-2.53v-2a5.65 5.65 0 0 1 2.57-.6 3.67 3.67 0 0 1 1.92 2.66 3.22 3.22 0 0 1-2.05 2.46z"/>
      <path class="cls-12" d="M369.2 167l-3.3 1.9.28-5.3a2.5 2.5 0 0 1 3.42 0 2.62 2.62 0 0 1-.4 3.4z"/>
      <path class="cls-13" d="M374.63 40.68c-.1-2.06.9-3 3-2.95v2.85z"/>
      <path class="cls-14" d="M368.92 163.72h-1.38l-1.37-.15q-.13-1.27-.3-2.54l3-.16q1.14.93.76 1.86t-.7 1z"/>
      <path class="cls-10" d="M383 25.76a13.6 13.6 0 0 1-2.2 1.4l-.32-3.7h2.6q.92.8.58 1.56t-.66.74z"/>
      <path class="cls-15" d="M363.72 155.7a5.37 5.37 0 0 1-.05 2.2 4.4 4.4 0 0 1 .05-2.2z"/>
      <path class="cls-16" d="M392 20.8c1.9-4.92 9-6.34 8.66-12.75C404 3.65 405.4 7 407 9.6a26.8 26.8 0 0 1 .5 7 13.18 13.18 0 0 1-1 4.43c-1.77 2.88-5 2.92-7.73 3.8a17.75 17.75 0 0 1-4.25.72c-2.16-.87-3.6-2.15-2.52-4.76z"/>
      <path class="cls-8" d="M392 20.8l3.3 3a2.86 2.86 0 0 1-.13 3.3c-3.16 4.07-7.62 2.76-11.74 2.83l-.43-4.17q.06-1.16.06-2.32c2.4-2.77 5.84-2.15 8.94-2.65z"/>
      <path class="cls-17" d="M409.1 0l14 .6a5.16 5.16 0 0 1 2 3.58c.35 3.48-1.5 5.23-4.66 6a16.84 16.84 0 0 1-4.23-.18c-2.6-.85-5.3-1.9-8-2.83a9.14 9.14 0 0 1-2.9-3 3.25 3.25 0 0 1 1.2-3.6l2.7-.57z"/>
      <path class="cls-10" d="M406.43.56l-.2 3.15q1.82.9 3.63 1.9l1.22 1.7a6.4 6.4 0 0 1-.33 4 6.85 6.85 0 0 1-3.3 2.3l-2-.1-1.66-1.3-3.2-4z"/>
      <path class="cls-18" d="M358.12 206.9c2.24 2.27 4.4 4.7 8.13 3.52 6.05 0 6.06 6 9 9.08a15.66 15.66 0 0 1 .75 5.5 15.4 15.4 0 0 1-.6 3.6 25.12 25.12 0 0 1-1.85 3.17l-1 1.6s-.64 1.08-1 1.63l-1.92 3.46a5.13 5.13 0 0 1-5.54 1.9c-10.7-2-5-10.46-6.5-16.14z"/>
      <path class="cls-19" d="M357.7 224.28c4 4.2 1.7 11.7 7.8 14.8 1 2.28.37 3.24-2.16 2.64-6.17.07-9.1 5.9-14.12 8-.22-9.5 5.57-17 8.48-25.44z"/>
      <path class="cls-20" d="M383.3 146.66c-.1-7.18 8.55-11.74 5.9-19.68 2.3-3 4-6.7 8.48-7.1a15.43 15.43 0 0 1 4.64.37 9.12 9.12 0 0 1 3.74 2.8c2.44 5.77 5.56 11.38 4.16 18-.53 4.37-3.86 6.46-7.1 8.6a13.8 13.8 0 0 1-4.12 1.65c-5-2.3-12.08 2.37-15.7-4.64z"/>
      <path class="cls-21" d="M383.3 146.66c4.9 2 9.87-7.27 14.72.1 1.73 6.37 4 12.74-.4 19a9.16 9.16 0 0 1-4.47 1.94c-3.4.22-6.15-1.37-8.73-3.32a11.23 11.23 0 0 1-2.68-6.1c-.52-2.86-1.4-5.67-1.48-8.6z"/>
      <path class="cls-22" d="M397.25 123.74l-8 3.25v-3.3c.7-2 .62-4.1 1.17-6.1a7.23 7.23 0 0 1 3.65-5 6.48 6.48 0 0 1 4.3.2 6.38 6.38 0 0 1 2.67 3.4 6.92 6.92 0 0 1-.7 4.2 16.33 16.33 0 0 1-3.1 3.1z"/>
      <path class="cls-23" d="M391.87 121l-2.62 2.78c-1.07-3.56-6.2-4.44-5.9-8.9 1.86-1.32 4-1.14 6.08-1 2.57 1.75 3.78 3.98 2.44 7.12z"/>
      <path class="cls-24" d="M380.26 149.65c3.06.54 5.8 1.4 5.74 5.3a6.6 6.6 0 0 1-2.9 2.45c-3.77.32-5.65-2.54-7.9-4.75l-.82-2.92z"/>
      <path class="cls-25" d="M388.74 115.3l-5.4-.44.67-3.08 7.5-2.7a4.2 4.2 0 0 1 2.1 3.65c-.8 2.2-2 3.84-4.8 2.56z"/>
      <path class="cls-26" d="M383.44 29.9l10.83-3.74q2.82 1.27.46 3.26c-3.18 3.55-7.4 2.8-11.45 2.76q.14-1.13.16-2.27z"/>
      <path class="cls-27" d="M406.2 43.5c-3.83-2.2-3-5.68-2.6-9.08 1.07-1.63 1.76-3.58 3.84-4.32a6 6 0 0 1 3.77.9 6.74 6.74 0 0 1 1.7 3.5c.1 2.93-1.3 5-3.7 6.45a26.4 26.4 0 0 0-2.9 2.57z"/>
      <path class="cls-28" d="M397.13 23.74l5.8-3.33a5.7 5.7 0 0 1 5.72 2.6 5.73 5.73 0 0 1-1 6.2 3.18 3.18 0 0 1-4 .4l-5.28-3.1q-1.73-.3-1.7-1.4c0-.9.17-1.3.46-1.3z"/>
      <path class="cls-29" d="M397.13 23.74l1.2 2.7-3.6 3-.46-3.27 1-2.4q.95 0 1.86-.03z"/>
      <path class="cls-30" d="M403.62 29.52l2.82-.65a2.17 2.17 0 0 1 2.77.2 2.1 2.1 0 0 1-.4 2.7 23.34 23.34 0 0 1-2.5.28 1.37 1.37 0 0 1-2.4.28 12.13 12.13 0 0 1-.1-2.8z"/>
      <path class="cls-31" d="M403.82 32.34l2.4-.28-2.6 2.36a5.12 5.12 0 0 1 .2-2.08z"/>
      <path class="cls-14" d="M443.44 14.88c10.46 18.9 5.5 37.28-2.42 55.26-2 4.47-3.7 8.6-3.24 13.48 1.48 2.15.74 4-.83 5.65-3.9 2.3-7.62 1.33-11.25-.65-1.05-.44-2.13-.9-3.2-1.28a17.14 17.14 0 0 0-4.92-.45 33.57 33.57 0 0 1-6.92.8 7.6 7.6 0 0 1-3.48-1.3 15.28 15.28 0 0 1-3.5-6.9c-.9-2.1-1.8-4.2-2.68-6.4 1.48-10.3 8.77-18.9 8.1-29.7a2.5 2.5 0 0 1-1.1-2.9c1.16-1.9 2.55-3.8 2.5-6.2a17.9 17.9 0 0 0-.44-5 42.9 42.9 0 0 0-1.68-4.9 18.75 18.75 0 0 1-1.1-3.4c-.3-3.5 2.42-5.4 4-8l1.4-1.3 1.7-.9a20.84 20.84 0 0 1 3.84-.5c2 0 3.94-.1 5.92 0 6.86-.5 12.95 2.4 19.3 4.2z"/>
      <path class="cls-2" d="M409.18 41.34q0 1.12-.1 2.24l-2.88-.06v-2.64q1.9-2.53 2.98.46z"/>
      <path class="cls-7" d="M371.82 221.3a14.26 14.26 0 0 1-5.56-10.88c1.6-9.14-3.2-20.14 7.73-26.57a17.24 17.24 0 0 1 3.3-3 10.28 10.28 0 0 1 4.3-.73 8 8 0 0 1 4 1.64c8.1 14.82-1.6 25.92-7.9 37.73a7.8 7.8 0 0 1-6 1.8z"/>
      <path class="cls-32" d="M377.9 183.92l-3.92-.07a12.6 12.6 0 0 1 .7-11.32l.24-3.12 2.1.1c1.9-.3 3.73-.9 5.67-1a14 14 0 0 1 3.8.6 6.83 6.83 0 0 1 2.7 2.8 6.2 6.2 0 0 1-1 5.5 11.6 11.6 0 0 1-3 2.2c-1.1.5-2.2.9-3.3 1.4a10.3 10.3 0 0 0-4.2 3.1z"/>
      <path class="cls-19" d="M366.25 173.5a12.1 12.1 0 0 1 2.63-.85l-1.6 3.14z"/>
      <path class="cls-33" d="M403.67 79.57l5.1 3.92c1.64 1.7 3.35 3.2 6 2.7 3.65-1.2 7.28-1.6 10.92 0a16.94 16.94 0 0 1 3 2.6 8.94 8.94 0 0 1 1.6 3.7 23.77 23.77 0 0 1-.1 4.2 9.08 9.08 0 0 1-1.9 3.7c-1.7 1.3-3.8 1.8-5.8 2.5a24.48 24.48 0 0 1-10.3 2 68 68 0 0 1-8.2-.3 9 9 0 0 1-5-3.1l-1.1-1.7-.4-2c3-5.9 5.3-12 6-18.6z"/>
      <path class="cls-34" d="M391.84 106.52v-2.75l3-5.77c2.24 2.44 3.3 5 1.1 8.08a3.3 3.3 0 0 1-4.1.44z"/>
      <path class="cls-35" d="M394.93 106.82q0-4.4-.1-8.82 1.4.06 2.77.16l.35.06c1.8 2.14 3.23 4.38 2.07 7.35a4.88 4.88 0 0 1-3.26 2.1z"/>
      <path class="cls-36" d="M383.5 155.6a16.56 16.56 0 0 0 2.5-.6l.16 5.9c-.3 3.1-2.08 4.73-5.13 5.07a8 8 0 0 1-3.5-1.8l-.5-3.43c-2.44-7.55 1.97-6.35 6.47-5.14z"/>
      <path class="cls-37" d="M383.5 155.6c-2 1.85-6.6.5-6.46 5.1l-2.77-5.8a14 14 0 0 1 .92-2.25z"/>
      <path class="cls-4" d="M377.54 164.14l2.9-.45c3.26 2.9 2.6 5.8.1 8.8l-3.54-3 .54-5.4z"/>
      <path class="cls-38" d="M368.92 163.72v-2.8l-.1.23a2 2 0 0 1 2.93-.28l-.25 5.3q-1.14.46-2.3.87z"/>
      <path class="cls-2" d="M371.74 160.87l-2.93.28z"/>
      <path class="cls-39" d="M380.4 35.32c-1.5-.58-2.8-1.3-2.46-3.28z"/>
      <path class="cls-40" d="M391.84 106.52l3.1.3h.05a4.62 4.62 0 0 1 .6 5.83 3.16 3.16 0 0 1-3.9 0l-.3-3.54.3-2.5z"/>
      <path class="cls-41" d="M443.44 14.88c-6.73 1.67-13.44 2.47-20.06-.47a5.1 5.1 0 0 1-1.72-3.3c3.5-6.8 8.8-2.6 13.48-2.2l-.45.3a2.4 2.4 0 0 0 2.8.6c3.3.3 5 2.2 5.9 5.2z"/>
      <path class="cls-42" d="M435.15 8.87L423.3 12.6a6 6 0 0 1-6.2-.46c-1.28-2.13-1.2-4.07.82-5.73l5.5-3.1a1.8 1.8 0 0 1 2.8-.4c3.6 1.1 7.16 2.2 8.93 6z"/>
      <path class="cls-10" d="M426.22 2.87a12.25 12.25 0 0 1-2.8.42 11.9 11.9 0 0 0-.36-2.7z"/>
      <path class="cls-43" d="M437.57 9.7l-2.86-.56z"/>
      <path class="cls-44" d="M417.92 6.4l.47 5.2-.8 1.6a8.46 8.46 0 0 0-2.9 1.8l.1-.3q-1.2.92-.9 1.9t.7 1l-5.6 5.85a1.68 1.68 0 0 1-2.8 0l-3.4-3.12.6-2.92c2.1-1.4 1.2-3.6 1.4-5.6a2.1 2.1 0 0 1 1.7.1 16.9 16.9 0 0 1 2.7-2c1.1-1.3 1-3.2 2.2-4.5a4.9 4.9 0 0 1 4.8.2z"/>
      <path class="cls-45" d="M405 11.86c1.9 2.5 3 4.77-1.45 5.63l.24-5.5z"/>
      <path class="cls-46" d="M416.46 5.67l-4.84.93-1.93-.18-1.3-.26a1.75 1.75 0 0 1 .4-2.6z"/>
      <path class="cls-47" d="M408.9 3.55a5.6 5.6 0 0 1-.42 2.6l-2.25-2.44a14.08 14.08 0 0 1 2.66-.1z"/>
      <path class="cls-48" d="M409.7 6.4q1 .07 1.92.2l-2.87 4.82a1.6 1.6 0 0 1 .25-2.5 6.75 6.75 0 0 1 .7-2.5z"/>
      <path class="cls-49" d="M409 8.9q-.2 1.26-.3 2.53-1 .3-2 .53c-.52-2.02.9-2.54 2.3-3.05z"/>
      <path class="cls-50" d="M372.22 247.36l-3-.32c-4.95-4.7.46-9.6-.3-14.4 0-2.4 1.4-4 3-5.52h-.1c1.15-1.75 1.7-3.94 3.83-4.95a5.88 5.88 0 0 1 4.16.52c4.6 4.7 3.9 10.3 2.5 16a29.3 29.3 0 0 1-1.4 3.8c-1.6 2.4-4.2 3.3-6.6 4.4z"/>
      <path class="cls-51" d="M371.57 232.55l-2.32 14.5-5.9-5.33 2.15-2.64.46-5.8a3.26 3.26 0 0 1 2.47-2.26 5 5 0 0 1 3.14 1.53z"/>
      <path class="cls-52" d="M368.75 232.73a20.5 20.5 0 0 0-2.8.54l-2.3-3.8.73-1-.7-1c1.66-2.45 3.56-1.6 5.48-.4 1.37 2 1.8 3.93-.4 5.66z"/>
      <path class="cls-34" d="M374.68 224.22l-2.77 2.94q0-2.94-.1-5.88l2.5-3 1.6 1a3.92 3.92 0 0 1-1.1 4.94z"/>
      <path class="cls-34" d="M368.75 232.73l.4-5.66q1.43 0 2.84.05l-.5 5.42q-1.4.12-2.8.2z"/>
      <path class="cls-53" d="M363.68 227.46a1.2 1.2 0 0 1 0 2 3.08 3.08 0 0 1 0-2z"/>
      <path class="cls-3" d="M451.75 215.56c-7.3-8.18-3.38-20.68-11-28.73-3-2.8-3-5.6 0-8.42 2.27 2 4.67 3.7 8 2.8.72 11.5 5.66 22.6 3 34.4z"/>
      <path class="cls-54" d="M400.44 146.7l6-6.47c3.3-4.5 5.18-10.92 12.9-9.2a7.3 7.3 0 0 1 4.92 4.22c5.34 10.64-2.7 19.9-3.14 30-2.06 5.2-5.2 8.86-11.42 8.3a8.18 8.18 0 0 1-6.37-4.15c-3.75-7.23-4.02-14.88-2.9-22.7z"/>
      <path class="cls-55" d="M400.44 146.7c5.63 5.6 6 12.72 5.8 20-1.25 5.64-4.66 7.5-10.12 5.77-3.83-2.5-4.07-5.73-1.87-9.43 1-5.47-.37-11.5 3.78-16.26q1.2-.07 2.4-.08z"/>
      <path class="cls-56" d="M417.8 135.43c-1.23 1.28-3.43 2.46-3.57 3.85-1.26 12.43-4.8 4.05-7.8 1L402.7 124l.25-1.8a6.2 6.2 0 0 1 2.67-2.44l3.53-1.4c1.84-.76 3.66-1.56 5.48-2.37 2.74-1.2 5.45-1.9 8.07.2 3.66 7.7 3 14.3-4.9 19.1z"/>
      <path class="cls-57" d="M397.77 121.1l-.16-2.9a4.8 4.8 0 0 1 4-1.65c3.6 1.57 4.3 3.95 2 7.17l-1 .27c-.7-.1-1.5-.2-2.2-.2a19.44 19.44 0 0 1-2.5-2.7z"/>
      <path class="cls-58" d="M397.77 121.1l2.64 2.7-3.1-.06a5.55 5.55 0 0 1 .6-2.64z"/>
      <path class="cls-59" d="M380.55 172.56l-.12-8.87 5.73-2.9 5.87 3.4c3.9 9.1-3.54 7.2-8 8.2z"/>
      <path class="cls-60" d="M384 172.5c2.56-2.84 7.14-3.7 8-8.2a4.26 4.26 0 0 1 2.22-1.27l3.18 6.82c2.3 7-2.23 7.72-7.3 8-2.42-.9-3.23-3-3.9-5.23l-1.1-.1z"/>
      <path class="cls-61" d="M394.38 111.88l.6-5.1q1.36 0 2.7-.16l1.68-1.33a6.36 6.36 0 0 1 4.17.2 6.63 6.63 0 0 1 2.6 3.3c0 .7.06 1.4.1 2.1a5.88 5.88 0 0 1-2.44 3.4 15.5 15.5 0 0 1-6.4.5 12.63 12.63 0 0 1-2.6.5q-2.2-1.6-.5-3.6z"/>
      <path class="cls-48" d="M394.38 111.88l.42 3.6c-.36 2.16-.62 4.37-2.94 5.5l-3.12-5.7 3.07-2.66q1.3-.32 2.6-.74z"/>
      <path class="cls-62" d="M397.42 115c1.1-2.48 3.5-2.5 5.66-2.94 2.3 3.5-.17 4.68-2.83 5.74a9.9 9.9 0 0 1-2.63.43z"/>
      <path class="cls-63" d="M409.18 41.34l-3-.46 3-5.4q1-3.9 2.76-.27c-.18 2.4-.5 4.7-2.76 6.2z"/>
      <path class="cls-64" d="M411.88 35.2a14.9 14.9 0 0 0-2.76.28q-.2-1.84-.38-3.7a20.9 20.9 0 0 0 .45-2.7l1.4-1 1.4 1.13z"/>
      <path class="cls-65" d="M406.3 23.53a8.28 8.28 0 0 1 2.83 0l-.16-.17c1.94 2 1.84 4 .08 6l.13-.22a13.72 13.72 0 0 1-2.75-.22l-.13-5.4z"/>
      <path class="cls-66" d="M435.68 86.3l-.76 3.12a5.45 5.45 0 0 1-3.15 2.5c-2.3.2-3.95-1-5.46-2.5v.07c-2.8-3.3-8 .3-10.6-3.7-1.3-2.5.4-5.2-.6-7.7 4.8-3.3 8.1 0 11.5 2.7l-.1-.2c2.7 2.5 5.4 5 9.3 5.5z"/>
      <path class="cls-67" d="M409.4 91l-.62-7.47a5 5 0 0 1 2.1-.34 3.3 3.3 0 0 1 4.73.6c1 3.6 1.9 7.3-2.3 9.4-1.8.9-3.3-.2-3.9-2.3z"/>
      <path class="cls-68" d="M414.37 83.6l-3.48-.45 4.1-5 2 4.75q-.6 3.5-2.7.7z"/>
      <path class="cls-69" d="M409.05 29.32l-.08-6c3.37.75 3.6 3.1 3 5.87z"/>
      <path class="cls-32" d="M418.38 11.6l4.9 1q0 .93.1 1.83l-5.54.57q-1.27-.57-1.16-1.5t.46-1z"/>
      <path class="cls-70" d="M417.15 12.44q.4 1.26.7 2.56l-3.07.06z"/>
      <path class="cls-46" d="M414.77 17.67l.17-2.92q-.1 1.46-.17 2.92z"/>
      <path class="cls-42" d="M374.22 218.3c4.5-10.9 10.36-21.43 9.25-33.87a5.85 5.85 0 0 1 .95-4.33 6.66 6.66 0 0 1 4.13-1.8c7-1 13.84-1.73 17.68 6.17a6.66 6.66 0 0 1-.26 4.25 39.35 39.35 0 0 1-4 4.52 34.76 34.76 0 0 0-2.8 5 13.22 13.22 0 0 1-2 3.43c-8.07 3.66-6.87 12.62-10.74 18.7-2 2.1-4.24 3.36-7.23 2.43-2.22-.54-3.3-2.22-4.15-4.14z"/>
      <path class="cls-71" d="M385.78 180.9l-2.3 3.53-3.32-.4c-1.44-2.05-1.4-4 .4-5.86l-.24.28a3.7 3.7 0 0 1 2.9-1.2 3.32 3.32 0 0 1 2.56 3.64z"/>
      <path class="cls-2" d="M380.56 178.17l-.4 5.87q-1.14-.1-2.27-.12z"/>
      <path class="cls-67" d="M385.78 180.9L383 178q-.93-1-.48-1.78t.8-.76l2.87-2.83 3.4 2.77c1.4 3.42-1.8 4.2-3.4 5.87z"/>
      <path class="cls-72" d="M383.35 175.42A8.3 8.3 0 0 1 383 178a14.1 14.1 0 0 1-2.72.5z"/>
      <path class="cls-73" d="M411.86 100.87l8.33-2.93c1.7 1.48 3.2 3.1 3.4 5.57-.4 3.3-2.9 5.2-4.9 7.3a35.12 35.12 0 0 1-5 4.4 8.14 8.14 0 0 1-4.2.8l-2-.6-1.6-1.4a8 8 0 0 1-1.1-4c-.8-5.3 3.7-6.7 6.9-9z"/>
      <path class="cls-74" d="M414.37 83.6l2.68-.66 9.25 6.55c-5.73-.7-10.73 7.1-16.9 1.4 6.07.5 5.14-3.7 4.97-7.4z"/>
      <path class="cls-40" d="M411.86 100.87l-5.92 8.6q-1.4 3.2-2.88 0l-2-3c-.13-2.23-.45-4.52 2.2-5.66z"/>
      <path class="cls-45" d="M420.25 103.74l-.06-5.8 5.7-1a5.7 5.7 0 0 1 3.5 2.92 10.4 10.4 0 0 1 .4 4.7 6.54 6.54 0 0 1-4.8 4.76 6.7 6.7 0 0 1-4.5-1.3 3.47 3.47 0 0 1-.4-4.28z"/>
      <path class="cls-75" d="M403.3 100.82c.52 2.38.38 4.5-2.2 5.66a10.6 10.6 0 0 1-1.48.3 13.2 13.2 0 0 1 .2-8.46z"/>
      <path class="cls-76" d="M399.8 98.33l-.18 8.44q-1-.1-1.94-.15l.27-8.4a14.46 14.46 0 0 0 1.86.1z"/>
      <path class="cls-77" d="M426.7 101.64l-.8-4.64a16.13 16.13 0 0 0 .38-2 3 3 0 0 1 3.68-.47 5.9 5.9 0 0 1 1.3 3.83c-.7 2.28-2.1 3.53-4.55 3.28z"/>
      <path class="cls-78" d="M428.84 95.47a25.64 25.64 0 0 0-2.56-.42 20.34 20.34 0 0 1 0-2.78c1.87-1.9 3.78-1.5 5.7-.1.65 2.7-.14 4.04-3.14 3.3z"/>
      <path class="cls-79" d="M432.1 92.1l-5.82.16q-.05-1.43 0-2.86h6l.9 1.42z"/>
      <path class="cls-80" d="M426.7 101.64l2.73-3.5c2.44-1.68 4.22-5.08 8.08-3.16l3.6.26c1 2.8-.4 5.17-1.2 7.67a10.18 10.18 0 0 1-4.4 4 7.62 7.62 0 0 1-5.9 0 10.23 10.23 0 0 1-2.6-3.1 10.75 10.75 0 0 1-.1-2.1z"/>
      <path class="cls-75" d="M437.5 95l-8.07 3.17q-.34-1.33-.58-2.7l3.26-3.35-.3.1c2.1-1.8 4-1.65 6 .22a18 18 0 0 1-.3 2.56z"/>
      <path class="cls-81" d="M437.5 100.6l3.56-5.35 5.06 2.64-2.76 2.8a4.54 4.54 0 0 1-3 1.9 3.85 3.85 0 0 1-2.87-2z"/>
      <path class="cls-20" d="M437.74 92.43l-6-.22q.3-1.3.53-2.7h2.6z"/>
      <path class="cls-82" d="M378.07 221.57l5.6-3c6.3-2.85 7.36 3.4 10.5 6 4.4 4.1 5.93 9 3.9 14.78-4.05 4.1-6.7 11.57-14.73 6.16-2.38-1.9-3.7-4.7-5.75-6.9-3-4.7-.7-9.5-.1-14.2q-2.5-1.8.5-2.7z"/>
      <path class="cls-83" d="M377.6 238.6l5.58 2.64.54 2.2c1.14 2 2.64 3.78 2.54 6.25-1.55 4.3-3.85 6.8-8.48 3.3l-3.3-6.4c-1.28-2.9 1.1-3.7 2.78-4.9z"/>
      <path class="cls-73" d="M377.26 241.72l-2.77 4.87-2.7.8a8.06 8.06 0 0 1 5.4-5.7z"/>
      <path class="cls-84" d="M378.07 221.57q-.3 1.4-.52 2.8l-2.86-.15.3-5.55z"/>
      <path class="cls-76" d="M400.28 186.9l3.08-.05c.9-6.06-3.47-13.8 5.57-17.23a14.9 14.9 0 0 0 5.93-8.5c9.34-11.9 18.2-11.9 28.63 0-2.4 5.55-3 11.37-2.8 17.32v8.42l-.1 20.06c-3.3 5.2-4.9 11.47-10 15.42-3 2-5.9 4-9.8 3.14-3.6-.36-6.7-2.17-9.9-3.5-5.4-4.35-4.1-12.75-10-16.76a7.1 7.1 0 0 1-1.7-3.45c.3-4.97-2.1-10.1.9-14.87z"/>
      <path class="cls-80" d="M443.5 161.1c-9.55-1.12-19.1-3.84-28.64 0-1.4-8.45 6.1-14.67 5.76-22.86 1.37-6.7 7.43-9.72 11.4-14.38h11.53c3.2 10.47-.76 20.92-.06 31.38z"/>
      <path class="cls-85" d="M432 123.9c4.26 11.16-2.3 13.77-11.4 14.37l-2.8-2.84c-3.9-6.45 1.86-11.63 2.3-17.5-2.54-3-1.6-5.26 1.37-7.17 3.5-.76 5.28 1.2 6.5 4.07a13.43 13.43 0 0 1 1.16 6.08z"/>
      <path class="cls-86" d="M443.48 155.24c-4.42-10.47 0-20.92.06-31.38 4.33 10.47 3.86 20.93-.06 31.38z"/>
      <path class="cls-87" d="M429.14 120.9l-3.14-3.3.18-1.95a31.67 31.67 0 0 1 .5-5.86 7.3 7.3 0 0 1 2.9-2.6 8.16 8.16 0 0 1 3.92.3c2.46 1.6 3.18 4.1 3.46 6.8a9.16 9.16 0 0 1-1.9 3.4z"/>
      <path class="cls-66" d="M437.5 100.6l3.3.28a24.55 24.55 0 0 0 2.8 2.43c1.54 2.4-.14 4.3-.73 6.4l-1.37 1.2-1.75.4c-2.72-.4-3.88-2.4-4.8-4.7a18.8 18.8 0 0 1 0-3.5z"/>
      <path class="cls-25" d="M435.08 117.8l-.4-2c.6-3.4.06-7.9 6-6.24v-.07a10.08 10.08 0 0 1 2.32 2.4c-1.65 3.3-3.84 5.8-7.92 5.9z"/>
      <path class="cls-63" d="M443 111.9l-2.36-2.42q1.1.14 2.23.18a3.52 3.52 0 0 1 .13 2.24z"/>
      <path class="cls-88" d="M443.6 103.3l-2.8-2.43 2.56-.18q.14 1.3.25 2.6z"/>
      <path class="cls-89" d="M440.56 224.22c-7.37-13.5-6.78 5.22-11.4 2.82-3.3-2.87.2-5.72 0-8.58 2.48-5.16 5.37-9.93 11.43-11.56 2.4 5.77.5 11.54-.1 17.32z"/>
      <path class="cls-87" d="M408.94 169.62c-1.65 5.8 2 13.33-5.57 17.23a33.28 33.28 0 0 0-17.08-5.62l3.3-5.87 7.7-5.5 8.8-3.17z"/>
      <path class="cls-90" d="M423.23 112l-3.1 5.92-4.13 3.17a3.78 3.78 0 0 1-3.4-1.3 5.06 5.06 0 0 1 .3-5.6c2.1-3.3 3.94-6.9 8.13-8a10.22 10.22 0 0 1 2.28.3c2.1 1.8 1.8 3.6 0 5.4z"/>
      <path class="cls-91" d="M409.2 112.35q1.1-.37 2.17-.78c4.22 2 .38 6.85 3.32 9.3l1.3.22c-2 2.1-4.3 3.5-7.4 2.4-3-3.9-3.1-7.6.5-11.2z"/>
      <path class="cls-92" d="M400.25 117.76l2.83-5.74h-.28q1.58-1.63 2.67.36h1.14a15.5 15.5 0 0 1 .2 11.4h-3z"/>
      <path class="cls-80" d="M406.75 123.72l-.13-11.4h2.58l-.52 11.17a17.18 17.18 0 0 0-1.93.2z"/>
      <path class="cls-93" d="M405.47 112.35l-2.66-.36a7.73 7.73 0 0 0 .3-2.5h2.9z"/>
      <path class="cls-14" d="M426.36 80.8l-1 .68 1.13-.55z"/>
      <path class="cls-94" d="M389.13 226.67l-5.47-8.1c1.2-7.86 1.38-16.26 10.8-19.56 7.65 4.4 3.53 11.9 4.64 18-.42 6.3 1.48 14.8-9.97 9.8z"/>
      <path class="cls-4" d="M394.48 218.5v-19.48q0-1.92.07-3.84l1.2-1.4a5.6 5.6 0 0 1 3.57-.28c3.37 1.52 1.68 5.74 4.13 7.75v-.15c5.36 5.22 2.55 12.77 5.3 18.84 1.25 2.75-.7 5.66-3.9 6.3-6.15 1.23-7.8-3.98-10.37-7.73z"/>
      <path class="cls-37" d="M403.45 201.25l-5.6-5.78c-1.46-1.18-3.46-1.66-4.5-3.4-.92-2-.2-3.67 1.26-5.1l5.7-.07c4.5 4.03 3.9 9.18 3.2 14.35z"/>
      <path class="cls-36" d="M394.6 187l.84 6a1.6 1.6 0 0 1-.9 2.45v-.2c-5.17-2.85-7.95-5.6.07-8.25z"/>
      <path class="cls-47" d="M414.7 120.87l-3.33-9.3c.46-2 .6-4.3 3.27-4.86 2.8 2.5 1.7 5.3.64 8.1z"/>
      <path class="cls-94" d="M415.28 114.78l-.64-8.07 5.6-3a15.68 15.68 0 0 1 .83 2.5z"/>
      <path class="cls-76" d="M423.23 112l.12-5.44 3.48-2.78h2.42c1.7 2 1.7 3.92-.27 5.75l.1-.14c-2.42 2.3-.4 6-2.4 8.4l-.68-.2z"/>
      <path class="cls-95" d="M629.78 23c7.64 2.2 16.06-1.3 23.4 3.18a68.2 68.2 0 0 1-4.43 11.14 13.9 13.9 0 0 1-2.05 3.34c-5.36 6-11.62 3.84-17.84 2-3.75-.77-7.46 1.5-11.23.23-11.6-4.2-21.37 6.8-32.8 3.9-2.63-3.3-6.6-5.6-7.32-10.2-7.7-12.8-17.4-3.9-26.3-2.3-3.8.7-7 3.4-10.7 4.9-4.2 6.8-5.8 15.4-14.9 18.7-6.3 2.3-10.9 2.5-13-5.1a5.05 5.05 0 0 1 2.1-3.8c1.4-14.1 10.8-22.9 20.7-31.4 5-7.5 13.2-6.8 20.4-7.2 25.6-1.5 50.3 3.2 74.1 12.4z"/>
      <path class="cls-96" d="M629.78 23c-28.74-4.6-56.9-15.42-86.72-8.08a68.3 68.3 0 0 0-7.78 2.92c7.34-13.8 20.94-8.84 32.1-10.1 8.24-.92 16.8.9 25.2 1.48 7.63 4 16 5 24.33 6.26 5.3.8 10 2.7 12.9 7.52z"/>
      <path class="cls-55" d="M489.72 66.62c11.12-.33 15.7-11.87 25.32-14.77 12.58 1 15.3-11.4 23.07-16.92 7.5-4.26 10.4.7 12.9 6.38a22.85 22.85 0 0 0 4 5.9c2.1 2.7 5.5 1.7 8.2 2.8 11.2 5.7 7.6 17.1 10.3 26.1-3.8 6.2-6.1 12.7-5.3 20a8.37 8.37 0 0 1-2.3 5.8c-5.7 2.6-12 4.5-4.8 12.6a19.48 19.48 0 0 1 4.9 12.4c1.4 7.2 3.5 14.3 3.5 21.8 0 6.2-2.2 10.7-7.7 13.5-10.2 14.6-10.1 14.6-20.6-2.9a35.06 35.06 0 0 0-6.2-8 107.48 107.48 0 0 0-6.2-18.2c-2.9-4.9-8.1-4.1-12.6-5.2-3.9-1-6.8-3.5-6.7-8 .1-3.6 2.4-5.7 5.6-7.4 15.7-8.5 15.7-8.6 26.7-23.64-8.5 11.6-8.5 11.6-25.4 17.06a14.06 14.06 0 0 0-7.9 5.7c-7.8 12.1-21.7 10-33 13.9-3.2 1.1-6.8-1.5-7.3-5.2-.6-4.7-4-6-7.3-7.8-3.1-3.75-9.1-5.2-9.1-11.5 2.8-7 14.1-5.7 14.66-14.94 2.8-4.4 5.7-8.52 11.85-7.8 4.76 1 7.1-1.8 8.9-5.55z"/>
      <path class="cls-97" d="M466 85.63c.46 8.13-5.08 11.8-11.2 15-2.2 4.17-5.55 2.08-8.6 1.56a45 45 0 0 1-7.36-2.6 12.5 12.5 0 0 1-3.4-1.8 9.9 9.9 0 0 1-2-3.3c-.7-1.8-1.34-3.7-.6-5.6a12.3 12.3 0 0 1 2.74-2.7l2.1-2.7c9.32 3 18.1 13.1 28.32 2z"/>
      <path class="cls-15" d="M486.8 72.27c2.05 1.5 8.73 1.33 2.53 6-4.7 3.53-5.67 8.5-8.07 14.06l-3.36-14.5c2.34-2.83 5.03-5.17 8.9-5.56z"/>
      <path class="cls-16" d="M670 37.62c18.53 13.64 41.05 21.12 57.85 37.45l-1.17 5.82c-1.36 2.6-.27 5.8-1.63 8.4-7.62 11.7-19.6 5.4-29.6 7.1-5.72-.6-12-3.1-15.7 4.2a84 84 0 0 1-12.4 12.9c-4.77 3.9-9.9 5.1-14.72-.2-1.12-1.3-1.68-3.1-3.22-4.1.4 1.8 1.4 3.4 1.2 5.3a7.3 7.3 0 0 1-2 3.5c-7.7 4.5-14.5 3.7-22.5-1.3-14.1-8.9-28.9-16.7-46.8-13.8-7.9 1.3-11.6-2.7-11-10.7-1.2-8.7 7.5-17.3.1-26 .4-8.6 6.4-12.5 13.3-15.8 5.8-3.8 12.3-5.1 19-5.4 3 .8 4.6 3.22 6.5 5.33 6.5 10.2 5.3 23.34 12.3 31.73-1.3-6.4-6.3-13.34-6-21.77 4.4-6.4-4.2-11.7-1.5-18 1.5-3.1 4.3-5.2 6.5-7.7 3.9.9 9.3-5.6 11.7 2.5a216.23 216.23 0 0 1 31.9 18c-4-4.8-12.8-3.3-14.4-11.2.26-3 2.5-4.4 4.64-5.83a21.5 21.5 0 0 1 6.66-3.5q1.72-.5 3.5-.9z"/>
      <path class="cls-16" d="M644.18 34.85c2-3.9 4.75-7.08 9-8.68l2.56 3a13.55 13.55 0 0 0 .13 5.68 6.9 6.9 0 0 1-1.4 3.53 8.64 8.64 0 0 1-3.3 2c-4.6 1.02-5.17-3.04-7-5.53z"/>
      <path class="cls-95" d="M652.78 34.92c-1.1-3 .35-4.67 3-5.76l3.1 2.77c-1.07 3-3.3 3.58-6.1 3z"/>
      <path class="cls-16" d="M652.78 34.92l6.06-3 3.3 2.2-.78.8c-2.87 1.92-5.73 3.12-8.58 0z"/>
      <path class="cls-98" d="M546.45 43.42l-8.33-8.5C550.95 23 566.56 24.88 582 26.36c2.95.28 3.1 3.16 2.1 5.7-2.4 3.65-3.74 8.33-8.94 9.27-9.7-1.32-19.16.83-28.7 2.1z"/>
      <path class="cls-13" d="M573 35l11-2.9 3.12 11.3c0 3.3-1.74 5.46-4.52 6.94-6.66 4-13.74 6-21.54 4.53h-12c-4.53-8.94 3.6-11.72 8.33-14.84 4.3-2.94 9.7-5.62 15.6-5.03z"/>
      <path class="cls-14" d="M581.12 46.44l6.08-3.07c9.72-5.17 20.52-6.37 31.1-8.37l-2.83 8.4c-3.05 8.23-10.35 8.06-17.23 8.72-5.2-1.32-9.92-.15-14.3 2.77-4.16-1.8-6.2-4.2-2.82-8.5zm68.78-2.87c6.42 7.58 17.8 8.67 24 18.63-4.88 1.54-8.57-.32-11.65-2.58-10.55-7.75-23.25-12.37-32.33-22.18 4.76-.35 9.42 3.1 14.24.38 1.5.82 2.7 2 4.12 2.93l1.2 1.18z"/>
      <path class="cls-99" d="M647 43.47l-2.84-5.65v-3l8.63 3h1.2a2.08 2.08 0 0 1 1.6 1.6v1.22l-5.8 2.92a1.7 1.7 0 0 0-2.9-.1z"/>
      <path class="cls-85" d="M572.4 92c5.2 4.77 13.3 6.8 18.1 5.3 14.15-4.38 24.55 4.85 36.55 7.5 7 1.55 10.14 12.7 20 10.44 9.6 1 12.87 10.16 19.45 15.06 6.57 9.22 10.64 18.46.28 27.83-5.7 5-11.26-.43-16.9-.26-6.47-7.67-11.5-17.75-24.45-14.46-6.74-2.8-7.58-10.3-12-15-3.56-3.8-6-8.9-12.38-10.2.5 4 1.78 7.8 1.22 11.8-10.72 18.2-19.92 18-36.12-.7a31.56 31.56 0 0 0-6.15-14.9c-4.07-5.4-4.74-11.2 1-16.3l2.58-2.7c2.34-2.8 4.2-6.7 8.83-3.2z"/>
      <path class="cls-65" d="M446.1 97.9l8.76 2.76 8.66 8.82c4.2 7.27 3.86 18.3 16.36 18.77 2.4.1 3.78 4 3.87 7 .26 9.27 3.9 17.6 7.12 26.06.22 2.7.44 5.5-1.6 7.7a30.2 30.2 0 0 0-4.22 3.8c-13.43 17.2-17.43 20.3-36.38-1.7v10.2c-5.3 8-9.5 4.1-13.58-1.2-2-6.4-.6-12.6 1.6-18.6a24.6 24.6 0 0 0 1-6.3c1.8-7.9 2-15.7-1.1-23.4-2.5-2.3-6.3-1.6-8.7-4a7.8 7.8 0 0 1-2.5-6c.5-3 2.6-4.9 4.7-6.8a29.58 29.58 0 0 0 5.1-5.4c.6-1 1.2-2 1.7-3 .7-1.6 1.4-3.2 2.1-4.9a6.83 6.83 0 0 1 1.9-3c1.5-.8 3.1-1.7 4.9-.6z"/>
      <path class="cls-100" d="M569.54 126.6c9.56 3.5 19.08 17.4 28.7.1 4.4-7.67 5.82-8.36 11-3.3A39.48 39.48 0 0 1 620 140.26c3.8 13-3.27 17.84-21.58 15l-11.15-7.82c-.22 4.6-.75 7.83-.44 11 .67 6.75-2.65 10.86-8.3 13.45-6.4 2.9-9.5-1.4-12.75-5.9-1-1.4-3.12-2-4.73-2.9l-.33-1.4c.3-12 .3-12-10.15-18.1 13-.8 10.1-9.8 10.5-17.2 2.8-2.5 5.64-2.5 8.47 0z"/>
      <path class="cls-14" d="M598.4 155.3c2.25-1.7 4.3-4.37 6.8-4.92 14.1-3.1 10.93-11.14 2.74-15.46-4.38-2.3-1.24-12.58-9.68-8.2-4.8-5.33-13.46-12.1-8.42-17.94 4.9-5.67 12.37 3.2 18.34 6.24 9.42 4.8 12.4 15.3 18.52 23 3 2.2 7.7 3.2 5.92 8.64-4.8 4.7-.93 12.5-6.07 17.07-10.12 10.48-17.72 4.34-25-3.8z"/>
      <path class="cls-101" d="M489.28 169l-2.75-5c2.9-2.85 4.5-6.08 1.78-9.8-2.8-3.88-1.8-7.66-.3-11.6 1.4-3.67 3.2-6.86 7.7-7 3.9-.12 5.8 2.38 7 5.67a37.08 37.08 0 0 0 6.4 10.78c6.5 10.27 17.2 16.57 24.7 26a19.28 19.28 0 0 1-.6 4.3c-7 4.32-5.8 17.58-17.8 16.54-12-.7-18-7-17.3-19 .5-6.9-1.5-10.7-8.7-11z"/>
      <path class="cls-65" d="M529.5 180.66v-2.2c-7.7-14.85-4.2-26.58 8.6-28.87 7.4 3.6 16.12 6.1 15.16 17.4l7.42-5.2.33 1.4c-.6 11.7-2.6 22.4-17.2 24.1-6.5 1.4-11.6-.1-14.3-6.8z"/>
      <path class="cls-102" d="M721.13 138.17c1.2 8.62-8.1 6.93-11.18 11.35-11 3.3-19.8-3.74-29.64-6.1a8.35 8.35 0 0 1-3.1-3.3c-3.4-5.77-4.6-12.4-7.8-18.48-5.1-9.92 5.7-14.6 11.1-20.76a7.2 7.2 0 0 1 4.3-.18c9.8 14.77 22.7 26.48 36.4 37.47z"/>
      <path class="cls-16" d="M721.13 138.17c-16.35-.54-33.24-16.17-36.83-34.08.5-5 3.44-7.2 8.28-7 5.77 5.4 16.23 6.9 15.45 18 4.12 7.8 14.04 12.3 13.1 23z"/>
      <path class="cls-103" d="M708 115.06c-6.15-3.58-13.4-6-15.53-14 .32-5.08 4.86-6.06 8.1-8.3 7.08 1.1 14.53.72 20.9 4.94 1.08 10.1-5.47 14.3-13.47 17.36z"/>
      <path class="cls-104" d="M681.15 139.3a7.87 7.87 0 0 0 .27 1.73c.67 2.7-.95 4.28-2.84 5.72-4.54 3.16-4.8 10.75-11.8 11.34 4.46-9.9 1.67-18.2-5.42-25.7-4.22-3.1-9.6-6.2-3.7-11.9 4.8-4.7 9.8-.4 12.5 2.8 4.1 4.8 7.15 10.6 11 15.8z"/>
      <path class="cls-67" d="M529.5 180.66c5.82 0 8.3 7.13 14.3 6.74-10.88.36-16.4 14.1-28.5 11.46z"/>
      <path class="cls-105" d="M632.6 146.7l-5.9-8.65c14.8-1.72 17.88 10.32 23.16 19.77-6.86-1.95-9.58-10.4-17.25-11.13z"/>
      <path class="cls-67" d="M678.58 146.75l2.84-5.72 28.54 8.5c-11.17 7.1-20.96-2-31.38-2.78z"/>
      <path class="cls-80" d="M721.5 97.7c-6.96 1.32-13.2-2.16-19.86-2.87-4.16.2-9.8 2.78-8.7-5.43 10.44-1.66 21.9 7.53 31.54-3q1.4-3 2.38.17c2.14 5.65-3.26 7.6-5.37 11.14z"/>
      <path class="cls-106" d="M601.53 160c7.92 4 15.42 10.8 25 3.8-9 12.52-15.94 11.47-25-3.8z"/>
      <path class="cls-107" d="M726.86 86.6q-1.2-.1-2.38-.16l2.23-5.54z"/>
      <path class="cls-100" d="M503.68 155.35l-7.68-14.3c-2.46 9.5 4.13 21.1-9.43 23-4.7-5.27-9.06-10.37-9-18.37 0-5.47 1-12.08-9.58-11.7-6.8.25-9.7-18.32-4.4-24.48 7.7 2.23 14.5 8.8 23.6 4.67 1.2-.56 2.8-.4 4.2-.58 11.1-1.5 10.4-16.3 18-18.1 7.3-1.8 16.1 4.2 21.5-6.3 3.7-7.3 18.6-5.8 14-19.9 9 19.6-4.9 43.9-30 51.7 7.7 3.4 13.1 2.3 18.7 0 2.5-1.1 5.7-2.7 7.4.9 1.4 3-1.1 5.2-2.9 7.5a18.76 18.76 0 0 0-7.8 4.9c-1.8 1.4-3.5 3.6-5.9 3.7-10.4.3-14.7 6.1-15.2 15.7-1.8 1.4-3.7 1.5-5.7 1.4z"/>
      <path class="cls-72" d="M503.68 155.35l2.87-2.87c3.17-6.13 5.5-12.9 14.43-13 6-.1 5.66-6.7 8.72-9.92h8.4c-3.17 6.68-.65 13.36 0 20-7.06 8.37-6.15 19.1-8.6 28.86q-18.6-5.15-25.82-23.07z"/>
      <path class="cls-108" d="M569.54 126.6H561c-1.45-3.46-1.92-8.2-4.5-10.2-13.26-10.13-6.08-14.55 4.5-18.45-1.27 10.77 7.74 18.5 8.54 28.66z"/>
      <path class="cls-14" d="M581.12 46.44l2.8 8.44c-5.07 3.6-10.74 6.54-13.93 12.3 1.6 2.8 2.8 5.55-.8 7.8-9-4.2-.3-15.46-8.1-20.16a52.9 52.9 0 0 1 20-8.38z"/>
      <path class="cls-109" d="M573 35c-7.94 6.68-20.36 8-24 19.87-4.92-2.88-4-7.08-2.62-11.4 7.96-5.9 15.44-13.1 26.62-8.47z"/>
      <path class="cls-110" d="M569.2 75l.8-7.82c9.54 7.4 1.2 16.57 2.4 24.8l-8.76 3.27C564 88.08 564.74 81 569.2 75z"/>
      <path class="cls-78" d="M681.15 139.3c-6.07-2.52-11.77-5.32-15-11.72-1.53-3-4.84-4.9-8-2.22-.57.5 2 4.65 3.18 7.12-9.67-1.7-10.9-10.4-14.32-17.3 1.5-4 2.5-8.74 8.6-5.72 9.5.44 15.2-5.38 20.3-12.2 4.7-.65 6.7 1.17 5.8 5.93-11.8 11.8 1.8 24.1-.4 36.1z"/>
      <path class="cls-102" d="M618.38 60.73c8.07 6.68 1.57 20 12.94 26.4 3.56 2-3.12 4.76-6.76 4-12.1-2.55-21.18-16.33-19.7-29.22.25-2.2-.53-4.6-.83-6.9 9.4-9.6 11.65-1.3 14.35 5.8z"/>
      <path class="cls-111" d="M681.66 103.2c-.87-3-2.58-5.14-5.74-5.9-1.5-1.74-3.46-3.26-4.44-5.26-1.9-3.92-5.9-8.8-2.48-12.38 4.47-4.66 6.57 2.4 9.83 4.1 4.5 2.37 8.7 5.48 14.1 5.64l8.7 5.43a17.3 17.3 0 0 1-9.13 6.24l-8.2 3a13 13 0 0 0-2.64-.86z"/>
      <path class="cls-112" d="M655.65 109.48l-8.57 5.73c-3.35-4-8.93-6.4-6.07-13.9 1.3-3.3-2.2-8.5 2.8-11.1 4.4-2.3 8.2.3 11.7 2.6 4.8 3.1 3.1 7.2 1.5 11.3a41.9 41.9 0 0 0-1.3 5.5z"/>
      <path class="cls-113" d="M618.38 60.73C613.6 58.8 610 53.93 604 55l-5.8-2.85 17.24-8.72c2.62 6.9 10.3 7.7 15.17 12.26-2.6 5.6-8.9 1.7-12.2 5z"/>
      <path class="cls-114" d="M652.77 34.9h8.58l-5.7 5.7a32.78 32.78 0 0 0-2.94-2.92l.1.06V34.9z"/>
      <path class="cls-16" d="M647 43.47l2.9.08zm5.75-5.72l2.93 2.93zM529.7 129.53c.32 3.27 1.5 6.75.78 9.76-1.8 7.4-2.22 17.7-14.9 10.4-3.22-1.9-6.18 1.2-9 2.7-1.84-18.9-.07-20.7 23.12-23z"/>
      <path class="cls-115" d="M429 109.5l.27-5.74 5.67-.83-.43 1.28c2.8 3.8 2.3 6-2.9 5.7a13.24 13.24 0 0 0-2.6-.3z"/>
      <path class="cls-116" d="M394.48 218.5c4.8 1.56 11.58 7 8.86-5.1-.87-3.9 0-8.2.07-12.3 11.4 1.76 6.1 11.52 8.5 17.57 5.9 7.77 2.5 24-6.1 29.2a5.9 5.9 0 0 1-5.4-3.8l-5.6-5.62-5.6-11.78c4.5-.98 4.1-5.08 5.4-8.16z"/>
      <path class="cls-82" d="M383.2 241.27l-.26 6.42c-1.1-2.2-1.63-4.4.26-6.5z"/>
      <path class="cls-5" d="M403.37 264.3l.36 3c-11.67-6.2-6-14.9-3.38-23.2l5.86.15c12.4 8.55-.4 13.57-2.8 20.04z"/>
      <path class="cls-89" d="M429.16 229.88c10.3 8.25 2.1 16.9.54 25.4l-3.16.45-.44-.1a38.38 38.38 0 0 1-3.07-6.15c-.46-4.16.52-8.25-.56-12.56s.35-8.6 6.7-7.04z"/>
      <path class="cls-109" d="M426.1 250v5.6c-9.23-1.45-14.4 7.77-22.72 8.68l2.84-20.06 5.68-25.55 8.72 2.54c3.22 9.4 2.1 19.5 5.5 28.8z"/>
      <path class="cls-95" d="M426.1 250c-7.2-8.57-13.3-17.35-5.5-28.8l8.58-2.76c1.5 2.86 1.1 5.72 0 8.58v2.84c-3.5 6.35.82 13.87-3.07 20.14z"/>
      <path class="cls-117" d="M431.6 109.86l2.9-5.65 6.16 5.4-6 6.3z"/>
      <path class="cls-33" d="M426.7 117.8c-.1-3.06-.2-6.12 2.4-8.42z"/>
      <path class="cls-118" d="M394.55 195.4a11.9 11.9 0 0 1 .9-2.46l2.4 2.53z"/>
      <path class="cls-1" d="M356.07 150.33c6.67-12.08 1.7-28.85-11.26-37.92l-1.7.4a9.77 9.77 0 0 0-3 1.9c-2.2 2-4.3 4.2-5.4 7.1a37.68 37.68 0 0 1-2.4 5.2c-5 10.7 7.4 14.1 9 22a16 16 0 0 0 5 4.1 9.73 9.73 0 0 0 6.4 0 20.8 20.8 0 0 0 3.6-2.5z"/>
      <path class="cls-2" d="M349.47 57.9c-.06-5.75-1.07-11.56 1-17.18-.44-4.07-2.36-7.47-4.86-10.6-3.2-2.68-7-4-10.8-5.6a14.07 14.07 0 0 0-6-2.17c-3.1 0-5.7 1-7.4 3.76a12.47 12.47 0 0 0-1.1 4.2l-.5 4.3c-.3 3.6-1.6 7.1-1.4 10.7 8.3 9.5 16.1 20.3 31.2 12.6z"/>
      <path class="cls-3" d="M349.47 57.9c-9.16-5-19.66-7.4-27.78-14.4l-2-1.5a6.7 6.7 0 0 0-4.7.67c-4.9 9.86-.3 24.46 11 35 6.7 1.4 7-5.24 10.3-8.13 3.8-4.36 13.1-2.78 13-11.64z"/>
      <path class="cls-4" d="M369.75 206.9c3.13-10.8-3.53-20.7-2.8-31.3l-4.8-3.88-1.52-.57a9 9 0 0 0-4.48-2.5 6.94 6.94 0 0 0-5.38 1.84c-2.4 4.6-1.34 9.6-1.57 14.4 5.33 8.9 2 20.8 10.16 28.7 7.03 3.1 9.5-.6 10.4-6.8z"/>
      <path class="cls-5" d="M336.4 69.6l-9.52 3.6a7.1 7.1 0 0 0-6.94 5.8c-.1 7.24 1.47 14 6.1 19.75a34.68 34.68 0 0 0 3.27 3.12c1.8 1.3 3.4 2.86 5.6 3.52a4.7 4.7 0 0 0 3.9-1.6c2.4-3.6 5.1-7.9 1.2-11.2-8.2-7-4.1-15.1-3.6-23z"/>
      <path class="cls-6" d="M362 161.08l2.2-3.2-.72-1.07.67-1.1c-1.86-3.1-4.8-3.7-8.1-3.3a10 10 0 0 0-5.68 1.7 18.3 18.3 0 0 0-4 7 30.23 30.23 0 0 0-.24 4 8.46 8.46 0 0 0 1.77 5.6 6 6 0 0 0 3.62 1.2c1.74-.6 3.42-1.5 5.1-2.2a6.2 6.2 0 0 0 2.45-4.4l.62-1.5 1-1.3z"/>
      <path class="cls-7" d="M344.6 32.2c.34 4 2.17 6.9 5.9 8.52l-.2-.14a6.78 6.78 0 0 0 1.82-2.05 2.92 2.92 0 0 0-.16-2.67l-.12-1.37.6-1.3-5.35-6.1a2.1 2.1 0 0 0-2.8-1.8 5.1 5.1 0 0 0-1.7 3.4 7 7 0 0 0 1.9 3.3z"/>
      <path class="cls-8" d="M356.38 166.16l-3.43 3.25a1.86 1.86 0 0 0-.62 2.2q.45 1 .86 1l5.8.1c.4 1.6 1.3 1.8 2.6.9a7.86 7.86 0 0 0 .5-1.7q0-1.4-.2-2.8c-1.6-.6-1.7-2.4-2.8-3.4a2.87 2.87 0 0 0-2.8.7z"/>
      <path class="cls-9" d="M338.8 103.77H336a5.8 5.8 0 0 0-2.9 3.52 6.92 6.92 0 0 0 .94 4.5c3.28 3.1 6.56 4.3 9.82 0l.95.6z"/>
      <path class="cls-10" d="M347.5 35.32l2.8 2.4c.6 1.36 2 2 3 2.95 1.9-2.72 1.3-5.17-.8-7.44-.85-.37-1.7-.77-2.52-1.2a32.56 32.56 0 0 1-2.5 3.3z"/>
      <path class="cls-11" d="M353.6 154.9l2.44-2.53v-2a5.65 5.65 0 0 0-2.57-.6 3.67 3.67 0 0 0-1.92 2.66 3.22 3.22 0 0 0 2.05 2.46z"/>
      <path class="cls-12" d="M358.67 167l3.3 1.9-.28-5.3a2.5 2.5 0 0 0-3.5 0 2.62 2.62 0 0 0 .4 3.4z"/>
      <path class="cls-13" d="M353.25 40.68c.1-2.06-.9-3-3-2.95v2.85z"/>
      <path class="cls-14" d="M359 163.72h1.38l1.37-.15q.13-1.27.3-2.54l-3-.16q-1.14.93-.76 1.86t.7 1z"/>
      <path class="cls-10" d="M344.9 25.76a13.6 13.6 0 0 0 2.2 1.4l.33-3.7h-2.6q-.92.8-.58 1.56t.66.74z"/>
      <path class="cls-15" d="M364.16 155.7a5.37 5.37 0 0 0 .05 2.2 4.4 4.4 0 0 0 0-2.2z"/>
      <path class="cls-16" d="M335.88 20.8c-1.9-4.92-9-6.34-8.66-12.75-3.32-4.4-4.74-1.08-6.34 1.55a26.8 26.8 0 0 0-.5 7 13.18 13.18 0 0 0 1 4.43c1.77 2.88 5 2.92 7.73 3.8a17.75 17.75 0 0 0 4.3.72c2.2-.87 3.6-2.15 2.5-4.76z"/>
      <path class="cls-8" d="M335.88 20.8l-3.3 3a2.86 2.86 0 0 0 .13 3.3c3.2 4.07 7.7 2.76 11.8 2.83l.5-4.15v-2.32c-2.4-2.8-5.8-2.17-9-2.67z"/>
      <path class="cls-17" d="M318.78 0l-14 .6a5.16 5.16 0 0 0-2 3.58c-.35 3.48 1.5 5.23 4.66 6a16.84 16.84 0 0 0 4.23-.18c2.7-.85 5.32-1.9 8-2.83a9.14 9.14 0 0 0 2.93-3 3.25 3.25 0 0 0-1.15-3.6Q320.1.3 318.78 0z"/>
      <path class="cls-10" d="M321.45.56l.2 3.15q-1.82.9-3.63 1.9l-1.22 1.6a6.4 6.4 0 0 0 .33 4 6.85 6.85 0 0 0 3.3 2.3l2-.1 1.66-1.3 3.1-4z"/>
      <path class="cls-18" d="M369.75 206.9c-2.24 2.27-4.4 4.7-8.13 3.52-6.05 0-6.06 6-9 9.08a15.66 15.66 0 0 0-.72 5.55 15.4 15.4 0 0 0 .6 3.6 25.12 25.12 0 0 0 1.85 3.17l1 1.6s.64 1.08 1 1.63l1.92 3.46a5.13 5.13 0 0 0 5.54 1.9c10.7-2 5-10.4 6.5-16.1z"/>
      <path class="cls-19" d="M370.18 224.28c-4 4.2-1.7 11.7-7.8 14.8-1 2.28-.37 3.24 2.16 2.64 6.17.07 9.1 5.9 14.12 8 .2-9.5-5.57-17-8.48-25.44z"/>
      <path class="cls-20" d="M344.56 146.66c.12-7.18-8.54-11.74-5.9-19.68-2.3-3-4-6.7-8.47-7.1a15.43 15.43 0 0 0-4.7.37 9.12 9.12 0 0 0-3.8 2.8c-2.5 5.77-5.6 11.38-4.2 18 .5 4.37 3.8 6.46 7.1 8.6a13.8 13.8 0 0 0 4.1 1.6c5-2.25 12.1 2.42 15.6-4.6z"/>
      <path class="cls-21" d="M344.56 146.66c-4.9 2-9.86-7.27-14.7.1-1.74 6.37-4 12.74.38 19a9.16 9.16 0 0 0 4.48 1.94c3.4.22 6.15-1.37 8.73-3.32a11.23 11.23 0 0 0 2.68-6.1c.52-2.86 1.4-5.67 1.48-8.6z"/>
      <path class="cls-22" d="M330.63 123.74l8 3.25v-3.3c-.7-2-.62-4.1-1.17-6.1a7.23 7.23 0 0 0-3.65-5 6.48 6.48 0 0 0-4.3.2 6.38 6.38 0 0 0-2.6 3.4 6.92 6.92 0 0 0 .7 4.2 16.33 16.33 0 0 0 3.1 3.1z"/>
      <path class="cls-23" d="M336 121l2.62 2.78c1.07-3.56 6.2-4.44 5.9-8.9-1.86-1.32-4-1.14-6.08-1-2.53 1.75-3.77 3.98-2.44 7.12z"/>
      <path class="cls-24" d="M347.62 149.65c-3.06.54-5.8 1.4-5.74 5.3a6.6 6.6 0 0 0 2.9 2.45c3.77.32 5.65-2.54 7.9-4.75l.82-2.92z"/>
      <path class="cls-25" d="M339.13 115.3l5.4-.44-.67-3.08-7.5-2.7a4.2 4.2 0 0 0-2.05 3.65c.9 2.2 2.1 3.84 4.9 2.56z"/>
      <path class="cls-26" d="M344.44 29.9l-10.83-3.74q-2.8 1.27-.4 3.26c3.2 3.55 7.4 2.8 11.5 2.76q-.1-1.13-.1-2.27z"/>
      <path class="cls-27" d="M321.7 43.5c3.8-2.2 3-5.68 2.57-9.08-1.06-1.63-1.75-3.58-3.83-4.32a6 6 0 0 0-3.77.9 6.74 6.74 0 0 0-1.67 3.5c-.1 2.93 1.37 5 3.75 6.45a26.4 26.4 0 0 1 2.94 2.57z"/>
      <path class="cls-28" d="M330.74 23.74l-5.8-3.33a5.7 5.7 0 0 0-5.7 2.6 5.73 5.73 0 0 0 1 6.2 3.18 3.18 0 0 0 4 .4l5.27-3.1q1.8-.3 1.7-1.4c0-.9-.2-1.3-.4-1.3z"/>
      <path class="cls-29" d="M330.74 23.74l-1.2 2.7 3.6 3 .46-3.27-1-2.4q-.94 0-1.86-.03z"/>
      <path class="cls-30" d="M324.26 29.52l-2.82-.65a2.17 2.17 0 0 0-2.77.2 2.1 2.1 0 0 0 .47 2.7 23.34 23.34 0 0 0 2.54.28 1.37 1.37 0 0 0 2.4.28 12.13 12.13 0 0 0 .18-2.8z"/>
      <path class="cls-31" d="M324.06 32.34l-2.4-.28 2.6 2.36a5.12 5.12 0 0 0-.2-2.08z"/>
      <path class="cls-14" d="M284.44 14.88c-10.46 18.9-5.5 37.28 2.42 55.26 2 4.47 3.7 8.6 3.24 13.48-1.48 2.15-.74 4 .83 5.65 3.9 2.3 7.62 1.33 11.25-.65 1.05-.44 2.13-.9 3.2-1.28a17.14 17.14 0 0 1 4.92-.45 33.57 33.57 0 0 0 6.92.8 7.6 7.6 0 0 0 3.48-1.3 15.28 15.28 0 0 0 3.5-6.9c.9-2.1 1.8-4.2 2.68-6.4-1.48-10.3-8.77-18.9-8.1-29.7a2.5 2.5 0 0 0 1.08-2.9c-1.16-1.9-2.55-3.8-2.5-6.2a17.9 17.9 0 0 1 .44-5 42.9 42.9 0 0 1 1.68-4.9 18.75 18.75 0 0 0 1.1-3.4c.3-3.47-2.42-5.4-4-8l-1.4-1.3-1.7-.9a20.84 20.84 0 0 0-3.84-.54c-2 0-3.94-.06-5.92 0-6.84-.5-12.93 2.45-19.28 4.27z"/>
      <path class="cls-2" d="M318.7 41.34q0 1.12.08 2.24l2.9-.06v-2.64q-1.9-2.53-3 .46z"/>
      <path class="cls-7" d="M356.06 221.3a14.26 14.26 0 0 0 5.56-10.88c-1.6-9.14 3.2-20.14-7.73-26.57a17.24 17.24 0 0 0-3.4-3 10.28 10.28 0 0 0-4.4-.73 8 8 0 0 0-4 1.64c-8.1 14.82 1.6 25.92 7.8 37.73a7.8 7.8 0 0 0 6 1.8z"/>
      <path class="cls-32" d="M350 183.92l3.9-.07a12.6 12.6 0 0 0-.7-11.32l-.23-3.12-2.1.1c-1.9-.3-3.73-.9-5.67-1a14 14 0 0 0-3.86.6 6.83 6.83 0 0 0-2.72 2.8 6.2 6.2 0 0 0 1 5.5 11.6 11.6 0 0 0 2.93 2.2c1.1.5 2.2.9 3.28 1.4a10.3 10.3 0 0 1 4.17 3z"/>
      <path class="cls-19" d="M361.63 173.5a12.1 12.1 0 0 0-2.63-.85l1.6 3.14z"/>
      <path class="cls-33" d="M324.2 79.57l-5.1 3.92c-1.63 1.7-3.34 3.2-6 2.7-3.64-1.2-7.27-1.6-10.9 0a16.94 16.94 0 0 0-3 2.6 8.94 8.94 0 0 0-1.62 3.7 23.77 23.77 0 0 0 .07 4.2 9.08 9.08 0 0 0 1.9 3.7c1.72 1.3 3.82 1.8 5.82 2.5a24.48 24.48 0 0 0 10.23 2 68 68 0 0 0 8.2-.3 9 9 0 0 0 5-3.1l1.1-1.7.33-2c-3-5.9-5.4-12-6.02-18.6z"/>
      <path class="cls-34" d="M336 106.52v-2.75L333 98c-2.24 2.44-3.3 5-1.1 8.08a3.3 3.3 0 0 0 4.1.44z"/>
      <path class="cls-35" d="M333 106.82q0-4.4.1-8.82-1.4.06-2.77.16l-.35.06c-1.8 2.14-3.23 4.38-2.07 7.35a4.88 4.88 0 0 0 3.3 2.1z"/>
      <path class="cls-36" d="M344.38 155.6a16.56 16.56 0 0 1-2.5-.64l-.16 5.9c.3 3.1 2.08 4.73 5.13 5.07a8 8 0 0 0 3.5-1.8l.5-3.43c2.44-7.5-2.02-6.3-6.47-5.1z"/>
      <path class="cls-37" d="M344.38 155.6c2 1.85 6.6.5 6.46 5.1l2.77-5.8a14 14 0 0 0-.9-2.25z"/>
      <path class="cls-4" d="M350.34 164.14l-2.9-.45c-3.26 2.9-2.6 5.8-.1 8.8l3.5-3.1-.5-5.4z"/>
      <path class="cls-38" d="M359 163.72v-2.8l.1.23a2 2 0 0 0-2.93-.28l.25 5.3q1.14.46 2.3.87z"/>
      <path class="cls-2" d="M356.13 160.87l2.93.28z"/>
      <path class="cls-39" d="M347.5 35.32c1.5-.58 2.8-1.3 2.44-3.28z"/>
      <path class="cls-40" d="M336 106.52l-3.1.3h-.05a4.62 4.62 0 0 0-.68 5.83 3.16 3.16 0 0 0 3.85 0l.3-3.54q-.12-1.3-.32-2.5z"/>
      <path class="cls-41" d="M284.44 14.88c6.73 1.67 13.44 2.47 20.06-.47a5.1 5.1 0 0 0 1.72-3.3c-3.5-6.8-8.8-2.6-13.48-2.2l.45.3a2.4 2.4 0 0 1-2.9.6c-3.4.3-5.1 2.2-5.9 5.2z"/>
      <path class="cls-42" d="M292.73 8.87l11.86 3.72a6 6 0 0 0 6.1-.5c1.3-2.1 1.2-4.1-.8-5.7l-5.5-3.1a1.8 1.8 0 0 0-2.8-.5c-3.7 1-7.2 2.2-9 6z"/>
      <path class="cls-10" d="M301.66 2.87a12.25 12.25 0 0 0 2.8.42 11.9 11.9 0 0 1 .36-2.7z"/>
      <path class="cls-43" d="M290.3 9.7l2.87-.56z"/>
      <path class="cls-44" d="M310 6.4l-.47 5.2.72 1.6a8.46 8.46 0 0 1 2.84 1.8l-.2-.3q1.2.92.8 1.9t-.7 1l5.6 5.85a1.68 1.68 0 0 0 2.8 0l3.3-3.12-.6-2.92c-2.1-1.4-1.3-3.6-1.5-5.6a2.1 2.1 0 0 0-1.7.1 16.9 16.9 0 0 0-2.7-2c-1.2-1.3-1-3.2-2.2-4.5a4.9 4.9 0 0 0-4.9.2z"/>
      <path class="cls-45" d="M322.87 11.86c-1.9 2.5-3 4.77 1.45 5.63l-.23-5.5z"/>
      <path class="cls-46" d="M311.42 5.67l4.84.93 1.93-.18 1.2-.26a1.75 1.75 0 0 0-.4-2.6z"/>
      <path class="cls-47" d="M319 3.55a5.6 5.6 0 0 0 .4 2.6l2.26-2.44a14.08 14.08 0 0 0-2.66-.1z"/>
      <path class="cls-48" d="M318.2 6.4q-1 .07-1.94.2l2.87 4.82a1.6 1.6 0 0 0-.3-2.5 6.75 6.75 0 0 0-.64-2.5z"/>
      <path class="cls-49" d="M318.84 8.9q.2 1.26.3 2.53 1 .3 2 .53c.55-2.02-.88-2.54-2.3-3.05z"/>
      <path class="cls-50" d="M355.65 247.36l3-.32c4.95-4.7-.46-9.6.3-14.4 0-2.4-1.4-4-3-5.52h.1c-1.15-1.75-1.7-3.94-3.83-4.95a5.88 5.88 0 0 0-4.16.52c-4.6 4.7-3.82 10.3-2.42 16a29.3 29.3 0 0 0 1.43 3.8c1.6 2.4 4.22 3.3 6.67 4.4z"/>
      <path class="cls-51" d="M356.3 232.55l2.33 14.5 5.9-5.33-2.15-2.64-.46-5.8a3.26 3.26 0 0 0-2.47-2.26 5 5 0 0 0-3.14 1.53z"/>
      <path class="cls-52" d="M359.12 232.73a20.5 20.5 0 0 1 2.8.54l2.3-3.8-.73-1 .7-1c-1.7-2.45-3.6-1.6-5.5-.4-1.4 2-1.8 3.93.4 5.66z"/>
      <path class="cls-34" d="M353.2 224.22l2.77 2.94q0-2.94.1-5.88l-2.4-3-1.63 1a3.92 3.92 0 0 0 1.16 4.94z"/>
      <path class="cls-34" d="M359.12 232.73l-.4-5.66q-1.43 0-2.84.05.2 2.7.43 5.42 1.5.12 2.9.2z"/>
      <path class="cls-53" d="M364.2 227.46a1.2 1.2 0 0 0 0 2 3.08 3.08 0 0 0 0-2z"/>
      <path class="cls-3" d="M276.13 215.56c7.3-8.18 3.38-20.68 11-28.73 3-2.8 3-5.6 0-8.42-2.27 2-4.67 3.7-8 2.8-.72 11.5-5.66 22.6-3 34.4z"/>
      <path class="cls-54" d="M327.44 146.7l-6-6.47c-3.3-4.5-5.18-10.92-12.9-9.2a7.3 7.3 0 0 0-4.92 4.22c-5.34 10.64 2.7 19.9 3.14 30 2.06 5.2 5.2 8.86 11.42 8.3a8.18 8.18 0 0 0 6.37-4.15c3.75-7.23 4.02-14.88 2.9-22.7z"/>
      <path class="cls-55" d="M327.44 146.7c-5.63 5.6-6 12.72-5.8 20 1.25 5.64 4.66 7.5 10.12 5.77 3.83-2.5 4.07-5.73 1.87-9.43-1-5.47.37-11.5-3.78-16.26q-1.2-.07-2.4-.08z"/>
      <path class="cls-56" d="M310.07 135.43c1.24 1.28 3.44 2.46 3.58 3.85 1.26 12.43 4.8 4.05 7.8 1L325.2 124l-.28-1.8a6.2 6.2 0 0 0-2.67-2.44l-3.53-1.4c-1.84-.76-3.66-1.56-5.48-2.37-2.74-1.2-5.45-1.9-8.07.2-3.66 7.7-3.02 14.3 4.9 19.1z"/>
      <path class="cls-57" d="M330.1 121.1l.16-2.9a4.8 4.8 0 0 0-4-1.65c-3.57 1.57-4.27 3.95-2 7.17l1 .27c.76-.1 1.52-.2 2.28-.2a19.44 19.44 0 0 0 2.56-2.7z"/>
      <path class="cls-58" d="M330.1 121.1l-2.64 2.7 3.17-.06a5.55 5.55 0 0 0-.53-2.64z"/>
      <path class="cls-59" d="M347.33 172.56l.12-8.87-5.73-2.9-5.87 3.4c-3.9 9.1 3.54 7.2 8 8.2z"/>
      <path class="cls-60" d="M343.84 172.5c-2.56-2.84-7.14-3.7-8-8.2a4.26 4.26 0 0 0-2.22-1.27l-3.18 6.82c-2.3 7 2.23 7.72 7.3 8 2.42-.9 3.23-3 3.9-5.23l1.1-.1z"/>
      <path class="cls-61" d="M333.5 111.88l-.6-5.1q-1.36 0-2.7-.16l-1.68-1.33a6.36 6.36 0 0 0-4.17.2 6.63 6.63 0 0 0-2.6 3.3c0 .7-.06 1.4-.1 2.1a5.88 5.88 0 0 0 2.44 3.4 15.5 15.5 0 0 0 6.3.5 12.63 12.63 0 0 0 2.6.5q2.2-1.6.4-3.6z"/>
      <path class="cls-48" d="M333.5 111.88l-.42 3.6c.36 2.16.62 4.37 2.94 5.5l3.12-5.7-3.07-2.66q-1.3-.32-2.57-.74z"/>
      <path class="cls-62" d="M330.46 115c-1.1-2.48-3.5-2.5-5.66-2.94-2.3 3.5.17 4.68 2.83 5.74a9.9 9.9 0 0 0 2.63.43z"/>
      <path class="cls-63" d="M318.7 41.34l3-.46-3-5.4q-1-3.9-2.77-.27c.18 2.4.52 4.7 2.76 6.2z"/>
      <path class="cls-64" d="M316 35.2a14.9 14.9 0 0 1 2.76.28q.2-1.84.38-3.7a20.9 20.9 0 0 1-.45-2.7l-1.5-1-1.4 1.1z"/>
      <path class="cls-65" d="M321.58 23.53a8.28 8.28 0 0 0-2.83 0l.16-.17c-1.9 2-1.8 4 0 6l-.1-.22a13.72 13.72 0 0 0 2.8-.22l.2-5.4z"/>
      <path class="cls-66" d="M292.2 86.3l.76 3.12a5.45 5.45 0 0 0 3.15 2.5c2.3.2 4-1 5.5-2.5v.07c2.9-3.3 8 .3 10.7-3.7 1.3-2.5-.4-5.2.6-7.7-4.8-3.3-8.1 0-11.4 2.7l.2-.2c-2.6 2.5-5.4 5-9.3 5.5z"/>
      <path class="cls-67" d="M318.5 91l.6-7.47a5 5 0 0 0-2.1-.34 3.3 3.3 0 0 0-4.73.6c-1 3.6-1.84 7.3 2.32 9.4 1.8.9 3.4-.2 3.9-2.3z"/>
      <path class="cls-68" d="M313.5 83.6l3.5-.45-4.15-5-2 4.75q.53 3.5 2.66.7z"/>
      <path class="cls-69" d="M318.82 29.32l.08-6c-3.37.75-3.6 3.1-3 5.87z"/>
      <path class="cls-32" d="M309.5 11.6l-4.9 1q0 .93-.1 1.83l5.5.57q1.27-.57 1.16-1.5t-.46-1z"/>
      <path class="cls-70" d="M310.73 12.44q-.4 1.26-.7 2.56l3.07.06z"/>
      <path class="cls-46" d="M313.1 17.67l-.16-2.92q.06 1.46.17 2.92z"/>
      <path class="cls-42" d="M353.66 218.3c-4.5-10.9-10.36-21.43-9.25-33.87a5.85 5.85 0 0 0-.9-4.33 6.66 6.66 0 0 0-4.1-1.8c-7-1-13.8-1.73-17.7 6.17a6.66 6.66 0 0 0 .3 4.25 39.35 39.35 0 0 0 4 4.52 34.76 34.76 0 0 1 2.8 5 13.22 13.22 0 0 0 2 3.43c8.1 3.66 6.9 12.62 10.8 18.7 2 2.1 4.3 3.36 7.3 2.43 2.3-.54 3.3-2.22 4.2-4.14z"/>
      <path class="cls-71" d="M342.1 180.9l2.3 3.53 3.32-.4c1.44-2.05 1.4-4-.4-5.86l.24.28a3.7 3.7 0 0 0-2.9-1.2 3.32 3.32 0 0 0-2.56 3.64z"/>
      <path class="cls-2" d="M347.32 178.17l.4 5.87q1.14-.1 2.27-.12z"/>
      <path class="cls-67" d="M342.1 180.9l2.75-2.95q.93-1 .48-1.78t-.8-.76l-2.87-2.8-3.44 2.8c-1.42 3.4 1.77 4.2 3.38 5.9z"/>
      <path class="cls-72" d="M344.52 175.42a8.3 8.3 0 0 0 .33 2.54 14.1 14.1 0 0 0 2.72.5z"/>
      <path class="cls-73" d="M316 100.87l-8.33-2.93c-1.75 1.48-3.27 3.1-3.43 5.57.37 3.3 2.85 5.2 4.88 7.3a35.12 35.12 0 0 0 4.94 4.4 8.14 8.14 0 0 0 4.2.8l2-.6 1.57-1.4a8 8 0 0 0 1.1-4c.78-5.3-3.67-6.7-6.93-9z"/>
      <path class="cls-74" d="M313.5 83.6l-2.67-.66-9.25 6.55c5.73-.7 10.73 7.1 16.9 1.4-6.07.5-5.14-3.7-4.97-7.4z"/>
      <path class="cls-40" d="M316 100.87l5.92 8.6q1.4 3.2 2.88 0l2-3c.13-2.23.45-4.52-2.2-5.66z"/>
      <path class="cls-45" d="M307.63 103.74l.06-5.8L302 97a5.7 5.7 0 0 0-3.58 2.92 10.4 10.4 0 0 0-.38 4.7 6.54 6.54 0 0 0 4.8 4.76 6.7 6.7 0 0 0 4.44-1.3 3.47 3.47 0 0 0 .35-4.34z"/>
      <path class="cls-75" d="M324.58 100.82c-.52 2.38-.38 4.5 2.2 5.66a10.6 10.6 0 0 0 1.48.3 13.2 13.2 0 0 0-.2-8.46z"/>
      <path class="cls-76" d="M328.07 98.33l.2 8.44q1-.1 1.93-.15l-.27-8.4a14.46 14.46 0 0 1-1.86.1z"/>
      <path class="cls-77" d="M301.17 101.64L302 97a16.13 16.13 0 0 1-.38-2 3 3 0 0 0-3.68-.47 5.9 5.9 0 0 0-1.3 3.83c.67 2.28 2.06 3.53 4.53 3.28z"/>
      <path class="cls-78" d="M299 95.47a25.64 25.64 0 0 1 2.6-.47 20.34 20.34 0 0 0 0-2.78c-1.87-1.9-3.78-1.5-5.7-.1-.66 2.74.1 4.1 3.1 3.35z"/>
      <path class="cls-79" d="M295.77 92.1l5.82.16V89.4h-6l-1 1.42z"/>
      <path class="cls-80" d="M301.17 101.64l-2.72-3.5c-2.44-1.68-4.22-5.08-8.08-3.16l-3.55.26c-1 2.8.44 5.17 1.23 7.67a10.18 10.18 0 0 0 4.4 4 7.62 7.62 0 0 0 5.95 0 10.23 10.23 0 0 0 2.64-3.1 10.75 10.75 0 0 0 .13-2.1z"/>
      <path class="cls-75" d="M290.37 95l8.08 3.17q.34-1.33.58-2.7l-3.26-3.35.3.1c-2.04-1.8-4-1.65-6 .22a18 18 0 0 0 .3 2.56z"/>
      <path class="cls-81" d="M290.4 100.6l-3.58-5.35-5.06 2.64 2.76 2.8a4.54 4.54 0 0 0 3 1.9 3.85 3.85 0 0 0 2.87-2z"/>
      <path class="cls-20" d="M290.14 92.43l6-.22q-.3-1.3-.53-2.7h-2.5z"/>
      <path class="cls-82" d="M349.8 221.57l-5.6-3c-6.3-2.85-7.35 3.4-10.5 6-4.4 4.1-5.92 9-3.9 14.78 4.06 4.1 6.7 11.57 14.74 6.16 2.38-1.9 3.7-4.7 5.75-6.9 3-4.7.6-9.5 0-14.2q2.4-1.8-.6-2.7z"/>
      <path class="cls-83" d="M350.28 238.6l-5.58 2.64-.54 2.2c-1.14 2-2.64 3.78-2.54 6.25 1.55 4.3 3.85 6.8 8.48 3.3l3.3-6.4c1.28-2.9-1.1-3.7-2.78-4.9z"/>
      <path class="cls-73" d="M350.62 241.72l2.77 4.87 2.6.8a8.06 8.06 0 0 0-5.5-5.7z"/>
      <path class="cls-84" d="M349.8 221.57q.3 1.4.53 2.8l2.86-.15-.4-5.55z"/>
      <path class="cls-76" d="M327.6 186.9l-3.1-.05c-.88-6.06 3.48-13.8-5.56-17.23a14.9 14.9 0 0 1-5.93-8.5c-9.3-11.9-18.2-11.9-28.6 0 2.4 5.55 3 11.37 2.8 17.32v8.42l.1 20.06c3.3 5.2 4.9 11.47 10 15.42 3 2 5.9 4 9.8 3.14 3.6-.36 6.7-2.17 9.9-3.5 5.4-4.35 4.1-12.75 10-16.76a7.1 7.1 0 0 0 1.7-3.45c-.3-4.97 2.1-10.1-1-14.87z"/>
      <path class="cls-80" d="M284.38 161.1c9.54-1.12 19.1-3.84 28.63 0 1.4-8.45-6.1-14.67-5.7-22.86-1.3-6.7-7.4-9.72-11.4-14.38h-11.5c-3.2 10.47.8 20.92.1 31.38z"/>
      <path class="cls-85" d="M295.87 123.9c-4.26 11.16 2.3 13.77 11.4 14.37l2.8-2.84c3.9-6.45-1.86-11.63-2.3-17.5 2.54-3 1.6-5.26-1.37-7.17-3.5-.76-5.28 1.2-6.5 4.07a13.43 13.43 0 0 0-1.16 6.08z"/>
      <path class="cls-86" d="M284.4 155.24c4.42-10.47 0-20.92-.06-31.38-4.34 10.47-3.86 20.93.06 31.38z"/>
      <path class="cls-87" d="M298.74 120.9l3.14-3.32-.18-1.95a31.67 31.67 0 0 0-.5-5.86 7.3 7.3 0 0 0-2.9-2.6 8.16 8.16 0 0 0-3.92.3c-2.46 1.62-3.18 4.13-3.46 6.86a9.16 9.16 0 0 0 1.9 3.47z"/>
      <path class="cls-66" d="M290.4 100.6l-3.33.28a24.55 24.55 0 0 1-2.8 2.43c-1.53 2.4.15 4.3.74 6.4l1.4 1.2 1.8.4c2.7-.4 3.9-2.4 4.8-4.7a18.8 18.8 0 0 0 0-3.5z"/>
      <path class="cls-25" d="M292.8 117.8l.4-2c-.6-3.4-.06-7.9-6-6.24v-.07a10.08 10.08 0 0 0-2.37 2.4c1.7 3.3 3.9 5.8 7.97 5.9z"/>
      <path class="cls-63" d="M284.9 111.9l2.35-2.42q-1.1.14-2.23.18a3.52 3.52 0 0 0-.13 2.24z"/>
      <path class="cls-88" d="M284.27 103.3l2.8-2.43-2.55-.18q-.15 1.3-.25 2.6z"/>
      <path class="cls-89" d="M287.32 224.22c7.37-13.5 6.78 5.22 11.4 2.82 3.3-2.87-.2-5.72 0-8.58-2.48-5.16-5.37-9.93-11.43-11.56-2.4 5.77-.6 11.54 0 17.32z"/>
      <path class="cls-87" d="M318.94 169.62c1.65 5.8-2 13.33 5.57 17.23a33.28 33.28 0 0 1 17.1-5.62l-3.4-5.87-7.7-5.5-8.8-3.17z"/>
      <path class="cls-90" d="M304.64 112l3.1 5.92 4.1 3.17a3.78 3.78 0 0 0 3.4-1.3 5.06 5.06 0 0 0-.3-5.6c-2.12-3.3-3.95-6.9-8.14-8a10.22 10.22 0 0 0-2.28.3c-1.98 1.8-1.74 3.6.12 5.4z"/>
      <path class="cls-91" d="M318.68 112.35q-1.1-.37-2.18-.78c-4.22 2-.38 6.85-3.32 9.3l-1.35.22c2 2.1 4.28 3.5 7.37 2.4 3.02-3.9 3.04-7.6-.52-11.2z"/>
      <path class="cls-92" d="M327.63 117.76L324.8 112h.28q-1.58-1.63-2.67.36h-1.1a15.5 15.5 0 0 0-.1 11.4h3.1z"/>
      <path class="cls-80" d="M321.13 123.72l.13-11.4h-2.58l.52 11.17a17.18 17.18 0 0 1 1.93.2z"/>
      <path class="cls-93" d="M322.4 112.35l2.66-.36a7.73 7.73 0 0 1-.25-2.5H322z"/>
      <path class="cls-14" d="M301.52 80.8l1 .68-1.13-.55z"/>
      <path class="cls-94" d="M338.74 226.67l5.47-8.1c-1.1-7.86-1.3-16.26-10.8-19.56-7.6 4.4-3.5 11.9-4.6 18 .5 6.3-1.4 14.8 10 9.8z"/>
      <path class="cls-4" d="M333.4 218.5v-19.48q0-1.92-.07-3.84l-1.2-1.4a5.6 5.6 0 0 0-3.57-.28c-3.37 1.52-1.68 5.74-4.13 7.75v-.15c-5.36 5.22-2.55 12.77-5.3 18.84-1.25 2.75.7 5.66 3.9 6.3 6.15 1.23 7.78-3.98 10.37-7.73z"/>
      <path class="cls-37" d="M324.43 201.25l5.6-5.78c1.46-1.18 3.46-1.66 4.5-3.4.92-2 .2-3.67-1.26-5.1l-5.68-.07c-4.5 4.03-3.9 9.18-3.2 14.35z"/>
      <path class="cls-36" d="M333.27 187l-.83 6a1.6 1.6 0 0 0 .9 2.45v-.2c5.17-2.85 7.95-5.6-.07-8.25z"/>
      <path class="cls-47" d="M313.18 120.87l3.32-9.3c-.46-2-.6-4.3-3.27-4.86-2.8 2.5-1.7 5.3-.64 8.1z"/>
      <path class="cls-94" d="M312.6 114.78l.64-8.07-5.6-3a15.68 15.68 0 0 0-.83 2.5z"/>
      <path class="cls-76" d="M304.64 112l-.12-5.44-3.52-2.78h-2.42c-1.7 2-1.7 3.92.27 5.75l-.1-.14c2.42 2.3.4 6 2.4 8.4l.68-.2z"/>
      <path class="cls-95" d="M98.1 23c-7.65 2.2-16.07-1.3-23.4 3.18a68.2 68.2 0 0 0 4.42 11.14 13.9 13.9 0 0 0 2.05 3.34c5.36 6 11.62 3.84 17.84 2 3.8-.77 7.5 1.5 11.3.23 11.6-4.2 21.4 6.8 32.8 3.9 2.7-3.3 6.6-5.6 7.3-10.2 7.8-12.8 17.5-3.9 26.4-2.3 3.8.7 7.1 3.4 10.8 4.9 4.2 6.8 5.8 15.4 14.9 18.7 6.4 2.3 10.9 2.5 13-5.1a5.05 5.05 0 0 0-2.1-3.8c-1.4-14-10.8-22.8-20.7-31.3-5-7.5-13.2-6.8-20.4-7.2C146.6 9.1 122 13.8 98.1 23z"/>
      <path class="cls-96" d="M98.1 23c28.73-4.6 56.9-15.42 86.7-8.08a68.3 68.3 0 0 1 7.8 2.92c-7.34-13.8-20.94-8.84-32.1-10.1-8.24-.92-16.8.9-25.2 1.48-7.63 4-16 5-24.33 6.26-5.22.8-9.97 2.7-12.88 7.52z"/>
      <path class="cls-55" d="M238.16 66.62c-11.12-.33-15.7-11.87-25.32-14.77-12.58 1-15.3-11.4-23.07-16.92-7.48-4.26-10.37.7-12.9 6.38a22.85 22.85 0 0 1-4 5.9c-2.1 2.7-5.5 1.7-8.15 2.8-11.18 5.7-7.6 17.1-10.28 26.1 3.84 6.2 6.1 12.7 5.3 20a8.37 8.37 0 0 0 2.3 5.8c5.75 2.6 12 4.5 4.8 12.6a19.48 19.48 0 0 0-4.84 12.4c-1.37 7.3-3.5 14.3-3.48 21.8 0 6.2 2.23 10.7 7.77 13.5 10.2 14.6 10.1 14.6 20.6-3a35.06 35.06 0 0 1 6.2-8 107.48 107.48 0 0 1 6.2-18.2c2.9-4.9 8.1-4.1 12.6-5.2 3.9-1 6.8-3.6 6.7-8-.1-3.7-2.4-5.7-5.6-7.5-15.7-8.5-15.6-8.6-26.7-23.6 8.5 11.68 8.5 11.74 25.4 17.16a14.06 14.06 0 0 1 7.9 5.7c7.8 12.1 21.7 10 33 13.9 3.2 1.1 6.8-1.5 7.3-5.2.6-4.7 4-6 7.2-7.8 3.2-3.72 9.2-5.2 9.2-11.5-2.8-7-14.1-5.63-14.7-14.9-2.8-4.4-5.7-8.53-11.9-7.8-4.7 1-7.1-1.8-8.9-5.55z"/>
      <path class="cls-97" d="M261.83 85.63c-.46 8.13 5.08 11.8 11.2 15 2.2 4.17 5.55 2.08 8.6 1.56a45 45 0 0 0 7.37-2.6 12.5 12.5 0 0 0 3.4-1.8 9.9 9.9 0 0 0 2-3.3c.7-1.8 1.34-3.7.6-5.6a12.3 12.3 0 0 0-2.74-2.7l-2.1-2.7c-9.32 2.9-18.07 13.1-28.33 2z"/>
      <path class="cls-15" d="M241.08 72.27c-2.05 1.5-8.73 1.33-2.53 6 4.7 3.53 5.67 8.5 8.07 14.06l3.38-14.5c-2.36-2.83-5-5.17-8.92-5.56z"/>
      <path class="cls-16" d="M57.85 37.62C39.32 51.27 16.8 58.75 0 75.08l1.17 5.82c1.36 2.67.27 5.8 1.63 8.47 7.62 11.73 19.6 5.4 29.6 7.1 5.72-.55 12-3.1 15.7 4.22a84 84 0 0 0 12.4 12.9c4.77 3.9 9.9 5.1 14.72-.2 1.12-1.3 1.68-3.1 3.22-4.1-.3 1.8-1.32 3.4-1.16 5.3a7.3 7.3 0 0 0 2 3.5c7.78 4.5 14.55 3.7 22.52-1.3 14.1-8.8 28.94-16.7 46.84-13.8 7.92 1.3 11.6-2.7 11-10.7 1.25-8.7-7.47-17.4-.05-26-.5-8.7-6.5-12.6-13.3-15.8-5.8-3.8-12.3-5.1-19-5.4-3 .8-4.6 3.2-6.5 5.3-6.5 10.2-5.3 23.3-12.3 31.7 1.3-6.46 6.3-13.37 6-21.8-4.4-6.4 4.2-11.78 1.5-18-1.5-3.15-4.3-5.2-6.5-7.7-3.9.9-9.3-5.6-11.7 2.43A216.23 216.23 0 0 0 66 55.3c4-4.74 12.88-3.27 14.5-11.16-.3-3-2.5-4.4-4.67-5.86A21.5 21.5 0 0 0 69.3 35q-1.77-.47-3.56-.9z"/>
      <path class="cls-16" d="M83.7 34.85c-2-3.9-4.75-7.08-9-8.68l-2.56 3a13.55 13.55 0 0 1-.14 5.68 6.9 6.9 0 0 0 1.4 3.53 8.64 8.64 0 0 0 3.3 2c4.62 1.02 5.18-3.04 7-5.53z"/>
      <path class="cls-95" d="M75.1 34.92c1.1-3-.36-4.67-3-5.76L69 31.94c1.07 3 3.3 3.57 6.1 2.98z"/>
      <path class="cls-16" d="M75.1 34.92l-6.07-3-3.3 2.2.78.8c2.9 1.92 5.8 3.12 8.6 0z"/>
      <path class="cls-98" d="M181.43 43.42l8.33-8.5C176.93 23 161.3 24.88 145.9 26.36c-2.95.28-3.1 3.16-2.1 5.7 2.4 3.65 3.74 8.33 8.94 9.27 9.7-1.32 19.16.83 28.7 2.1z"/>
      <path class="cls-13" d="M154.84 35l-11-2.9-3.12 11.3c0 3.3 1.74 5.46 4.52 6.94 6.66 4 13.74 6 21.54 4.53h12.07c4.53-8.94-3.6-11.72-8.33-14.84-4.43-2.94-9.76-5.62-15.68-5.03z"/>
      <path class="cls-14" d="M146.76 46.44l-6.08-3.07C131 38.2 120.16 37 109.58 35l2.83 8.4c3.1 8.23 10.4 8.06 17.3 8.72 5.2-1.32 9.9-.15 14.3 2.77 4.2-1.8 6.2-4.2 2.8-8.5zM78 43.57c-6.43 7.58-17.82 8.67-24 18.63 4.87 1.54 8.56-.32 11.64-2.58C76.18 51.87 88.84 47.25 98 37.44c-4.76-.35-9.42 3.1-14.24.38-1.5.82-2.7 2-4.12 2.93l-1.2 1.18z"/>
      <path class="cls-99" d="M80.87 43.47l2.84-5.65v-3l-8.6 3h-1.2a2.08 2.08 0 0 0-1.6 1.6v1.22l5.8 2.93a1.7 1.7 0 0 1 2.9-.1z"/>
      <path class="cls-85" d="M155.47 92c-5.2 4.77-13.3 6.8-18.1 5.3-14.14-4.38-24.54 4.85-36.54 7.5-7 1.55-10.14 12.7-20 10.44-9.6 1-12.87 10.16-19.45 15.06-6.57 9.22-10.64 18.46-.28 27.83 5.7 5 11.26-.43 16.9-.26 6.47-7.67 11.5-17.75 24.45-14.46 6.74-2.8 7.58-10.3 12-15 3.56-3.8 6-8.9 12.38-10.2-.5 4-1.78 7.8-1.22 11.8 10.8 18.2 20 18 36.2-.7a31.56 31.56 0 0 1 6.2-14.8c4.1-5.4 4.8-11.2-1-16.3l-2.6-2.7c-2.3-2.8-4.2-6.8-8.8-3.2z"/>
      <path class="cls-65" d="M281.77 97.9l-8.77 2.76-8.66 8.82c-4.2 7.27-3.86 18.3-16.36 18.77-2.4.1-3.78 4-3.87 7-.2 9.27-3.9 17.6-7.1 26.06-.2 2.7-.4 5.5 1.6 7.7a30.2 30.2 0 0 1 4.3 3.8c13.5 17.2 17.5 20.3 36.4-1.7v10.2c5.3 8 9.5 4.1 13.6-1.2 2-6.4.5-12.6-1.6-18.6a24.6 24.6 0 0 1-1-6.3c-1.8-7.9-2-15.7 1.1-23.4 2.5-2.3 6.3-1.6 8.7-4a7.8 7.8 0 0 0 2.5-6c-.5-3-2.6-4.9-4.6-6.8a29.58 29.58 0 0 1-5.12-5.4c-.6-1-1.2-2-1.76-3-.75-1.6-1.46-3.2-2.1-4.9a6.83 6.83 0 0 0-1.9-3c-1.6-.8-3.16-1.7-5-.6z"/>
      <path class="cls-100" d="M158.33 126.6c-9.56 3.5-19.08 17.4-28.7.1-4.4-7.67-5.82-8.36-11-3.3a39.48 39.48 0 0 0-10.74 16.88c-3.9 13 3.2 17.84 21.5 15l11.1-7.82c.2 4.6.7 7.83.4 11-.7 6.75 2.6 10.86 8.3 13.45 6.4 3 9.5-1.4 12.7-5.8 1-1.3 3.1-1.9 4.7-2.8l.3-1.4c-.3-12-.3-12 10.1-18.1-13-.8-10.1-9.8-10.5-17.1-2.8-2.4-5.7-2.5-8.5 0z"/>
      <path class="cls-14" d="M129.5 155.3c-2.27-1.7-4.3-4.37-6.82-4.92-14.1-3.1-10.93-11.14-2.74-15.46 4.38-2.3 1.24-12.58 9.68-8.2 4.8-5.33 13.46-12.1 8.42-17.94-4.9-5.67-12.37 3.2-18.34 6.24-9.42 4.8-12.4 15.3-18.52 23-3 2.2-7.7 3.2-5.92 8.64 4.8 4.7.93 12.5 6.07 17.07 10.12 10.48 17.72 4.34 25-3.8z"/>
      <path class="cls-101" d="M238.6 169l2.75-5c-2.9-2.85-4.5-6.08-1.78-9.8 2.83-3.88 1.8-7.66.36-11.6-1.35-3.67-3.13-6.86-7.64-7-4-.12-5.8 2.38-7 5.67a37.08 37.08 0 0 1-6.5 10.76c-6.5 10.27-17.2 16.57-24.7 26a19.28 19.28 0 0 0 .6 4.3c7 4.32 5.8 17.58 17.8 16.54 12-.6 18-7 17.3-18.9-.5-6.87 1.5-10.67 8.7-10.97z"/>
      <path class="cls-65" d="M198.4 180.66v-2.2c7.67-14.85 4.17-26.58-8.62-28.87-7.4 3.6-16.12 6.1-15.16 17.4l-7.42-5.2-.33 1.4c.64 11.7 2.63 22.4 17.2 24.1 6.5 1.4 11.62-.1 14.32-6.8z"/>
      <path class="cls-102" d="M6.75 138.17c-1.2 8.62 8.1 6.93 11.18 11.35 11 3.3 19.8-3.74 29.64-6.1a8.35 8.35 0 0 0 3.1-3.3c3.47-5.77 4.64-12.4 7.8-18.48 5.2-9.92-5.67-14.6-11.05-20.76a7.2 7.2 0 0 0-4.3-.18c-9.8 14.77-22.72 26.48-36.37 37.47z"/>
      <path class="cls-16" d="M6.75 138.17C23.1 137.63 40 122 43.58 104.1c-.5-5-3.44-7.14-8.28-7-5.77 5.44-16.23 6.9-15.45 18-4.12 7.8-14.05 12.36-13.1 23.07z"/>
      <path class="cls-103" d="M19.85 115.06c6.15-3.58 13.4-6 15.53-14-.32-5.08-4.86-6.06-8.1-8.3-7.08 1.1-14.53.72-20.9 4.94-1.05 10.1 5.46 14.3 13.47 17.36z"/>
      <path class="cls-104" d="M46.73 139.3a7.87 7.87 0 0 1-.27 1.73c-.67 2.7.95 4.28 2.84 5.72 4.54 3.16 4.8 10.75 11.8 11.34-4.46-9.9-1.67-18.2 5.42-25.7 4.22-3.1 9.6-6.2 3.7-11.9-4.8-4.7-9.8-.4-12.5 2.8-4.1 4.8-7.15 10.6-11 15.8z"/>
      <path class="cls-67" d="M198.4 180.66c-5.84 0-8.32 7.13-14.33 6.74 10.9.36 16.4 14.1 28.5 11.46z"/>
      <path class="cls-105" d="M95.27 146.7l5.92-8.65c-14.9-1.7-17.9 10.32-23.2 19.78 6.9-1.96 9.6-10.4 17.2-11.14z"/>
      <path class="cls-67" d="M49.3 146.75L46.46 141l-28.54 8.5c11.17 7.13 20.9-1.98 31.38-2.75z"/>
      <path class="cls-80" d="M6.4 97.7c6.94 1.32 13.2-2.16 19.84-2.87C30.4 95 36 97.6 35 89.4c-10.5-1.66-22 7.52-31.6-2.96q-1.4-3-2.38.17c-2.15 5.7 3.26 7.6 5.37 11.1z"/>
      <path class="cls-106" d="M126.35 160c-7.92 4-15.42 10.8-25 3.8 9 12.52 15.94 11.47 25-3.8z"/>
      <path class="cls-107" d="M1 86.6q1.2-.1 2.38-.16l-2.2-5.54z"/>
      <path class="cls-100" d="M224.2 155.35l7.72-14.3c2.46 9.5-4.13 21.1 9.43 23 4.7-5.28 9.06-10.38 9-18.38 0-5.47-1-12.08 9.58-11.7 6.72.25 9.62-18.32 4.4-24.48-7.73 2.2-14.57 8.7-23.6 4.6-1.23-.6-2.8-.4-4.2-.6-11.12-1.5-10.44-16.3-18-18.1-7.3-1.8-16.16 4.2-21.57-6.3-3.74-7.3-18.62-5.8-14-19.9-9 19.6 4.9 43.9 30 51.7-7.7 3.4-13.13 2.3-18.7 0-2.56-1.1-5.7-2.7-7.38.9-1.38 3 1.12 5.3 2.83 7.5a18.76 18.76 0 0 1 7.9 4.9c1.8 1.5 3.5 3.7 5.9 3.7 10.4.3 14.7 6.2 15.2 15.8 1.7 1.4 3.7 1.5 5.7 1.4z"/>
      <path class="cls-72" d="M224.2 155.35l-2.87-2.87c-3.17-6.13-5.5-12.9-14.43-13-6-.1-5.66-6.7-8.72-9.92h-8.4c3.17 6.68.65 13.36 0 20 7.06 8.37 6.15 19.1 8.6 28.86q18.62-5.15 25.82-23.07z"/>
      <path class="cls-108" d="M158.33 126.6h8.5c1.45-3.46 1.92-8.2 4.5-10.2 13.26-10.13 6.08-14.55-4.5-18.45 1.32 10.77-7.7 18.5-8.5 28.66z"/>
      <path class="cls-14" d="M146.76 46.44l-2.8 8.44c5.07 3.6 10.74 6.54 13.93 12.3-1.7 2.8-2.8 5.55.8 7.8 9-4.2.3-15.46 8-20.16a52.9 52.9 0 0 0-20-8.38z"/>
      <path class="cls-109" d="M154.84 35c7.94 6.68 20.36 8 24 19.87 4.92-2.88 4-7.08 2.62-11.4-7.93-5.9-15.4-13.1-26.62-8.47z"/>
      <path class="cls-110" d="M158.7 75l-.8-7.82c-9.56 7.4-1.2 16.57-2.43 24.8l8.77 3.27c-.36-7.17-1.1-14.25-5.55-20.25z"/>
      <path class="cls-78" d="M46.73 139.3c6.07-2.52 11.77-5.32 15-11.72 1.53-3 4.84-4.9 8-2.22.57.5-2 4.65-3.18 7.12 9.67-1.7 10.9-10.4 14.32-17.3-1.47-4-2.42-8.74-8.57-5.72-9.46.44-15.17-5.38-20.28-12.2-4.63-.65-6.7 1.17-5.74 5.93 11.8 11.8-1.75 24.1.45 36.1z"/>
      <path class="cls-102" d="M109.5 60.73c-8.07 6.68-1.57 20-12.94 26.4-3.56 2 3.12 4.76 6.76 4 12.1-2.55 21.18-16.33 19.7-29.22-.25-2.2.53-4.6.83-6.9-9.4-9.6-11.65-1.3-14.35 5.8z"/>
      <path class="cls-111" d="M46.22 103.2c.87-3 2.58-5.14 5.74-5.9 1.5-1.75 3.46-3.3 4.43-5.3 1.9-3.92 5.9-8.8 2.4-12.38-4.4-4.62-6.5 2.44-9.8 4.15-4.5 2.36-8.7 5.47-14.1 5.63l-8.7 5.43a17.3 17.3 0 0 0 9.1 6.24l8.2 3a13 13 0 0 1 2.7-.86z"/>
      <path class="cls-112" d="M72.23 109.48l8.57 5.73c3.35-4 8.93-6.4 6.07-13.9-1.3-3.3 2.25-8.5-2.78-11.1-4.5-2.3-8.2.3-11.8 2.6-4.8 3.1-3.1 7.2-1.5 11.3a41.9 41.9 0 0 1 1.3 5.5z"/>
      <path class="cls-113" d="M109.5 60.73c4.77-1.94 8.38-6.8 14.35-5.77l5.8-2.85-17.24-8.7c-2.6 6.9-10.2 7.7-15.1 12.3 2.7 5.7 9 1.8 12.3 5.1z"/>
      <path class="cls-114" d="M75.1 34.9h-8.57l5.7 5.7a32.78 32.78 0 0 1 2.94-2.92l-.07.06q-.02-1.38 0-2.83z"/>
      <path class="cls-16" d="M80.87 43.47l-2.9.08zm-5.74-5.72l-2.93 2.93zm123.05 91.78c-.32 3.27-1.5 6.75-.78 9.76 1.8 7.4 2.22 17.7 14.9 10.4 3.22-1.9 6.18 1.2 9 2.7 1.84-18.9.07-20.7-23.12-23z"/>
      <path class="cls-115" d="M298.9 109.5l-.27-5.74-5.67-.83.43 1.28c-2.8 3.8-2.3 6 2.9 5.7a13.24 13.24 0 0 1 2.6-.3z"/>
      <path class="cls-116" d="M333.4 218.5c-4.8 1.56-11.58 7-8.86-5.1.87-3.9 0-8.2-.07-12.3-11.3 1.76-6.06 11.52-8.47 17.57-5.83 7.77-2.43 24 6.1 29.2a5.9 5.9 0 0 0 5.44-3.8l5.6-5.62 5.6-11.78c-4.43-.98-4.1-5.08-5.34-8.16z"/>
      <path class="cls-82" d="M344.68 241.27l.26 6.42c1.06-2.2 1.62-4.4-.26-6.5z"/>
      <path class="cls-5" d="M324.5 264.3l-.35 3c11.67-6.2 6-14.9 3.38-23.2l-5.86.15c-12.35 8.55.4 13.57 2.84 20.04z"/>
      <path class="cls-89" d="M298.72 229.88c-10.3 8.25-2.1 16.9-.54 25.4l3.16.45.44-.1a38.38 38.38 0 0 0 3.07-6.15c.46-4.16-.52-8.25.56-12.56s-.3-8.6-6.6-7.04z"/>
      <path class="cls-109" d="M301.77 250v5.6c9.24-1.45 14.4 7.77 22.73 8.68l-2.84-20.06-5.66-25.54-8.72 2.54c-3.28 9.33-2.14 19.5-5.5 28.78z"/>
      <path class="cls-95" d="M301.77 250c7.22-8.57 13.3-17.35 5.5-28.8l-8.57-2.76c-1.5 2.86-1.1 5.72 0 8.58v2.84c3.5 6.35-.8 13.87 3.07 20.14z"/>
      <path class="cls-117" d="M296.3 109.86l-2.92-5.65-6.16 5.4 6 6.3z"/>
      <path class="cls-33" d="M301.2 117.8c.08-3.06.17-6.12-2.4-8.42z"/>
      <path class="cls-118" d="M333.33 195.4a11.9 11.9 0 0 0-.9-2.46l-2.43 2.53z"/>
    </g>
  </g>
</svg>
